<?xml version="1.0" encoding="UTF-8"?><svg id="Layer_1" xmlns="http://www.w3.org/2000/svg" xmlns:xlink="http://www.w3.org/1999/xlink" viewBox="0 0 1080 1080"><defs><style>.cls-1{fill:url(#linear-gradient);}.cls-2{fill:#fff;}.cls-3{fill:#0c7b93;}.cls-4{fill:url(#linear-gradient-3);}.cls-5{fill:url(#linear-gradient-4);}.cls-6{fill:url(#linear-gradient-2);}.cls-7{fill:url(#linear-gradient-6);}.cls-8{fill:url(#linear-gradient-7);}.cls-9{fill:url(#linear-gradient-5);}</style><linearGradient id="linear-gradient" x1="390.58" y1="275.01" x2="766.29" y2="506.79" gradientUnits="userSpaceOnUse"><stop offset="0" stop-color="#fff"/><stop offset="1" stop-color="#087b91"/></linearGradient><linearGradient id="linear-gradient-2" x1="395.19" y1="275.19" x2="767.36" y2="504.78" gradientUnits="userSpaceOnUse"><stop offset="0" stop-color="#c1dadf"/><stop offset="1" stop-color="#087b91"/></linearGradient><linearGradient id="linear-gradient-3" x1="876.54" y1="495.1" x2="930.25" y2="495.1" gradientTransform="translate(1244.66 -211.31) rotate(156.78) scale(1 -1)" gradientUnits="userSpaceOnUse"><stop offset="0" stop-color="#f1e9ce"/><stop offset=".33" stop-color="#9a8c79"/><stop offset=".71" stop-color="#d2c5aa"/><stop offset=".77" stop-color="#cbbea4"/><stop offset=".85" stop-color="#baab94"/><stop offset=".95" stop-color="#9d8d7b"/><stop offset="1" stop-color="#8c7b6c"/></linearGradient><linearGradient id="linear-gradient-4" x1="693.3" y1="610.71" x2="770.32" y2="610.71" gradientTransform="translate(942.33 -361.54) rotate(146.48) scale(1 -1)" xlink:href="#linear-gradient-3"/><linearGradient id="linear-gradient-5" x1="484.33" y1="480.98" x2="551.18" y2="480.98" gradientTransform="translate(778.17 -216.2) rotate(138.39) scale(1 -1)" xlink:href="#linear-gradient-3"/><linearGradient id="linear-gradient-6" x1="510.21" y1="443.89" x2="556.42" y2="443.89" gradientTransform="translate(841.2 -330.65) rotate(142.24) scale(1 -1)" xlink:href="#linear-gradient-3"/><linearGradient id="linear-gradient-7" x1="198.71" y1="517.04" x2="252.79" y2="517.04" gradientTransform="translate(368.08 -32.58) rotate(119.1) scale(1 -1)" xlink:href="#linear-gradient-3"/></defs><g><path class="cls-3" d="M159.44,768.7c26.44,0,28,14.33,28,37.88v166.5c0,38.2-5.83,51.89-34.61,74.82l1.17,1.59c53.67-24.83,67.67-49.67,67.67-99.97v-142.94c0-23.56,1.56-37.88,28-37.88v-1.91h-90.22v1.91Z"/><path class="cls-3" d="M355.82,986.78c-43.55,0-65.33-35.66-65.33-80.87,0-4.78,.39-9.55,1.17-14.33h127.16c2.33-40.11-28.78-63.67-69.61-63.67-50.17,0-91.78,37.25-91.78,89.78,0,47.43,31.5,84.68,83.22,84.68,41.22,0,64.94-22.61,78.55-41.71l-2.33-1.27c-12.44,14.65-34.22,27.38-61.05,27.38Zm-8.56-154.41c29.55,0,41.22,21.33,38.11,54.12h-92.94c5.83-29.61,24.89-54.12,54.83-54.12Z"/><path class="cls-3" d="M481.04,965.45v-215.85h-1.56l-49.78,10.19v1.91c13.22,2.87,19.83,9.55,19.83,29.93v173.83c0,20.38-1.17,31.2-17.11,31.2v1.91h65.72v-1.91c-15.94,0-17.11-10.82-17.11-31.2Z"/><path class="cls-3" d="M561.54,965.45v-136.89h-1.55l-49.78,12.73v1.91c13.22,2.87,19.83,9.55,19.83,29.93v92.33c0,20.38-1.17,31.2-17.11,31.2v1.91h65.72v-1.91c-15.94,0-17.11-10.82-17.11-31.2Z"/><path class="cls-3" d="M541.71,801.5c12.05,0,21.78-7.96,21.78-17.83s-9.72-17.83-21.78-17.83-22.17,7.96-22.17,17.83,9.72,17.83,22.17,17.83Z"/><path class="cls-3" d="M699.2,993.47h-71.55l150.11-225.4v-1.27h-174.22l-10.5,47.75h2.34c21.78-35.98,35-42.66,77.78-42.66h64.55l-150.11,225.4v1.27h183.94l8.94-53.48h-2.33c-22.95,42.66-37.72,48.39-78.94,48.39Z"/><path class="cls-3" d="M927.09,963.22v-84.05c0-29.93-18.28-51.26-56-51.26-45.11,0-67.66,29.93-73.89,47.43l2.33,.96c12.05-19.1,31.11-34.07,57.16-34.07,39.28,0,39.28,34.7,39.28,43.93v24.52l-36.94,8.59c-47.05,11.14-68.44,26.74-68.44,49.67,0,19.74,18.67,33.43,45.11,33.43,22.17,0,45.5-10.82,61.44-27.06,.59,8.72,3.21,19.84,12.99,24.66,1.5,.74,5.89,2.83,11.51,2.41,1.94-.15,3.78-.6,5.53-1.23v-32.86c-.05-1.65-.08-3.33-.08-5.08Zm-31.11,8.91c-10.5,7.64-26.83,15.92-42.39,15.92-18.28,0-31.5-10.51-31.5-27.38,0-18.47,10.5-28.33,46.28-37.88l27.61-7.32v56.67Z"/></g><g><g><path class="cls-2" d="M774.43,453.51c0,109.59-104.95,198.44-234.42,198.44-32.7,0-63.84-5.67-92.11-15.91-83.68-30.3-142.32-100.62-142.32-182.53,0-109.59,234.43-423.01,234.43-423.01,0,0,0,0,0,.02,1.82,2.43,234.41,313.83,234.41,422.99Z"/><g><path class="cls-1" d="M539.85,40.96s0-.02,0-.02c-3.47,4.67-6.92,9.35-10.36,14.04,0,0-5.44,7.42-10.27,14.1-30.77,42.52-60.21,100.99-60.21,100.99-69.22,137.47-79.83,173.18-85.97,203.23-4.81,23.55-8.57,51.96,3.96,80.87,9.49,21.9,25.53,37.48,31.64,43.31,8.52,8.14,19.56,18.47,37.4,25.19,12.93,4.87,24.45,5.96,32.05,6.11,6.12-.66,17.38-2.84,22.9-11.45,5.85-9.14,2.26-20.91,.33-26.96-20-62.54-47.08-94.63-38.52-129.21,2.97-11.98,9.21-23.95,19.95-35.87,11.18-12.41,24.97-18.9,39.6-20.08,42.86-3.5,87.38,40.98,106.54,75.01,10.07,17.86,10.3,35.39-2.01,52.15l-.26,.36-.45,.08c-4.79,.81-10.59-5.31-12.47-9.26l.27-.54c.66-1.33,5.38-10.76,1.36-11.92-4.54-1.03-3.66,9.52-3.14,11.92-1.06,4-11.82,8.72-16.28,7.09l-.18-.17c-12.9-13.03-16.2-28.71-11.76-46.27-3.88-7.13-10.73-18.55-19.22-28.28-32.08-36.8-62.19-9.72-52.86,26.18,18.22,70.11,63.49,94.61,56.91,150.67-3.47,29.52-25.18,55.5-47.66,68.43-19.01,10.93-38.49,11.72-48.92,12.23-27.3,1.34-48.84-6.01-60.72-11.1-12.02-4.97-24.77-11.09-37.88-18.68-3.99-2.31-7.83-4.65-11.52-7,15.39,15.21,44.28,39.82,87.46,55.93,0,0,44.6,15.53,90.31,15.53,126.94,0,229.85-86.72,229.85-193.7S541.63,43.33,539.85,40.96Zm-76.51,408.37c6.34,10.07,13.39,19.85,19.55,29.98,4.16,6.85,9.58,16.51,9.28,24.04-.44,10.49-10.16,14.76-20.04,15.33-27.62,1.61-58.59-27.85-74.49-49.37-6.45-8.71-12.1-18.08-16.42-27.71l-1.17-2.62,2.02,2.2c2.82,3.06,8.78,8.6,13.6,11.75-13.2-12.53-16.71-26.9-15.86-43.31l.1-1.91,.89,1.88c3.07,6.47,7.75,14.79,12.55,20.39l.07,.09c1.15,4.57,5.3,11.95,10.18,16.6-4.2-5.17-8.35-13.8-10.7-19.8-6.45-16.51-7.82-34.12,1.01-46.53l.24-.35,.86,.54-.17,.4c-4.47,10.5,2.83,27.02,9.94,37.18l.07,.1,.02,.11c.83,3.87,2.89,11.42,4.95,15.05-.97-2.33-2.05-8.01-2.23-10.2-.32-1.63-.63-3.28-.91-4.91-.92-5.49-1.45-11.02-.87-16.32,1.37-12.73,9.07-21.27,18.85-28.32l2.16-1.55-1.33,2.28c-7.7,13.08-7.91,27.52-.74,43.18l.03,.07v.07c1.49,8.81,5.67,16.69,11.57,23.88-12.89-22.15-7.09-53.26,17.55-58.44l1.7-.36-1.1,1.21c-16.83,18.68-4.81,43.66,8.83,65.38Zm161.36-9.37c-4.03,11.66-5.87,24.5-6.71,36.76-.79,11.43-12.76,13.18-14.82,.89-2.23-13.47-4.4-27.34-5.43-40.93l-.08-.98,.97-.21c5.2-1.08,10.47-3.56,13.11-8.44l1.1-2.03,.92,2.12c2.52,5.97,5.37,8.11,10.49,11.52l.72,.47-.28,.82Z"/><path class="cls-6" d="M769.54,453.83c0,106.98-102.91,193.7-229.85,193.7-32.06,0-62.59-5.53-90.31-15.53h-.02c392.22-78.61,92.17-587.96,90.34-591.06,1.78,2.37,229.84,306.33,229.84,412.89Z"/></g></g><path class="cls-4" d="M583.19,603.69l13.59-8.32c.72-.44,1.18-1.21,1.23-2.06l.85-15.91c.05-.99,1.22-1.49,1.97-.85l12.11,10.35c.64,.55,1.52,.75,2.34,.53l15.39-4.11c.96-.26,1.79,.7,1.41,1.61l-6.1,14.72c-.32,.78-.24,1.68,.22,2.39l8.67,13.37c.54,.83-.11,1.92-1.1,1.84l-15.88-1.25c-.84-.07-1.67,.29-2.2,.95l-10.04,12.37c-.62,.77-1.86,.49-2.09-.47l-3.72-15.49c-.2-.82-.79-1.5-1.58-1.8l-14.87-5.72c-.93-.36-1.04-1.62-.2-2.14Z"/><path class="cls-5" d="M633.02,563.86l17.03-15.22c.91-.81,1.36-2.01,1.2-3.22l-2.88-22.66c-.18-1.41,1.34-2.41,2.57-1.7l19.74,11.5c1.05,.61,2.33,.67,3.43,.15l20.66-9.74c1.29-.61,2.71,.52,2.41,1.91l-4.83,22.33c-.26,1.19,.09,2.43,.92,3.31l15.65,16.64c.97,1.04,.34,2.74-1.08,2.88l-22.73,2.3c-1.21,.12-2.28,.83-2.87,1.9l-10.99,20.03c-.68,1.25-2.5,1.17-3.07-.13l-9.21-20.9c-.49-1.11-1.5-1.91-2.69-2.14l-22.44-4.26c-1.4-.27-1.88-2.02-.82-2.96Z"/><path class="cls-9" d="M680.66,502.13l12.78-15.16c.68-.81,.92-1.89,.64-2.91l-5.22-19.09c-.32-1.19,.86-2.24,2-1.77l18.34,7.43c.98,.4,2.08,.29,2.97-.29l16.56-10.9c1.03-.68,2.39,.12,2.3,1.35l-1.45,19.75c-.08,1.05,.37,2.07,1.19,2.73l15.45,12.35c.96,.77,.62,2.31-.58,2.61l-19.23,4.77c-1.02,.25-1.86,.99-2.23,1.98l-7.01,18.54c-.44,1.15-2.01,1.31-2.65,.26l-10.44-16.8c-.56-.89-1.52-1.46-2.57-1.5l-19.78-.89c-1.23-.06-1.86-1.5-1.07-2.44Z"/><path class="cls-7" d="M670.15,355.74l9.52-9.86c.51-.52,.72-1.27,.58-1.98l-2.73-13.43c-.17-.84,.69-1.5,1.46-1.13l12.32,6c.66,.32,1.43,.3,2.06-.06l11.93-6.75c.74-.42,1.64,.19,1.53,1.04l-1.9,13.57c-.1,.72,.16,1.45,.7,1.94l10.1,9.26c.63,.58,.32,1.62-.52,1.77l-13.5,2.39c-.72,.13-1.33,.6-1.63,1.26l-5.69,12.47c-.35,.78-1.44,.81-1.85,.06l-6.44-12.1c-.34-.64-.98-1.08-1.7-1.16l-13.62-1.55c-.85-.1-1.22-1.12-.62-1.74Z"/><path class="cls-8" d="M692.81,437.01c-.96,.29-1.83-.65-1.47-1.58l5.7-14.99c.3-.8,.2-1.69-.29-2.4l-9.12-13.2c-.57-.82,.05-1.94,1.05-1.89l16.02,.79c.85,.04,1.67-.34,2.19-1.02l9.74-12.75c.61-.79,1.86-.55,2.12,.42l4.2,15.48c.22,.82,.84,1.48,1.64,1.77l15.13,5.32c.94,.33,1.1,1.6,.26,2.14l-13.43,8.78c-.71,.47-1.15,1.26-1.17,2.11l-.38,16.04c-.02,1-1.18,1.54-1.96,.91l-12.5-10.06c-.66-.54-1.55-.71-2.37-.46l-15.37,4.59Z"/></g></svg>