<?xml version="1.0" encoding="UTF-8"?><svg id="Layer_1" xmlns="http://www.w3.org/2000/svg" xmlns:xlink="http://www.w3.org/1999/xlink" viewBox="0 0 1080 1080"><defs><style>.cls-1{fill:url(#linear-gradient);}.cls-2{fill:#fff;}.cls-3{fill:url(#linear-gradient-3);}.cls-4{fill:url(#linear-gradient-4);}.cls-5{fill:url(#linear-gradient-2);}.cls-6{fill:url(#linear-gradient-6);}.cls-7{fill:url(#linear-gradient-7);}.cls-8{fill:url(#linear-gradient-5);}</style><linearGradient id="linear-gradient" x1="308.93" y1="437.61" x2="889.93" y2="796.02" gradientUnits="userSpaceOnUse"><stop offset="0" stop-color="#fff"/><stop offset="1" stop-color="#087b91"/></linearGradient><linearGradient id="linear-gradient-2" x1="316.07" y1="437.88" x2="891.59" y2="792.92" gradientUnits="userSpaceOnUse"><stop offset="0" stop-color="#c1dadf"/><stop offset="1" stop-color="#087b91"/></linearGradient><linearGradient id="linear-gradient-3" x1="-3260.78" y1="1690.11" x2="-3177.72" y2="1690.11" gradientTransform="translate(-2977.1 656.15) rotate(156.78) scale(1 -1)" gradientUnits="userSpaceOnUse"><stop offset="0" stop-color="#f1e9ce"/><stop offset=".33" stop-color="#9a8c79"/><stop offset=".71" stop-color="#d2c5aa"/><stop offset=".77" stop-color="#cbbea4"/><stop offset=".85" stop-color="#baab94"/><stop offset=".95" stop-color="#9d8d7b"/><stop offset="1" stop-color="#8c7b6c"/></linearGradient><linearGradient id="linear-gradient-4" x1="-3247.66" y1="2126.11" x2="-3128.56" y2="2126.11" gradientTransform="translate(-3091.9 853.21) rotate(146.48) scale(1 -1)" xlink:href="#linear-gradient-3"/><linearGradient id="linear-gradient-5" x1="-3263.56" y1="2211.94" x2="-3160.19" y2="2211.94" gradientTransform="translate(-3066.8 1244.64) rotate(138.39) scale(1 -1)" xlink:href="#linear-gradient-3"/><linearGradient id="linear-gradient-6" x1="-3383.51" y1="2001.26" x2="-3312.06" y2="2001.26" gradientTransform="translate(-3098.11 1016.5) rotate(142.24) scale(1 -1)" xlink:href="#linear-gradient-3"/><linearGradient id="linear-gradient-7" x1="-2921.62" y1="2637.18" x2="-2837.99" y2="2637.18" gradientTransform="translate(-2901.72 1889.79) rotate(119.1) scale(1 -1)" xlink:href="#linear-gradient-3"/></defs><g><path class="cls-2" d="M902.51,713.64c0,169.47-162.3,306.86-362.51,306.86-50.57,0-98.72-8.76-142.44-24.6-129.4-46.85-220.08-155.6-220.08-282.27,0-169.47,362.52-654.14,362.52-654.14,0,0,0,0,.01,.02,2.81,3.76,362.49,485.3,362.49,654.11Z"/><g><path class="cls-1" d="M539.77,75.67s-.01-.02-.01-.02c-5.36,7.22-10.7,14.46-16.02,21.71,0,0-8.41,11.47-15.89,21.8-47.58,65.75-93.11,156.17-93.11,156.17-107.03,212.58-123.45,267.8-132.94,314.27-7.44,36.41-13.25,80.35,6.13,125.06,14.68,33.86,39.48,57.95,48.92,66.98,13.18,12.59,30.25,28.57,57.83,38.95,19.99,7.52,37.81,9.21,49.57,9.44,9.47-1.02,26.88-4.39,35.41-17.7,9.05-14.13,3.5-32.34,.51-41.69-30.92-96.71-72.8-146.34-59.56-199.81,4.59-18.53,14.24-37.03,30.85-55.46,17.29-19.2,38.62-29.23,61.23-31.06,66.28-5.41,135.12,63.36,164.75,116,15.57,27.61,15.92,54.73-3.1,80.64l-.41,.56-.69,.12c-7.4,1.26-16.37-8.22-19.28-14.33l.42-.83c1.03-2.06,8.32-16.65,2.1-18.44-7.03-1.59-5.65,14.72-4.85,18.43-1.65,6.19-18.27,13.49-25.18,10.96l-.28-.27c-19.96-20.15-25.05-44.4-18.19-71.55-6-11.03-16.6-28.68-29.72-43.73-49.6-56.91-96.17-15.03-81.74,40.48,28.18,108.41,98.18,146.3,88.01,232.99-5.36,45.64-38.94,85.83-73.71,105.81-29.4,16.9-59.52,18.12-75.66,18.91-42.21,2.08-75.53-9.29-93.9-17.16-18.59-7.68-38.3-17.15-58.58-28.88-6.17-3.57-12.1-7.18-17.82-10.82,23.8,23.52,68.47,61.58,135.24,86.49,0,0,68.97,24.01,139.66,24.01,196.3,0,355.43-134.11,355.43-299.53S542.53,79.34,539.77,75.67Zm-118.32,631.5c9.8,15.57,20.7,30.7,30.24,46.36,6.44,10.59,14.82,25.54,14.35,37.17-.67,16.22-15.7,22.83-30.99,23.71-42.71,2.49-90.6-43.06-115.19-76.34-9.97-13.48-18.71-27.96-25.39-42.85l-1.82-4.05,3.12,3.4c4.36,4.74,13.58,13.3,21.03,18.17-20.41-19.37-25.84-41.6-24.53-66.97l.15-2.96,1.38,2.91c4.74,10,11.99,22.87,19.41,31.52l.11,.14c1.78,7.07,8.2,18.48,15.74,25.67-6.49-8-12.91-21.35-16.54-30.62-9.98-25.53-12.1-52.76,1.57-71.96l.38-.54,1.33,.83-.27,.62c-6.91,16.24,4.38,41.78,15.37,57.5l.11,.15,.03,.17c1.29,5.98,4.47,17.66,7.66,23.27-1.5-3.6-3.17-12.38-3.44-15.78-.5-2.52-.98-5.07-1.41-7.6-1.42-8.48-2.24-17.04-1.35-25.23,2.12-19.69,14.02-32.9,29.15-43.79l3.34-2.4-2.06,3.53c-11.91,20.23-12.23,42.56-1.14,66.78l.05,.1v.1c2.31,13.63,8.77,25.82,17.89,36.93-19.93-34.26-10.97-82.36,27.14-90.38l2.64-.56-1.7,1.87c-26.03,28.88-7.44,67.52,13.66,101.11Zm249.52-14.49c-6.23,18.03-9.08,37.88-10.37,56.85-1.22,17.68-19.74,20.39-22.91,1.38-3.45-20.83-6.81-42.27-8.39-63.29l-.12-1.51,1.51-.33c8.04-1.67,16.19-5.51,20.28-13.05l1.69-3.14,1.42,3.28c3.9,9.23,8.3,12.53,16.23,17.82l1.11,.73-.43,1.27Z"/><path class="cls-5" d="M894.95,714.13c0,165.43-159.13,299.53-355.43,299.53-49.58,0-96.79-8.55-139.66-24.01l-.03-.02c606.53-121.54,142.53-909.2,139.7-913.99,2.76,3.67,355.42,473.71,355.42,638.49Z"/></g></g><path class="cls-3" d="M606.8,945.86l21.01-12.87c1.12-.68,1.83-1.88,1.9-3.18l1.31-24.6c.08-1.53,1.88-2.3,3.05-1.31l18.73,16.01c1,.85,2.35,1.16,3.61,.82l23.8-6.36c1.48-.4,2.77,1.08,2.19,2.5l-9.43,22.76c-.5,1.21-.38,2.59,.34,3.69l13.4,20.67c.83,1.29-.17,2.97-1.7,2.85l-24.56-1.94c-1.31-.1-2.58,.44-3.41,1.46l-15.52,19.14c-.97,1.19-2.88,.76-3.24-.73l-5.75-23.96c-.31-1.27-1.22-2.32-2.44-2.79l-22.99-8.85c-1.43-.55-1.61-2.5-.3-3.3Z"/><path class="cls-4" d="M683.85,884.28l26.34-23.54c1.4-1.25,2.1-3.11,1.86-4.98l-4.46-35.05c-.28-2.18,2.07-3.73,3.97-2.63l30.53,17.78c1.62,.95,3.61,1.03,5.31,.23l31.95-15.07c1.99-.94,4.19,.81,3.72,2.96l-7.48,34.53c-.4,1.84,.13,3.75,1.42,5.12l24.2,25.73c1.51,1.6,.52,4.24-1.66,4.46l-35.15,3.56c-1.87,.19-3.53,1.29-4.43,2.93l-16.99,30.97c-1.06,1.93-3.87,1.81-4.75-.21l-14.25-32.33c-.76-1.72-2.31-2.96-4.16-3.31l-34.71-6.59c-2.16-.41-2.91-3.12-1.27-4.58Z"/><path class="cls-8" d="M757.52,788.83l19.77-23.44c1.05-1.25,1.42-2.93,.99-4.5l-8.06-29.52c-.5-1.84,1.32-3.46,3.09-2.74l28.36,11.5c1.51,.61,3.22,.44,4.59-.46l25.61-16.86c1.59-1.05,3.69,.18,3.56,2.08l-2.24,30.54c-.12,1.62,.57,3.2,1.84,4.22l23.89,19.1c1.49,1.19,.96,3.57-.89,4.03l-29.74,7.38c-1.58,.39-2.87,1.54-3.45,3.06l-10.84,28.66c-.67,1.78-3.1,2.03-4.11,.41l-16.14-25.98c-.86-1.38-2.34-2.25-3.97-2.33l-30.59-1.38c-1.9-.09-2.88-2.32-1.65-3.78Z"/><path class="cls-6" d="M741.26,562.44l14.72-15.25c.78-.81,1.12-1.96,.89-3.06l-4.22-20.77c-.26-1.29,1.07-2.33,2.26-1.75l19.06,9.28c1.01,.49,2.21,.46,3.19-.1l18.45-10.43c1.15-.65,2.54,.3,2.36,1.61l-2.94,20.99c-.16,1.12,.25,2.24,1.08,3l15.63,14.32c.97,.89,.5,2.51-.8,2.74l-20.87,3.69c-1.11,.2-2.05,.93-2.52,1.95l-8.79,19.29c-.55,1.2-2.23,1.25-2.85,.09l-9.96-18.71c-.53-1-1.52-1.67-2.64-1.79l-21.06-2.4c-1.31-.15-1.88-1.74-.96-2.69Z"/><path class="cls-7" d="M776.3,688.13c-1.48,.44-2.82-1-2.27-2.45l8.82-23.19c.47-1.23,.3-2.62-.45-3.71l-14.1-20.41c-.88-1.27,.08-3,1.62-2.92l24.78,1.22c1.32,.07,2.58-.52,3.38-1.57l15.06-19.72c.94-1.23,2.87-.85,3.28,.64l6.49,23.94c.35,1.27,1.3,2.3,2.54,2.73l23.4,8.23c1.46,.51,1.69,2.47,.4,3.32l-20.76,13.57c-1.1,.72-1.78,1.94-1.81,3.26l-.59,24.8c-.04,1.54-1.83,2.38-3.03,1.41l-19.33-15.55c-1.03-.83-2.4-1.1-3.66-.72l-23.77,7.1Z"/></svg>