<?xml version="1.0" encoding="utf-8"?>
<!-- Generator: Adobe Illustrator 27.0.0, SVG Export Plug-In . SVG Version: 6.00 Build 0)  -->
<svg version="1.1" id="Layer_1" xmlns="http://www.w3.org/2000/svg" xmlns:xlink="http://www.w3.org/1999/xlink" x="0px" y="0px"
	 viewBox="0 0 1080 1080" style="enable-background:new 0 0 1080 1080;" xml:space="preserve">
<style type="text/css">
	.st0{fill:url(#SVGID_1_);}
	.st1{fill:#00A8CC;}
	.st2{clip-path:url(#SVGID_00000137114227096754563510000015444445261647495816_);}
	.st3{fill:#4B4D4F;}
	.st4{clip-path:url(#SVGID_00000166643153826883391570000016968670300516722563_);}
	.st5{fill:url(#SVGID_00000109715760735647992140000008095665279920761499_);}
	.st6{fill:url(#SVGID_00000038383002749253636220000009886629766138459819_);}
	.st7{fill:url(#SVGID_00000167393059454609971470000004573839633159010944_);}
	.st8{fill:#C1DADF;}
	.st9{fill:url(#SVGID_00000140726508506363526970000000398455960400615865_);}
	.st10{fill:url(#SVGID_00000178926084585887981010000015141521122212700818_);}
	.st11{fill:url(#SVGID_00000020363447380165276520000009257514714453725578_);}
	.st12{fill:url(#SVGID_00000112616644453541348310000011176040838474761913_);}
	.st13{fill:url(#SVGID_00000036236131490135680780000011051466666721361299_);}
	.st14{fill:url(#SVGID_00000065789213770596693270000004243460075936010930_);}
	.st15{clip-path:url(#SVGID_00000129889764182845140960000018260292809594858930_);}
	.st16{clip-path:url(#SVGID_00000178903050796190688370000013903810046093303995_);}
	.st17{fill:url(#SVGID_00000121988083934639548320000003677052827884395648_);}
	.st18{fill:url(#SVGID_00000137815649436802624040000001674436299914802068_);}
	.st19{fill:url(#SVGID_00000118368157192971502700000015435239184411095211_);}
</style>
<path d="M575.4,540L908,207.3c9.8-9.8,9.8-25.6,0-35.4h0c-9.8-9.8-25.6-9.8-35.4,0L540,504.6L207.3,172c-9.8-9.8-25.6-9.8-35.4,0h0
	c-9.8,9.8-9.8,25.6,0,35.4L504.6,540L172,872.7c-9.8,9.8-9.8,25.6,0,35.4l0,0c9.8,9.8,25.6,9.8,35.4,0L540,575.4L872.7,908
	c9.8,9.8,25.6,9.8,35.4,0h0c9.8-9.8,9.8-25.6,0-35.4L575.4,540z"/>
</svg>
