<?xml version="1.0" encoding="utf-8"?>
<!-- Generator: Adobe Illustrator 27.0.0, SVG Export Plug-In . SVG Version: 6.00 Build 0)  -->
<svg version="1.1" id="Layer_1" xmlns="http://www.w3.org/2000/svg" xmlns:xlink="http://www.w3.org/1999/xlink" x="0px" y="0px"
	 viewBox="0 0 1080 1080" style="enable-background:new 0 0 1080 1080;" xml:space="preserve">
<style type="text/css">
	.st0{fill:url(#SVGID_1_);}
	.st1{fill:#00A8CC;}
	.st2{clip-path:url(#SVGID_00000118390447869716966770000014812709720945308300_);}
	.st3{fill:#4B4D4F;}
	.st4{clip-path:url(#SVGID_00000052089295031201440190000011583243169025974432_);}
	.st5{fill:url(#SVGID_00000093886634498969760910000014741850087253098158_);}
	.st6{fill:url(#SVGID_00000177477045709407903950000007059799174721957821_);}
	.st7{fill:url(#SVGID_00000010287974699630584740000001989360865629611432_);}
	.st8{fill:#C1DADF;}
	.st9{fill:url(#SVGID_00000050628686347400017000000008001956864041727675_);}
	.st10{fill:url(#SVGID_00000158733623703975853980000002410544123139735426_);}
	.st11{fill:url(#SVGID_00000023966177754859715050000006988259384631657634_);}
	.st12{fill:url(#SVGID_00000032625752385167564420000002760568205150460573_);}
	.st13{fill:url(#SVGID_00000001633537578475810330000007559523879655549838_);}
	.st14{fill:url(#SVGID_00000108306223518731966580000002971886185404096920_);}
	.st15{clip-path:url(#SVGID_00000142152857316040591310000010558179167106574750_);}
	.st16{clip-path:url(#SVGID_00000070814627138854888200000006875734902702362807_);}
	.st17{fill:url(#SVGID_00000088844667566629971070000004553063551984722570_);}
	.st18{fill:url(#SVGID_00000095328230725074358280000006213111952137857200_);}
	.st19{fill:url(#SVGID_00000180349612126367169200000005030345906823969700_);}
</style>
<g>
	<path d="M1035.5,327.5h-991c-13.8,0-25,11.2-25,25v0c0,13.8,11.2,25,25,25h991c13.8,0,25-11.2,25-25v0
		C1060.5,338.7,1049.3,327.5,1035.5,327.5z"/>
	<path d="M1035.5,515h-991c-13.8,0-25,11.2-25,25v0c0,13.8,11.2,25,25,25h991c13.8,0,25-11.2,25-25v0
		C1060.5,526.2,1049.3,515,1035.5,515z"/>
	<path d="M1035.5,702.5h-991c-13.8,0-25,11.2-25,25v0c0,13.8,11.2,25,25,25h991c13.8,0,25-11.2,25-25v0
		C1060.5,713.7,1049.3,702.5,1035.5,702.5z"/>
</g>
</svg>
