<?xml version="1.0" encoding="UTF-8" standalone="no"?>
<svg
   xmlns:dc="http://purl.org/dc/elements/1.1/"
   xmlns:cc="http://creativecommons.org/ns#"
   xmlns:rdf="http://www.w3.org/1999/02/22-rdf-syntax-ns#"
   xmlns:svg="http://www.w3.org/2000/svg"
   xmlns="http://www.w3.org/2000/svg"
   xmlns:xlink="http://www.w3.org/1999/xlink"
   width="720"
   height="720"
   viewBox="0 0 190.4976 190.4976"
   version="1.1"
   id="svg8">
  <defs
     id="defs2">
    <linearGradient
       id="linearGradient4507">
      <stop
         style="stop-color:#fef09b;stop-opacity:1;"
         offset="0"
         id="stop4503" />
      <stop
         style="stop-color:#e7bf47;stop-opacity:1"
         offset="1"
         id="stop4505" />
    </linearGradient>
    <linearGradient
       xlink:href="#linearGradient4507"
       id="linearGradient4509"
       x1="58.867207"
       y1="195.49533"
       x2="69.595345"
       y2="168.26237"
       gradientUnits="userSpaceOnUse"
       gradientTransform="matrix(0.94629771,0,0,0.94629771,-0.21157253,-30.534698)" />
  </defs>
  <metadata
     id="metadata5">
    <rdf:RDF>
      <cc:Work
         rdf:about="">
        <dc:format>image/svg+xml</dc:format>
        <dc:type
           rdf:resource="http://purl.org/dc/dcmitype/StillImage" />
        <dc:title></dc:title>
      </cc:Work>
    </rdf:RDF>
  </metadata>
  <g
     id="layer1">
    <path
       style="fill:url(#linearGradient4509);fill-opacity:1;stroke:#fadd6e;stroke-width:0.183942;stroke-linecap:butt;stroke-linejoin:miter;stroke-miterlimit:4;stroke-dasharray:none;stroke-opacity:1"
       d="m 56.992119,190.38509 c 0,0 15.037695,-7.9119 23.774963,-23.62091 3.532835,-6.3518 6.159045,-13.31328 7.59977,-20.43722 0.393945,-1.94794 0.956714,-4.09656 0.25675,-5.95659 -0.758977,-2.01684 -2.424248,-3.98792 -4.467434,-4.67282 -1.923676,-0.64484 -4.461762,-0.33802 -6.007927,0.97564 -1.396295,1.18633 -2.173219,3.43032 -1.745895,5.21201 0.327459,1.36531 1.642585,2.60918 3.003965,2.95261 1.07148,0.2703 2.348514,-0.20068 3.183689,-0.9243 0.454479,-0.39377 0.596314,-1.06041 0.744571,-1.64319 0.576649,-2.26672 -2.648762,-2.1786 -2.814674,-3.35385 -0.129757,-0.91913 0.805378,-1.86318 1.659303,-1.98653 1.282699,-0.18529 2.518518,1.07677 3.23504,2.1567 0.7563,1.13988 1.049044,2.6917 0.770247,4.03095 -0.299951,1.44086 -1.242758,2.86527 -2.490466,3.64584 -1.540159,0.96353 -3.645024,1.2954 -5.391732,0.79592 -1.780566,-0.50917 -3.335256,-1.97656 -4.236358,-3.59448 -0.812721,-1.45924 -1.167684,-3.33945 -0.744572,-4.95526 0.607124,-2.31854 2.410341,-4.36221 4.416083,-5.67416 1.278513,-0.83627 2.914291,-1.15767 4.441758,-1.1297 1.275318,0.0234 1.89498,0.48876 3.671513,1.07835 0.694284,0.23041 1.947284,-0.32146 1.925618,-1.05266 -0.151941,-5.12803 -2.87522,-9.67105 -4.955258,-14.24958 -2.693536,-5.92894 -5.215285,-10.14795 -9.628088,-13.76175 -2.190091,-1.79355 -5.334274,-2.386 -8.16462,-2.33642 -2.523291,0.0442 -4.561787,1.02847 -6.572777,2.1567 -2.578502,1.44661 -4.918572,3.4321 -6.7525,5.75118 -1.025646,1.29696 -1.826435,2.82027 -2.259393,4.41608 -0.511763,1.88627 -0.865727,3.9732 -0.333773,5.85388 1.043704,3.68993 2.980816,6.75644 6.059276,8.19029 2.75165,1.28164 6.463371,0.95852 9.088919,-0.56485 1.86014,-1.07927 2.984158,-3.31507 3.543137,-5.39173 0.280717,-1.04288 0.294016,-2.26448 -0.179725,-3.23504 -0.98706,-2.02221 -2.840183,-4.26695 -5.083631,-4.44176 -2.504728,-0.19516 -6.199783,2.06888 -5.289031,5.95659 0.139378,0.59495 0.986377,0.86383 1.104022,1.46347 0.308103,1.57038 -0.618453,3.03256 -2.61884,2.20804 -1.202808,-0.49577 -1.726266,-2.04187 -2.105343,-3.28639 -0.346706,-1.13824 -0.355898,-2.41206 -0.07703,-3.56881 0.64948,-2.69402 1.960443,-4.10871 3.825561,-5.16066 2.298684,-1.29649 5.414085,-1.67906 7.882196,-0.74458 2.599124,0.98409 4.802685,3.45457 5.69983,6.08496 1.015759,2.97817 0.687363,6.67931 -0.898622,9.39701 -1.604722,2.74981 -4.728276,4.75415 -7.830846,5.46876 -3.309894,0.76237 -7.001545,-0.12401 -10.064563,-1.59184 -1.125542,-0.53937 -1.990559,-1.54366 -2.772892,-2.51614 -1.42259,-1.76836 -2.687579,-3.74682 -3.389087,-5.90523 -0.641226,-1.97293 -0.828705,-4.1194 -0.667546,-6.18765 0.125311,-1.60821 1.258069,-4.67284 1.258069,-4.67284 0,0 -4.375569,0.72701 -6.521425,0.35945 -2.942025,-0.50394 -5.805457,-1.75263 -8.267321,-3.44043 -1.572638,-1.07818 -2.909588,-2.53837 -3.953936,-4.13367 -1.117791,-1.70749 -1.941823,-3.65139 -2.362091,-5.648483 -0.282036,-1.340213 -0.262915,-2.751086 -0.07702,-4.107982 0.275269,-2.009255 0.740718,-4.0668 1.745892,-5.828201 1.068624,-1.872581 2.618653,-3.521268 4.390408,-4.749856 1.413101,-0.979882 3.06368,-1.788228 4.775532,-1.951294 2.945724,-0.280596 6.168299,0.220345 8.703796,1.745891 1.923009,1.157019 3.557074,3.081353 4.262034,5.212009 0.869262,2.627244 0.699734,5.747197 -0.385124,8.292993 -0.726202,1.70415 -2.257839,3.044173 -3.825561,4.030973 -0.943694,0.594 -2.073436,0.92337 -3.183688,1.02699 -1.357104,0.12666 -2.78096,-0.0335 -4.056635,-0.5135 -1.130797,-0.42551 -2.261015,-1.07554 -3.003964,-2.028323 -1.220269,-1.564912 -2.2405,-3.624074 -2.028317,-5.597134 0.233574,-2.17197 1.511399,-4.623771 3.491786,-5.545777 2.208765,-1.028333 5.577698,-0.779627 7.240323,1.001325 1.615723,1.730712 1.62628,5.010258 0.487822,7.086274 -0.872945,1.591843 -2.694086,0.467708 -3.166823,-0.595685 -0.303579,-0.682886 0.889693,-1.827546 0.753383,-2.562328 -0.179925,-0.969889 -1.093237,-2.108455 -2.079667,-2.105342 -1.458547,0.0047 -2.911304,1.680899 -3.055314,3.132331 -0.146018,1.471682 1.114036,3.016674 2.413442,3.722867 1.248246,0.678382 2.946769,0.537034 4.262034,0 1.109372,-0.452964 2.026195,-1.447078 2.567491,-2.516139 0.68342,-1.349752 0.955751,-3.013125 0.641873,-4.493116 -0.297558,-1.403038 -1.190121,-2.719461 -2.285067,-3.64583 -1.499727,-1.268834 -3.479564,-2.320341 -5.443081,-2.259399 -2.819522,0.08753 -5.735574,1.605763 -7.599773,3.722868 -1.559631,1.771213 -2.191818,4.342976 -2.285066,6.70115 -0.07119,1.800313 0.308379,3.757125 1.335095,5.237688 2.400031,3.46092 6.21418,6.54743 10.372662,7.21465 3.817877,0.61257 7.811085,-1.13298 11.117235,-3.31207 2.362407,-1.55707 6.415078,-5.109313 6.415078,-5.109313 0,0 -3.999402,-3.774168 -5.028634,-6.238999 -0.703581,-1.684949 -1.04975,-3.669345 -0.616197,-5.443076 0.673506,-2.75541 2.27994,-5.665815 4.749857,-7.060601 2.559229,-1.445224 6.316359,-1.997748 8.806493,-0.43648 2.859171,1.792647 5.220353,6.134072 3.953937,9.319991 -0.67866,1.707301 -1.935712,3.462135 -3.645838,4.133665 -2.001468,0.785929 -4.722567,0.679717 -6.418726,-0.641873 -1.629388,-1.269572 -2.737693,-3.861775 -2.105343,-5.828201 0.680213,-2.115268 3.281075,-3.969416 5.494431,-3.774213 1.591499,0.140354 3.379657,1.766113 3.414762,3.363407 0.05135,2.336418 -1.526828,2.374866 -2.72154,1.514823 -0.439838,-0.316631 -0.193473,-1.145957 -0.590523,-1.514823 -1.220282,-1.133675 -2.576632,0.618746 -2.695866,1.668871 -0.13723,1.208631 1.388589,2.398354 2.593167,2.567495 1.304763,0.183203 2.722049,-0.812595 3.466111,-1.899948 0.555722,-0.812122 0.650367,-1.979305 0.385124,-2.926937 -0.375755,-1.342465 -1.354675,-2.673101 -2.618841,-3.260714 -1.622486,-0.754162 -3.768618,-0.677493 -5.366053,0.128374 -1.731704,0.873603 -3.193247,2.692937 -3.568812,4.595809 -0.440247,2.230594 0.04795,5.151909 1.822917,6.572775 3.040677,2.434067 5.427161,4.177309 9.859163,3.260715 2.294604,-0.474549 6.880875,1.437796 6.880875,1.437796 l 4.056637,2.079677 c 0,0 -2.310742,-6.36739 -2.464793,-6.521438 -1.315961,-3.930268 -1.170428,-6.411347 -1.437793,-9.65376 -0.387233,-4.696069 0.743573,-7.985873 1.643193,-12.015861 0.936249,-4.194068 1.450465,-9.248644 0.282425,-12.888801 -1.938222,-6.040401 -9.325037,-10.979885 -16.175191,-9.987538 -3.440167,0.49836 -6.825793,2.940918 -8.755143,5.879552 -1.423363,2.167952 -2.118964,5.155858 -1.412121,7.651123 0.876949,3.095755 3.472204,5.994757 6.470078,7.163302 1.978084,0.771044 4.506968,0.477682 6.3417,-0.590527 1.551132,-0.9031 2.563634,-2.697384 3.08099,-4.416088 0.303512,-1.00829 0.260532,-2.160599 -0.07703,-3.158008 -0.396769,-1.172353 -1.04432,-2.517461 -2.182367,-3.003965 -1.81853,-0.777403 -4.485772,-0.60721 -5.879555,0.795921 -0.851343,0.857052 -0.977404,2.501861 -0.462146,3.594488 0.383844,0.813958 1.403276,1.617545 2.285066,1.437795 1.102635,-0.224774 2.172398,-0.999224 1.925619,-2.772889 -0.1664,-1.195959 2.131016,-3.055315 3.620161,-0.128375 0.302804,0.595165 0.145026,1.364401 -0.05135,2.002641 -0.418874,1.361401 -1.096272,2.850221 -2.310743,3.594484 -1.532763,0.939323 -3.639737,1.0407 -5.366056,0.539181 -1.264317,-0.367296 -2.42158,-1.314814 -3.106663,-2.43912 -0.757228,-1.242707 -0.970169,-2.840075 -0.821596,-4.28771 0.145716,-1.419804 0.732214,-2.855212 1.643193,-3.953936 0.966617,-1.165828 2.331747,-2.118879 3.799886,-2.490466 1.673587,-0.423585 3.547368,-0.178035 5.160655,0.436476 1.519572,0.578815 2.987,1.583127 3.902587,2.926939 1.124657,1.650667 1.552801,3.779848 1.591844,5.776854 0.02938,1.502683 -0.324212,3.06186 -1.026996,4.390405 -0.875157,1.654393 -2.21293,3.141453 -3.799886,4.133665 -1.522189,0.95172 -5.160656,1.540497 -5.160656,1.540497 0,0 -3.881591,-0.297166 -5.622805,-1.078354 -1.938163,-0.869553 -3.73403,-2.215642 -5.057958,-3.876906 -0.961879,-1.206965 -2.288714,-3.774971 -2.288714,-3.774971 0,0 -1.777921,1.692605 -3.103015,2.362849 -2.400677,1.21428 -5.122113,2.251318 -7.80517,2.053996 -3.017015,-0.221888 -6.188201,-1.446861 -8.344345,-3.56881 -1.944119,-1.913282 -3.121076,-4.752337 -3.337738,-7.471402 -0.1738,-2.181151 0.347344,-4.617555 1.694543,-6.341701 1.752429,-2.242763 4.625677,-4.080101 7.471398,-4.133663 2.827962,-0.05323 5.993486,1.479953 7.574097,3.825561 1.329332,1.972715 1.611721,4.963491 0.590523,7.111951 -0.975243,2.051776 -3.36331,3.615506 -5.622805,3.851235 -1.824213,0.190315 -3.884119,-0.717846 -5.083631,-2.105342 -1.050711,-1.215377 -1.636112,-3.132037 -1.181044,-4.672832 0.516297,-1.748109 2.229012,-3.313837 4.005285,-3.722863 1.34285,-0.30922 2.910297,0.306897 3.953936,1.206721 0.588553,0.50745 0.835653,1.346095 1.00132,2.105342 0.127726,0.585371 0.364869,1.342878 -0.02567,1.797245 -0.587646,0.683682 -1.235364,1.51937 -2.695863,0.07703 -0.322737,-0.318724 0.207554,-0.957452 0,-1.36077 -0.30319,-0.589155 -0.954942,-1.159737 -1.61752,-1.155372 -0.679549,0.0044 -1.348406,0.594425 -1.643194,1.206721 -0.278661,0.578799 -0.205185,1.348543 0.07703,1.925618 0.378869,0.774715 1.150641,1.422073 1.976968,1.66887 0.817778,0.244244 1.778127,0.07295 2.541815,-0.308098 0.828654,-0.413464 1.559479,-1.152019 1.925617,-2.002644 0.359064,-0.834194 0.387828,-1.851201 0.128374,-2.721539 -0.404455,-1.356743 -1.213225,-2.829702 -2.490464,-3.440438 -1.925151,-0.920547 -4.522972,-0.694046 -6.393052,0.333774 -1.46301,0.804089 -2.402114,2.489262 -2.901266,4.082311 -0.48366,1.543609 -0.457837,3.317178 0.05136,4.852555 0.553398,1.668666 1.665861,3.25466 3.106663,4.262032 1.729378,1.209132 3.977731,1.857138 6.084951,1.745891 2.52657,-0.13339 5.002233,-1.343421 7.034926,-2.849908 1.202696,-0.891355 2.183826,-2.138695 2.82424,-3.491787 0.758975,-1.603589 0.395984,-3.574351 1.078346,-5.212008 0.750445,-1.801052 3.235037,-4.878231 3.235037,-4.878231 0,0 -4.362622,-0.940491 -6.213328,-2.105343 -1.792677,-1.128327 -3.237134,-2.802135 -4.441758,-4.544459 -0.783889,-1.13379 -1.462315,-2.399631 -1.745893,-3.748536 -0.410339,-1.951878 -0.312844,-4.037124 0.128375,-5.982253 0.238942,-1.053384 0.681919,-2.092338 1.335096,-2.952613 1.734105,-2.283929 3.882161,-4.60074 6.598449,-5.520105 2.215227,-0.749774 4.826536,-0.531634 7.009249,0.308098 1.730432,0.66573 3.191267,2.048014 4.287711,3.543138 0.781005,1.064989 1.2771,2.367974 1.489143,3.671511 0.218912,1.345769 0.269625,2.824554 -0.256749,4.08231 -0.842359,2.01279 -2.343452,4.056454 -4.364733,4.878231 -2.082063,0.84649 -4.734386,0.577906 -6.726827,-0.462146 -1.440804,-0.752098 -3.003965,-3.517463 -3.055314,-3.799888 -0.05135,-0.282423 0.06694,-4.1001 1.335095,-5.494428 1.28568,-1.413601 3.544375,-2.252418 5.417406,-1.874269 1.431677,0.289042 3.169677,1.469215 3.260713,2.926939 0.05861,0.938534 -0.400597,2.530359 -1.848593,2.131018 -0.892597,-0.246169 -1.077487,-1.731612 -1.976968,-1.951294 -0.957222,-0.233785 -2.175295,0.131461 -2.824238,0.872948 -0.542997,0.620433 -0.634048,1.645425 -0.4108,2.439115 0.303889,1.080387 1.155548,2.152146 2.208042,2.541815 1.265574,0.468559 2.825377,0.06449 4.005284,-0.590521 0.971503,-0.539321 1.765903,-1.501639 2.156694,-2.541815 0.397354,-1.057646 0.491868,-2.348681 0.05135,-3.389088 -0.842758,-1.990393 -2.634556,-3.889162 -4.724183,-4.441761 -2.426181,-0.6416 -5.371854,0.186308 -7.317348,1.771571 -1.694649,1.380864 -2.690253,3.747582 -2.798565,5.930903 -0.134121,2.703589 0.872884,5.673786 2.72154,7.65112 2.248676,2.405196 5.783413,3.638033 9.063242,3.928262 2.479263,0.219388 4.786653,-1.501769 7.265999,-1.720219 1.955431,-0.172288 3.962276,-0.08747 5.879552,0.333773 1.662439,0.365253 4.749859,1.874268 4.749859,1.874268 0,0 -1.813962,-2.01736 -2.61884,-3.106662 -1.887592,-2.554617 -4.772673,-4.858026 -5.160657,-8.010571 -0.351081,-2.852691 0.788887,-6.084995 2.772889,-8.16462 1.631289,-1.70991 4.239241,-2.73108 6.598452,-2.593165 2.354549,0.137643 4.948261,1.363695 6.239002,3.337736 1.371841,2.098076 1.528234,5.1723 0.590524,7.497072 -0.641795,1.59114 -2.176284,3.043069 -3.851238,3.414765 -1.995878,0.442911 -5.19272,0.179711 -5.879554,-1.745895 -0.358062,-1.003863 0.77989,-2.326805 1.797244,-2.644514 0.884466,-0.276209 1.6734,1.113586 2.593165,1.00132 1.006356,-0.122836 2.026712,-0.844355 2.490466,-1.745895 0.426733,-0.829572 0.429683,-1.984351 -0.02567,-2.798564 -0.872767,-1.560577 -2.765076,-3.025759 -4.544458,-2.849914 -2.343611,0.231603 -4.295176,2.652359 -5.134981,4.852558 -0.398165,1.043149 -0.114475,2.294106 0.282423,3.337738 0.558546,1.468682 1.798353,2.58402 2.824241,3.774209 0.786268,0.912195 1.801864,1.617341 2.541815,2.567493 1.068659,1.372238 2.695866,4.467433 2.695866,4.467433 0,0 1.740882,-4.596076 3.337736,-6.393053 1.583113,-1.781514 3.778264,-2.955757 5.90523,-4.03096 0.785067,-0.396859 2.387765,-0.872947 2.490464,-0.872947 0.102701,0 1.783566,-2.573199 1.104022,-3.645837 -1.218208,-1.922903 -1.369467,-3.495742 -1.514819,-5.34038 -0.175365,-2.225522 0.161993,-4.509276 0.79592,-6.649798 0.314105,-1.060609 1.227539,-1.897604 1.46347,-2.978292 0.272087,-1.246292 -0.04598,-2.551176 -0.102698,-3.825561 C 88.252634,11.704141 84.995401,9.5029649 81.871116,8.0932624 79.763929,7.142483 77.049067,7.3545341 74.938892,8.2986601 73.054571,9.1417356 71.373747,10.848632 70.676858,12.79177 c -0.616918,1.720152 -0.45102,3.843831 0.385123,5.468755 0.731511,1.421586 2.184142,2.538873 3.697187,3.055313 0.988669,0.337458 2.21197,0.391534 3.132339,-0.102698 1.535635,-0.824625 3.073946,-2.51956 3.029638,-4.262035 -0.03439,-1.352207 -1.186773,-2.933826 -2.51614,-3.183688 -1.296853,-0.243751 -3.202989,0.700185 -3.414764,2.002641 -0.15867,0.975845 1.972693,1.245288 1.951294,2.233717 -0.02175,1.004628 -1.074812,2.178685 -2.079669,2.182368 -1.083387,0.004 -1.757782,-1.376141 -2.25939,-2.336419 -0.472481,-0.904516 -0.823613,-2.010453 -0.590524,-3.003961 0.340158,-1.449875 1.413192,-2.831752 2.72154,-3.543138 1.501058,-0.816169 3.564036,-1.139801 5.109307,-0.410798 2.151512,1.015006 3.988674,3.476807 4.08231,5.853878 0.101914,2.587216 -1.736662,5.322395 -3.92826,6.701152 -1.933486,1.216377 -4.681908,1.343102 -6.829525,0.564847 -2.258826,-0.818555 -4.230518,-2.832136 -5.13498,-5.057958 -1.073106,-2.640842 -1.092357,-5.998781 0.179723,-8.549744 1.253803,-2.514311 4.00461,-4.1961706 6.624126,-5.2120052 2.072198,-0.8035875 4.497597,-1.0426024 6.6498,-0.4878221 2.700888,0.6962168 5.232407,2.4201659 7.009249,4.5701325 1.555124,1.8816918 2.772891,6.7781768 2.772891,6.7781768 0,0 2.682015,-2.128998 4.236357,-2.798565 1.622485,-0.698922 3.39469,-1.158712 5.16066,-1.206721 2.20685,-0.06 4.49865,0.270984 6.52143,1.155369 2.2835,0.998379 4.54975,2.461612 5.95658,4.518784 1.42674,2.086281 2.06553,4.764231 2.07967,7.291674 0.0107,1.916285 -0.45977,3.946056 -1.51482,5.54578 -1.52254,2.308539 -3.86775,4.299816 -6.49576,5.160656 -1.70106,0.557205 -3.67306,0.37587 -5.36605,-0.205399 -1.913937,-0.657129 -3.76954,-1.885049 -4.929587,-3.543137 -1.090391,-1.558534 -1.642357,-3.595058 -1.540497,-5.49443 0.09378,-1.748827 0.795827,-3.562146 1.951294,-4.878231 1.02886,-1.171883 2.560443,-1.944828 4.08232,-2.285069 1.30617,-0.292015 2.79188,-0.282382 4.00528,0.282424 1.41566,0.658955 2.5957,1.950595 3.26072,3.363413 0.59772,1.269841 0.86061,2.839281 0.46214,4.185011 -0.44894,1.516203 -1.59153,2.960561 -3.00396,3.671512 -1.12502,0.566276 -2.57829,0.574809 -3.77421,0.179723 -0.57749,-0.190778 -1.28115,-0.56146 -1.41213,-1.155371 -0.19455,-0.882138 -0.40826,-2.800729 1.18105,-2.439117 0.76397,0.173826 1.59355,0.505749 2.33642,0.25675 0.59126,-0.198179 1.11786,-0.709418 1.36077,-1.283744 0.23339,-0.551818 0.20758,-1.245358 -0.0256,-1.797244 -0.33451,-0.791553 -1.01986,-1.517077 -1.82292,-1.822919 -0.83317,-0.317307 -1.91595,-0.321303 -2.6702,0.154049 -1.455014,0.917005 -2.490993,2.798906 -2.490463,4.518784 4.64e-4,1.505409 0.94291,3.099525 2.182363,3.953936 1.55854,1.074364 3.832,1.409327 5.62281,0.795923 2.25595,-0.772728 4.16851,-2.893024 4.98093,-5.134982 0.70175,-1.936534 0.51996,-4.351427 -0.46215,-6.161977 -1.40624,-2.592452 -4.15337,-4.737612 -7.03492,-5.366057 -3.1118,-0.678659 -6.748525,0.226136 -9.319994,2.105343 -2.579918,1.885384 -4.18405,5.142619 -4.85256,8.267319 -0.558376,2.60992 -0.04934,5.454654 0.872947,7.959221 0.779246,2.116129 2.20075,4.00717 3.799892,5.59713 1.264121,1.256865 3.249823,1.652774 4.441759,2.97829 1.584476,1.762043 2.786116,3.97978 3.312066,6.290352 0.4619,2.029187 0.30658,4.184538 -0.23108,6.239002 -0.78752,3.009221 -3.649238,5.561808 -6.572776,6.624125 -2.79501,1.015614 -6.443986,1.157283 -8.883522,-0.821596 -1.684423,-1.366355 -3.109829,-3.215936 -3.825561,-5.263357 -0.384463,-1.099798 -0.584349,-2.4091 -0.15405,-3.491787 0.764002,-1.922328 3.258332,-2.605099 4.313386,-0.102699 0.316302,0.750211 -0.19638,1.692526 0.128374,2.439117 0.555277,1.276546 1.591467,2.53244 2.901264,3.003962 1.734021,0.624241 3.946439,0.383907 5.494436,-0.616197 1.437493,-0.928712 2.334167,-2.728523 2.61884,-4.416084 0.306553,-1.817244 -0.05318,-3.903479 -1.104025,-5.417403 -1.501737,-2.163406 -4.091568,-3.83061 -6.701153,-4.185013 -2.565193,-0.348373 -5.509868,0.489309 -7.445722,2.208044 -2.42524,2.153233 -4.375588,5.310876 -3.851235,8.934866 0.404577,2.796173 1.167982,4.883477 1.489144,7.3687 0.228526,1.768381 0.308098,5.340379 0.308098,5.340379 0,0 3.219757,-1.814006 5.006608,-1.976967 2.075992,-0.189336 4.332034,0.162583 6.1363,1.206718 1.580409,0.914588 2.842497,2.469724 3.594491,4.133656 0.743213,1.644523 1.092823,3.600549 0.718903,5.366057 -0.328763,1.552278 -1.340724,2.963151 -2.490473,4.056636 -0.904736,0.860459 -2.053043,1.602839 -3.28639,1.797247 -1.721032,0.271275 -3.637408,-0.08526 -5.13498,-0.975652 -1.254625,-0.745957 -2.413531,-1.974384 -2.772888,-3.38909 -0.45043,-1.773239 -0.131446,-3.975643 1.026993,-5.39173 1.117999,-1.366652 3.191178,-2.431843 4.903908,-2.00264 1.951514,0.489037 4.426168,2.719196 3.851237,4.647154 -0.273856,0.918335 -1.783532,2.21658 -2.747216,0.847277 -0.527246,-0.749165 -0.456526,-2.24087 -1.360771,-2.387764 -1.202435,-0.195335 -2.639332,1.223686 -2.721539,2.439111 -0.08644,1.278107 1.242165,2.639214 2.490466,2.926936 1.538589,0.354635 3.373329,-0.650788 4.33906,-1.899938 0.86402,-1.117597 1.169354,-2.8645 0.667548,-4.185012 -0.73882,-1.944215 -2.768588,-3.655197 -4.826884,-3.953934 -2.600169,-0.377384 -5.537385,1.076631 -7.265999,3.055311 -1.189665,1.36177 -0.817719,2.525035 -1.412117,5.237682 -0.471023,2.149601 -0.944256,4.322386 -1.026997,6.52143 -0.11138,2.960227 0.06248,5.969161 0.718895,8.857839 0.747346,3.288876 2.074166,6.887382 3.620164,9.44837 0.863581,1.43055 4.083143,0.4354 4.489457,-1.185453 1.144437,-4.565325 1.420358,-7.470611 2.237368,-11.112825 1.092236,-4.869175 5.537221,-7.254659 8.678123,-10.552393 3.297685,-3.462343 7.911395,-1.174327 10.886155,-3.568811 1.78712,-1.438514 3.51746,-5.8282 3.49179,-5.930902 -0.0256,-0.102701 -0.442,-4.632224 -5.13498,-5.8282 -2.1291,-0.542588 -5.0833,2.398439 -4.74985,4.570135 0.25964,1.691025 1.55721,3.14397 4.59581,2.285063 0,0 0.0692,-1.208952 0.41079,-1.668871 2.14033,-2.88178 3.33774,0.898623 3.23504,0.975651 -0.1027,0.07703 -1.86184,3.664472 -3.62016,3.90258 -2.95136,0.399668 -6.67482,-1.867472 -7.59978,-4.698501 -0.791682,-2.423118 0.69804,-5.760939 2.8756,-7.086276 2.87056,-1.747128 7.26611,-0.974225 10.03888,0.924298 1.74324,1.193606 2.48584,3.588711 2.82424,5.674152 0.21597,1.330892 -0.56484,4.005281 -0.56484,4.005281 0,0 9.79874,-3.51084 13.46799,-6.99279 2.96327,-2.812003 5.84185,-6.497548 6.20897,-10.566151 0.44254,-4.904246 -1.26624,-10.759563 -5.08337,-13.870346 -3.43395,-2.79851 -9.0755,-3.712808 -13.14415,-1.960728 -3.59266,1.547108 -6.7907,5.711163 -6.71731,9.622096 0.0652,3.473048 3.00242,7.168955 6.2816,8.314945 2.15875,0.754429 4.80832,-0.343812 6.64469,-1.706561 1.0118,-0.750841 1.73515,-1.991969 1.96073,-3.231571 0.21165,-1.163061 -0.13428,-2.423747 -0.65358,-3.485741 -0.36912,-0.754869 -0.92438,-1.501127 -1.67025,-1.88811 -1.07014,-0.555224 -2.49531,-0.894243 -3.59467,-0.399408 -1.28302,0.577501 -2.51611,2.044902 -2.43275,3.449432 0.0579,0.97528 1.00457,1.977891 1.96072,2.178586 0.80582,0.169138 1.96399,-0.245016 2.25121,-1.016673 0.19078,-0.512572 -0.50973,-0.972293 -0.68988,-1.488702 -1.0893,-3.122643 2.50537,-2.723235 3.01371,-1.597631 0.43183,0.956164 0.94602,1.965259 0.90775,3.013711 -0.0383,1.049014 -0.45555,2.13307 -1.12561,2.941097 -0.70759,0.85327 -1.74262,1.538783 -2.83216,1.742869 -1.45136,0.27186 -3.17525,0.08629 -4.35718,-0.798814 -1.48607,-1.112871 -2.59631,-3.120094 -2.50537,-4.974443 0.12632,-2.575668 1.78223,-5.489734 4.13931,-6.535766 2.53715,-1.125944 6.15416,-0.453344 8.20601,1.416083 2.29835,2.094003 3.28816,6.015589 2.43276,9.00483 -0.91885,3.211008 -4.13262,5.876338 -7.33458,6.826243 -2.76799,0.821164 -6.11842,0.09461 -8.5328,-1.488702 -2.63028,-1.724888 -4.47289,-4.817198 -5.1923,-7.879226 -0.6414,-2.729968 -0.39157,-5.926185 1.01667,-8.351255 2.25007,-3.874728 6.36965,-7.256548 10.78401,-8.024465 5.2323,-0.910205 10.49354,1.742871 10.49354,1.742871 0,0 -0.56379,-2.559238 -0.32679,-3.81253 0.46163,-2.441209 1.38018,-5.109131 3.30419,-6.681002 2.01658,-1.647497 5.02267,-2.614373 7.55244,-1.997042 2.58876,0.631726 4.84957,2.932917 5.91849,5.373851 0.60206,1.374808 0.53428,3.114267 -0.0363,4.502416 -0.72567,1.765343 -2.16499,3.557604 -3.99408,4.103006 -2.07956,0.620085 -5.19882,0.420789 -6.35422,-1.41608 0,0 -0.93887,-4.403412 1.96073,-2.904784 0,0 1.90217,1.460589 2.94109,1.234532 1.23869,-0.269523 2.27974,-1.563773 2.578,-2.795853 0.27774,-1.147286 -0.0559,-2.635566 -0.94405,-3.413122 -1.66393,-1.456726 -4.59884,-1.906254 -6.57208,-0.907746 -1.9039,0.963423 -2.99214,3.495023 -3.05002,5.628021 -0.0621,2.289266 1.34776,4.467356 2.86847,6.136354 2.72975,2.995937 3.52206,9.113761 3.52206,9.113761 0,0 2.88722,-3.016033 4.75658,-3.812529 2.4929,-1.06217 5.39299,-1.528053 8.06077,-1.052985 3.13395,0.558081 6.24705,2.141768 8.46019,4.429795 1.5506,1.603064 2.50617,3.833049 2.90478,6.027428 0.41049,2.259773 0.33846,4.774092 -0.61727,6.862553 -1.27511,2.7864 -3.39121,5.980578 -6.39052,6.608381 -3.4319,0.718353 -7.88446,-1.013447 -9.73103,-3.994075 -1.6496,-2.662687 -0.54464,-6.681004 -0.54464,-6.898864 0,-0.217859 2.99007,-4.404001 6.53576,-4.320865 2.61902,0.06141 5.1423,2.850616 5.70064,5.410159 0.32526,1.491005 -0.53666,3.26834 -1.70656,4.248246 -1.31748,1.103519 -3.4321,1.6407 -5.04706,1.052986 -1.15814,-0.421471 -2.51424,-1.69336 -2.28752,-2.904784 0.17068,-0.912023 0.97598,-2.239789 2.39645,-1.416083 0.50691,0.293952 0.54433,1.164412 1.08929,1.379774 0.60334,0.238429 1.40566,0.09907 1.92442,-0.29048 0.55429,-0.416234 1.00248,-1.207438 0.87144,-1.888109 -0.2363,-1.227442 -1.49679,-2.336604 -2.72324,-2.577996 -1.18427,-0.23309 -2.53739,0.439856 -3.37681,1.307152 -0.71346,0.737136 -1.07412,1.88054 -1.01668,2.904785 0.0812,1.448501 0.76099,3.00803 1.88811,3.921457 1.38434,1.12188 3.45399,1.662325 5.19231,1.270845 1.55272,-0.349681 2.88524,-1.648602 3.7036,-3.013714 1.2046,-2.009413 1.74141,-4.59009 1.34346,-6.898862 -0.42029,-2.438326 -1.72345,-5.009147 -3.77622,-6.390524 -3.00491,-2.022103 -7.34515,-2.839 -10.7477,-1.597632 -3.38324,1.234319 -5.78377,4.766172 -7.15303,8.097087 -1.3272,3.228609 -0.46775,6.2601 -2.75954,8.460182 -1.34732,1.293411 -2.32422,2.964619 -3.77622,4.139315 -3.01947,2.442801 -6.62606,4.063563 -10.05782,5.882186 -1.83685,0.973419 -5.62801,2.686927 -5.62801,2.686927 0,0 3.94285,1.248517 5.62801,2.396443 2.63836,1.797256 4.98152,4.147036 6.71731,6.826241 2.15864,3.331867 3.23954,7.160124 6.31791,9.295312 3.23462,2.243559 7.67021,3.809908 11.4739,2.795856 3.92098,-1.045318 7.7668,-4.469572 8.82328,-8.387567 0.8436,-3.128545 -0.30899,-7.1704 -2.72324,-9.331621 -2.14231,-1.917786 -5.87541,-2.670774 -8.49649,-1.488697 -2.17421,0.980535 -3.84501,3.717275 -3.73992,6.100043 0.0797,1.806502 1.55286,3.685111 3.23158,4.357181 1.25429,0.502153 2.92162,0.131838 3.99408,-0.689889 0.73073,-0.559896 1.35586,-1.605479 1.16191,-2.50538 -0.24588,-1.140875 -1.48451,-2.335009 -2.65062,-2.287514 -3.94601,0.160719 -2.74237,-3.095737 -1.59762,-3.921458 1.58262,-1.141575 3.56218,-0.368374 5.04706,0.435714 1.43285,0.775917 2.53071,2.292614 3.01371,3.848839 0.51763,1.667793 0.36369,3.624651 -0.32678,5.228616 -0.68059,1.580999 -1.97852,3.014479 -3.52206,3.77622 -1.79923,0.88793 -4.08598,1.210334 -5.99111,0.580951 -2.57122,-0.849425 -5.1114,-2.898216 -6.02743,-5.446464 -1.18352,-3.292396 -0.70094,-7.685385 1.52501,-10.384604 2.48897,-3.01816 7.2257,-4.585948 11.07449,-3.885149 4.22621,0.76952 8.1279,4.354843 9.87627,8.278639 2.38417,5.350736 -0.52947,9.279177 -1.4524,12.744737 0,0 4.08596,0.401751 5.66433,1.561316 2.44855,1.798855 4.63647,4.638066 4.93814,7.661369 0.22718,2.27673 -0.9441,4.71796 -2.50538,6.39053 -2.32823,2.49419 -6.04266,3.57511 -8.96852,1.96073 -1.99938,-1.10319 -3.70466,-3.32223 -3.95777,-5.59171 -0.2063,-1.84964 0.68114,-4.00325 2.14228,-5.15599 1.50126,-1.18439 3.8564,-1.530564 5.66433,-0.907753 1.31174,0.451883 2.32505,1.758633 2.83216,3.050033 0.39373,1.00265 0.40263,2.23246 0,3.23156 -0.33275,0.82571 -1.70656,1.92442 -1.85179,1.92442 -0.14525,0 -1.92442,1.053 -1.96073,-2.06965 -0.007,-0.55196 1.03742,-0.75554 1.01667,-1.30715 -0.0393,-1.04464 -1.0633,-2.39895 -2.10598,-2.32383 -1.51338,0.10902 -2.76574,2.27555 -2.54168,3.77621 0.23253,1.55734 2.1198,2.68657 3.6673,2.97742 1.32414,0.24886 2.87079,-0.30788 3.84883,-1.23454 1.10958,-1.05128 1.69858,-2.75741 1.63394,-4.28455 -0.0779,-1.83889 -0.92074,-3.87452 -2.39644,-4.974449 -2.14261,-1.59701 -5.62955,-2.654839 -7.91555,-1.27085 -1.94777,1.17922 -3.65539,2.872979 -5.80956,3.630989 -1.35666,0.47738 -5.56119,-0.15396 -4.28456,0.50834 0,0 3.40786,3.20924 3.88515,6.3179 0.52664,3.43007 0.54153,4.35119 -0.7262,6.35422 -0.80574,1.27309 -1.79784,2.55031 -3.12264,3.26788 -1.97043,1.06726 -4.48768,1.95862 -6.60838,1.23454 -2.68525,-0.91685 -5.20784,-3.55372 -5.66433,-6.35422 -0.3559,-2.18341 0.91027,-4.68933 2.61431,-6.10006 1.2984,-1.07491 3.50885,-1.98285 4.93813,-1.08929 1.2727,0.79568 1.82758,3.4184 0.0363,3.48575 -0.83882,0.0315 -1.84635,-0.26574 -2.50537,0.25416 -1.74353,1.37548 -2.07763,4.17949 0.32678,5.70064 1.10018,0.69604 2.65844,0.83538 3.88515,0.39941 1.41929,-0.50441 2.61884,-1.80366 3.19526,-3.19526 0.51875,-1.25238 0.5525,-2.82884 0,-4.0667 -0.90128,-2.01929 -2.80156,-3.8598 -4.93813,-4.4298 -2.99466,-0.79891 -3.94734,-1.31242 -5.77326,-2.28751 -1.12831,-0.60255 -3.15895,-2.178592 -3.15895,-2.178592 0,0 -1.09785,4.919092 -2.61431,6.826242 -2.08924,2.6275 -5.02393,5.18354 -8.35126,5.62802 -4.70045,0.62792 -10.32462,-1.0269 -13.47092,-4.57503 -2.33876,-2.63746 -3.14295,-6.957737 -2.1786,-10.348303 0.98831,-3.474805 3.92697,-7.188541 7.47982,-7.842915 3.95585,-0.728602 8.96738,1.660762 10.89294,5.192307 1.32017,2.421245 0.56678,5.974053 -1.05298,8.206011 -2.10133,2.89552 -7.38518,3.3388 -10.05781,1.27084 -2.24878,-1.73999 -3.06851,-6.418776 -1.0893,-8.460177 1.46978,-1.515969 4.68397,-2.105976 4.4661,1.307149 -0.0604,0.945304 -1.50959,1.62503 -1.27084,2.54168 0.26568,1.020062 1.57778,1.970868 2.61431,1.779188 1.522,-0.281453 2.77354,-2.269616 2.65062,-3.812526 -0.14412,-1.808952 -2.0132,-3.491536 -3.77622,-3.921467 -1.79974,-0.438884 -4.0809,0.354492 -5.26493,1.779181 -1.58633,1.908768 -1.84252,5.017914 -1.05298,7.370902 0.68336,2.03655 2.59083,3.71562 4.57504,4.53872 2.22475,0.92289 5.0275,1.02092 7.22564,0.0363 2.65286,-1.18825 4.98822,-3.73696 5.77326,-6.535773 1.07911,-3.847226 -0.0839,-8.354386 -2.10597,-11.800679 -1.92376,-3.278761 -5.15149,-6.241212 -8.82328,-7.225655 -5.3544,-1.435571 -11.74346,-0.338831 -15.976318,2.904784 -5.438117,4.167211 -6.138666,17.086153 -6.281593,19.788843 -0.139863,2.64476 -1.283932,5.73138 0.762506,8.64174 2.249262,3.19881 7.355205,2.18043 8.895905,1.70655 4.03704,-1.24167 8.91567,-1.05593 12.63581,0.94406 2.50762,1.34812 4.24726,4.08108 5.22861,6.75362 0.9271,2.52482 1.52784,4.88144 0.3631,8.06078 -1.21463,3.31555 -3.23298,5.0501 -5.88218,5.5554 -3.55885,0.67881 -8.16155,-0.96587 -10.09413,-4.03039 -1.37812,-2.18531 -1.06403,-5.68401 0.50834,-7.73399 1.53275,-1.99834 4.71802,-3.07572 7.15303,-2.43275 1.97277,0.52092 3.43438,2.63508 4.06669,4.57503 0.35045,1.07519 0.24908,2.40355 -0.32678,3.37681 -0.79833,1.34925 -2.32118,2.54206 -3.88515,2.65062 -1.52274,0.1057 -3.67027,-0.56957 -4.10301,-2.03335 -0.25539,-0.8639 0.29705,-2.3689 1.16192,-2.32383 0,0 2.53552,1.229 3.48574,0.65358 0.7011,-0.42457 0.99224,-1.59832 0.68988,-2.36014 -0.4763,-1.20008 -2.06081,-2.13228 -3.3405,-1.96072 -1.42514,0.19105 -2.56609,1.71987 -3.01371,3.08633 -0.35007,1.06868 -0.16792,2.41577 0.47202,3.3405 1.00482,1.45197 2.89605,2.76474 4.64766,2.54168 2.6841,-0.3418 5.18327,-2.95142 5.91849,-5.5554 0.6989,-2.4753 -0.38145,-5.472 -2.03334,-7.44351 -1.48819,-1.77611 -3.96445,-2.96783 -6.2816,-2.9774 -2.58838,-0.0107 -5.39904,1.26949 -7.0441,3.26789 -2.3526,2.8579 -2.07382,6.46327 -2.65062,10.78401 -0.496744,3.72095 -0.655561,7.51349 -0.363099,11.25604 0.322529,4.12723 1.475479,8.14813 2.323819,12.20008 3.28274,15.67924 29.70143,36.78183 29.70143,36.78183"
       id="path25" />
  </g>
  <g
     id="layer2" />
</svg>
