<?xml version="1.0" encoding="UTF-8"?>
<svg version="1.1" xmlns="http://www.w3.org/2000/svg" width="500" height="500">
<path d="M0 0 C165 0 330 0 500 0 C500 165 500 330 500 500 C335 500 170 500 0 500 C0 335 0 170 0 0 Z " fill="#FEFEFE" transform="translate(0,0)"/>
<path d="M0 0 C1.32570511 0.00666183 1.32570511 0.00666183 2.67819214 0.01345825 C3.67907867 0.01360931 4.67996521 0.01376038 5.71118164 0.01391602 C7.33623123 0.02939987 7.33623123 0.02939987 8.99411011 0.04519653 C10.65456863 0.04944138 10.65456863 0.04944138 12.34857178 0.05377197 C15.89458898 0.06499384 19.44035636 0.09010213 22.98629761 0.11550903 C25.38603355 0.12553624 27.78577344 0.13466253 30.18551636 0.14285278 C36.07752911 0.16493971 41.96939552 0.19843697 47.86129761 0.24050903 C48.03000366 1.94315918 48.03000366 1.94315918 48.20211792 3.6802063 C48.36406225 5.20166159 48.52652494 6.72306177 48.68942261 8.24441528 C48.76177124 8.98872803 48.83411987 9.73304077 48.90866089 10.49990845 C50.41646507 24.23809454 57.24674754 36.63798587 65.86129761 47.24050903 C65.86129761 47.90050903 65.86129761 48.56050903 65.86129761 49.24050903 C49.69129761 49.24050903 33.52129761 49.24050903 16.86129761 49.24050903 C16.86129761 45.61050903 16.86129761 41.98050903 16.86129761 38.24050903 C15.90239624 38.25098267 14.94349487 38.2614563 13.95553589 38.27224731 C10.40349042 38.30840231 6.85146126 38.33139296 3.29928589 38.35037231 C1.76084662 38.36044021 0.22242654 38.37409549 -1.31594849 38.39138794 C-3.52514372 38.4156022 -5.73408634 38.42698394 -7.94338989 38.43582153 C-8.63302826 38.4461441 -9.32266663 38.45646667 -10.03320312 38.46710205 C-11.73671146 38.46750382 -13.43956182 38.36241929 -15.13870239 38.24050903 C-17.13870239 36.24050903 -17.13870239 36.24050903 -17.38870239 33.24050903 C-17.13870239 30.24050903 -17.13870239 30.24050903 -15.13870239 28.24050903 C-12.58239746 27.96203613 -12.58239746 27.96203613 -9.31204224 27.92166138 C-8.09092743 27.90179169 -6.86981262 27.881922 -5.61169434 27.8614502 C-4.2743447 27.84957295 -2.93699314 27.83791014 -1.59963989 27.82644653 C-0.23485127 27.80774154 1.12992571 27.78816863 2.49468994 27.76776123 C6.08836004 27.71636298 9.68206766 27.67677876 13.27590942 27.63961792 C16.94248801 27.59962624 20.60890946 27.54851193 24.27536011 27.49832153 C31.47056493 27.4014713 38.66584556 27.31709597 45.86129761 27.24050903 C46.54912121 24.8868319 46.54912121 24.8868319 46.86129761 22.24050903 C46.20129761 21.25050903 45.54129761 20.26050903 44.86129761 19.24050903 C41.95516327 18.72904706 41.95516327 18.72904706 38.54098511 18.72879028 C36.6557312 18.67561646 36.6557312 18.67561646 34.73239136 18.62136841 C33.41368042 18.59880981 32.09496948 18.57625122 30.73629761 18.55300903 C29.39642002 18.51984375 28.05657449 18.48535481 26.71676636 18.44949341 C23.4316943 18.36677577 20.14689728 18.2977021 16.86129761 18.24050903 C16.86129761 15.60050903 16.86129761 12.96050903 16.86129761 10.24050903 C15.59672729 10.27531372 14.33215698 10.31011841 13.02926636 10.34597778 C11.36912338 10.3741158 9.70896605 10.40141595 8.04879761 10.42800903 C6.79872925 10.46571411 6.79872925 10.46571411 5.52340698 10.50418091 C4.31974487 10.51868286 4.31974487 10.51868286 3.09176636 10.53347778 C1.98417969 10.55704346 1.98417969 10.55704346 0.85421753 10.58108521 C-1.70951439 10.14296123 -2.57653093 9.28400312 -4.13870239 7.24050903 C-4.45120239 4.67800903 -4.45120239 4.67800903 -4.13870239 2.24050903 C-2.13870239 0.24050903 -2.13870239 0.24050903 0 0 Z " fill="#30232D" transform="translate(134.13870239257813,251.75949096679688)"/>
<path d="M0 0 C6.92338952 -0.05063836 13.84673141 -0.08570749 20.77026367 -0.10986328 C23.12640162 -0.11993155 25.48252704 -0.13358706 27.83862305 -0.15087891 C31.22187386 -0.17509076 34.60495972 -0.18647478 37.98828125 -0.1953125 C39.57277824 -0.21079636 39.57277824 -0.21079636 41.18928528 -0.22659302 C42.17007553 -0.22674408 43.15086578 -0.22689514 44.16137695 -0.22705078 C45.45710381 -0.23371262 45.45710381 -0.23371262 46.77900696 -0.24050903 C49 0 49 0 52 2 C52.375 4.4375 52.375 4.4375 52 7 C50.43485385 9.04103314 49.57095679 9.90242745 47.00708008 10.34057617 C46.26868896 10.32486572 45.53029785 10.30915527 44.76953125 10.29296875 C43.96708984 10.28330078 43.16464844 10.27363281 42.33789062 10.26367188 C41.50451172 10.23853516 40.67113281 10.21339844 39.8125 10.1875 C38.96751953 10.17396484 38.12253906 10.16042969 37.25195312 10.14648438 C35.16769616 10.11115799 33.08376723 10.05735139 31 10 C31 12.64 31 15.28 31 18 C29.74340576 18.02187378 29.74340576 18.02187378 28.46142578 18.04418945 C25.35621098 18.10520707 22.25166883 18.17935065 19.14697266 18.26245117 C17.14117664 18.31209959 15.13502313 18.34654164 13.12890625 18.38085938 C11.87207031 18.41630859 10.61523438 18.45175781 9.3203125 18.48828125 C8.15773926 18.51446533 6.99516602 18.54064941 5.79736328 18.56762695 C4.8742334 18.71031006 3.95110352 18.85299316 3 19 C0.66608797 21.78114056 0.66608797 21.78114056 1.375 24.6875 C1.58125 25.450625 1.7875 26.21375 2 27 C2.74502274 27.00808685 3.49004547 27.01617371 4.25764465 27.02450562 C11.27646191 27.10242448 18.2950855 27.18970679 25.31364918 27.28752708 C28.92203229 27.33748759 32.53038617 27.38381744 36.13891602 27.421875 C39.62091128 27.45873124 43.10266177 27.5050917 46.58444786 27.55806351 C48.56027114 27.58563386 50.536224 27.6033425 52.51216125 27.62094116 C53.71317978 27.64081085 54.9141983 27.66068054 56.15161133 27.68115234 C57.74045891 27.70113785 57.74045891 27.70113785 59.36140442 27.7215271 C62 28 62 28 65 30 C65.3125 33 65.3125 33 65 36 C63 38 63 38 59.83544922 38.22705078 C58.49182037 38.22673389 57.1481659 38.21542181 55.8046875 38.1953125 C55.09724396 38.1924826 54.38980042 38.18965271 53.66091919 38.18673706 C51.3987749 38.17553137 49.13702485 38.15042679 46.875 38.125 C45.34245363 38.11497067 43.80990106 38.10584474 42.27734375 38.09765625 C38.51807699 38.07559086 34.75910536 38.04105896 31 38 C31 41.63 31 45.26 31 49 C14.5 49 -2 49 -19 49 C-17.02 46.36 -15.04 43.72 -13 41 C-11.49781073 38.27792944 -10.08763637 35.60816 -8.75 32.8125 C-8.41226562 32.12736328 -8.07453125 31.44222656 -7.7265625 30.73632812 C-6.79565581 28.83236739 -5.87557246 26.9300598 -5 25 C-4.66774414 24.31123779 -4.33548828 23.62247559 -3.99316406 22.9128418 C-2.52109936 18.59543668 -1.99937416 14.19509919 -1.375 9.6875 C-1.2409375 8.75615234 -1.106875 7.82480469 -0.96875 6.86523438 C-0.64026289 4.57755629 -0.31753183 2.28921996 0 0 Z " fill="#30232C" transform="translate(318,252)"/>
<path d="M0 0 C5.15719338 0.57658063 9.17317545 2.20063576 13.75 4.5 C14.45302246 4.85312256 15.15604492 5.20624512 15.88037109 5.57006836 C22.13714849 8.84493199 27.1210407 12.88647535 32 18 C32.5465625 18.52722656 33.093125 19.05445313 33.65625 19.59765625 C43.51233052 29.84693147 49.08890303 44.77229218 49.1875 58.8125 C49.0946875 60.8853125 49.0946875 60.8853125 49 63 C46.03 63 43.06 63 40 63 C39.89042969 62.17757812 39.78085937 61.35515625 39.66796875 60.5078125 C37.25315764 43.5059717 32.00693934 28.98508947 18 18 C11.16798354 13.71146204 3.61855352 10.5903082 -4 8 C-3.401875 7.566875 -2.80375 7.13375 -2.1875 6.6875 C-0.29216913 5.22538761 1.3528593 3.72949773 3 2 C2.01 1.67 1.02 1.34 0 1 C0 0.67 0 0.34 0 0 Z " fill="#30232D" transform="translate(265,192)"/>
<path d="M0 0 C0.83272934 0.00222061 1.66545868 0.00444122 2.52342224 0.00672913 C3.46432205 0.00680466 4.40522186 0.00688019 5.37463379 0.00695801 C6.39754013 0.01211929 7.42044647 0.01728058 8.47434998 0.02259827 C9.51614914 0.02401321 10.5579483 0.02542816 11.63131714 0.02688599 C14.97355467 0.03250372 18.31572629 0.04505922 21.65794373 0.05775452 C23.91770839 0.06276723 26.17747409 0.06733053 28.4372406 0.07142639 C33.98999763 0.08247891 39.54271597 0.09923428 45.09544373 0.12025452 C44.41698462 3.60136121 43.61305009 6.97144926 42.59544373 10.37025452 C42.33763123 11.24166077 42.07981873 12.11306702 41.81419373 13.01087952 C41.09544373 15.12025452 41.09544373 15.12025452 40.09544373 16.12025452 C37.71975853 16.20865122 35.37335699 16.23555757 32.99778748 16.21791077 C31.93449974 16.21578835 31.93449974 16.21578835 30.84973145 16.21362305 C28.5774266 16.20800894 26.30521897 16.19545415 24.03294373 16.18275452 C22.49583577 16.17774133 20.95872628 16.17317811 19.4216156 16.16908264 C15.64618731 16.15803494 11.87083202 16.14076093 8.09544373 16.12025452 C8.09544373 13.81025452 8.09544373 11.50025452 8.09544373 9.12025452 C7.15571716 9.1550592 7.15571716 9.1550592 6.19700623 9.19056702 C4.97110779 9.21763733 4.97110779 9.21763733 3.72044373 9.24525452 C2.90833435 9.26845764 2.09622498 9.29166077 1.25950623 9.31556702 C-0.90455627 9.12025452 -0.90455627 9.12025452 -2.90455627 7.12025452 C-3.09205627 4.05775452 -3.09205627 4.05775452 -2.90455627 1.12025452 C-1.90455627 0.12025452 -1.90455627 0.12025452 0 0 Z " fill="#2C1E28" transform="translate(142.90455627441406,224.87974548339844)"/>
<path d="M0 0 C6.6752034 -0.02526945 13.35039457 -0.04283268 20.02563477 -0.05493164 C22.29842591 -0.05997325 24.5712138 -0.06680637 26.84399414 -0.07543945 C30.10303551 -0.08751261 33.36203417 -0.09322987 36.62109375 -0.09765625 C37.64400009 -0.10281754 38.66690643 -0.10797882 39.72080994 -0.11329651 C40.66170975 -0.11337204 41.60260956 -0.11344757 42.57202148 -0.11352539 C43.40475082 -0.115746 44.23748016 -0.11796661 45.09544373 -0.12025452 C47 0 47 0 48 1 C48.1875 3.9375 48.1875 3.9375 48 7 C46 9 46 9 43.8359375 9.1953125 C42.61777344 9.16050781 42.61777344 9.16050781 41.375 9.125 C40.55773437 9.10695312 39.74046875 9.08890625 38.8984375 9.0703125 C38.27195312 9.04710937 37.64546875 9.02390625 37 9 C37 11.31 37 13.62 37 16 C26.44 16 15.88 16 5 16 C3.21787034 10.65361103 1.49759975 5.4143991 0 0 Z " fill="#2C1E28" transform="translate(312,225)"/>
<path d="M0 0 C1.59142319 0.0001133 1.59142319 0.0001133 3.21499634 0.00022888 C4.36398407 0.00539017 5.5129718 0.01055145 6.69677734 0.01586914 C7.87033783 0.01728409 9.04389832 0.01869904 10.25302124 0.02015686 C14.0129447 0.0257685 17.77280929 0.03832301 21.53271484 0.05102539 C24.07698482 0.05603889 26.62125572 0.06060206 29.16552734 0.06469727 C35.41294337 0.07574171 41.6603249 0.09249121 47.90771484 0.11352539 C46.46643364 1.83216655 45.01362504 3.53702614 43.53617859 5.22480774 C42.19463385 6.78075226 40.9197883 8.39394787 39.66479492 10.02050781 C35.52766568 13.16117982 31.85009967 12.74110103 26.79443359 12.60180664 C25.82488235 12.5947319 24.85533112 12.58765717 23.85639954 12.58036804 C20.76854348 12.55244413 17.68252009 12.48970842 14.59521484 12.42602539 C12.49823588 12.40093997 10.4012284 12.37812723 8.30419922 12.35766602 C3.17133475 12.30262377 -1.9601648 12.21636398 -7.09228516 12.11352539 C-7.09228516 8.48352539 -7.09228516 4.85352539 -7.09228516 1.11352539 C-4.56484427 -0.15019505 -2.82848207 -0.00670256 0 0 Z " fill="#2A1C26" transform="translate(159.09228515625,200.886474609375)"/>
<path d="M0 0 C7.51138594 -0.0252899 15.02276097 -0.04284141 22.53417969 -0.05493164 C25.09115001 -0.05997017 27.64811743 -0.06680107 30.20507812 -0.07543945 C33.87370517 -0.08752602 37.54229423 -0.09323301 41.2109375 -0.09765625 C42.35992523 -0.10281754 43.50891296 -0.10797882 44.69271851 -0.11329651 C45.7536673 -0.11337204 46.81461609 -0.11344757 47.90771484 -0.11352539 C49.31336197 -0.11685631 49.31336197 -0.11685631 50.74740601 -0.12025452 C53 0 53 0 55 1 C55 4.63 55 8.26 55 12 C48.88044984 12.22341094 42.76329871 12.38621881 36.640625 12.49438477 C34.56077709 12.53949341 32.4812122 12.6008009 30.40234375 12.67895508 C13.0910687 13.31320438 13.0910687 13.31320438 7.9140625 10.06201172 C5.90924607 7.7969547 4.46947271 5.631468 3 3 C2.01940659 1.98096292 1.02199112 0.97751428 0 0 Z " fill="#291B25" transform="translate(293,201)"/>
<path d="M0 0 C1.1653125 -0.00128906 2.330625 -0.00257813 3.53125 -0.00390625 C4.7584375 -0.00003906 5.985625 0.00382813 7.25 0.0078125 C9.09078125 0.00201172 9.09078125 0.00201172 10.96875 -0.00390625 C12.71671875 -0.00197266 12.71671875 -0.00197266 14.5 0 C15.57765625 0.00112793 16.6553125 0.00225586 17.765625 0.00341797 C20.25 0.1328125 20.25 0.1328125 21.25 1.1328125 C21.32313567 3.66330652 21.34247527 6.16586087 21.3125 8.6953125 C21.30798828 9.40623047 21.30347656 10.11714844 21.29882812 10.84960938 C21.28700864 12.61071263 21.26907263 14.37177286 21.25 16.1328125 C18.28 16.1328125 15.31 16.1328125 12.25 16.1328125 C12.25 17.1228125 12.25 18.1128125 12.25 19.1328125 C8.95 19.1328125 5.65 19.1328125 2.25 19.1328125 C2.25 18.1428125 2.25 17.1528125 2.25 16.1328125 C0.950625 16.1534375 -0.34875 16.1740625 -1.6875 16.1953125 C-3.04165633 16.21680704 -4.39756083 16.20429449 -5.75 16.1328125 C-6.75 15.1328125 -6.75 15.1328125 -6.8828125 12.0078125 C-6.88023437 10.7290625 -6.87765625 9.4503125 -6.875 8.1328125 C-6.87757813 6.8540625 -6.88015625 5.5753125 -6.8828125 4.2578125 C-6.65981731 -0.98913322 -4.74323664 0.00496451 0 0 Z " fill="#31232D" transform="translate(243.75,162.8671875)"/>
<path d="M0 0 C0.33 0 0.66 0 1 0 C0.28176936 8.00252147 -0.82924266 15.91134122 -2.0703125 23.84765625 C-2.204375 24.74355469 -2.3384375 25.63945312 -2.4765625 26.5625 C-2.60111816 27.36816406 -2.72567383 28.17382812 -2.85400391 29.00390625 C-3.17636285 31.0733302 -3.17636285 31.0733302 -2 33 C-1.74139865 37.05142119 -1.69558446 38.54337669 -4 42 C-3.58766394 48.86057011 -1.16507238 55.28778292 0.91601562 61.79296875 C1.18220703 62.64761719 1.44839844 63.50226563 1.72265625 64.3828125 C2.09015991 65.53354248 2.09015991 65.53354248 2.46508789 66.70751953 C3.04821075 69.20661748 3.09232588 71.44254482 3 74 C0.46411684 71.46411684 0.06226585 69.40701736 -0.9453125 65.96875 C-1.29980469 64.76605469 -1.65429688 63.56335938 -2.01953125 62.32421875 C-2.38433594 61.06222656 -2.74914062 59.80023438 -3.125 58.5 C-3.49753906 57.23800781 -3.87007812 55.97601563 -4.25390625 54.67578125 C-7 45.29077953 -7 45.29077953 -7 43 C-7.763125 42.9175 -8.52625 42.835 -9.3125 42.75 C-12 42 -12 42 -13.8125 40.25 C-15 38 -15 38 -14.73046875 35.7421875 C-15.13081652 31.66908406 -17.71269055 29.62121889 -20.5 26.875 C-22.41350578 24.96149422 -24.2115045 23.03818806 -26 21 C-26 20.01 -26 19.02 -26 18 C-25.20335937 18.69867188 -24.40671875 19.39734375 -23.5859375 20.1171875 C-22.51603142 21.03693132 -21.44569595 21.95617581 -20.375 22.875 C-19.85292969 23.33519531 -19.33085937 23.79539063 -18.79296875 24.26953125 C-15.35842244 27.19525588 -12.36190518 28.86040315 -8 30 C-7.88527344 28.99839844 -7.77054688 27.99679688 -7.65234375 26.96484375 C-7.08304923 22.98578523 -5.89354967 19.35816389 -4.5625 15.5625 C-2.7862716 10.41683941 -1.19286595 5.31367561 0 0 Z " fill="#372A34" transform="translate(256,217)"/>
<path d="M0 0 C3.95906817 1.43308135 7.28718181 3.33141949 10.8125 5.625 C11.78832031 6.25664062 12.76414062 6.88828125 13.76953125 7.5390625 C14.50558594 8.02117187 15.24164063 8.50328125 16 9 C12.58172618 12.59977508 9.33914191 14.66353897 5 17 C5.33 17.33 5.66 17.66 6 18 C6.07205511 19.68608966 6.08386068 21.37500659 6.0625 23.0625 C6.05347656 23.98160156 6.04445312 24.90070313 6.03515625 25.84765625 C6.02355469 26.55792969 6.01195312 27.26820313 6 28 C4.02 28 2.04 28 0 28 C0 23.38 0 18.76 0 14 C-3.3 14.33 -6.6 14.66 -10 15 C-10.66 12.03 -11.32 9.06 -12 6 C-8.87110801 5.217777 -6.8599909 4.88566682 -3.75 4.9375 C-1.89375 4.9684375 -1.89375 4.9684375 0 5 C0 3.35 0 1.7 0 0 Z " fill="#362932" transform="translate(248,185)"/>
<path d="M0 0 C5.10712539 0.30952275 8.88260241 3.23122892 13 6 C11.57085912 9.85093626 9.8102845 13.29649109 7.6875 16.8125 C7.11386719 17.78832031 6.54023438 18.76414063 5.94921875 19.76953125 C4 22 4 22 1.47265625 22.4296875 C-2.12665774 21.80421429 -4.22325959 20.33498625 -7 18 C-7.8828125 15.74609375 -7.8828125 15.74609375 -8 13 C-6.6015625 9.921875 -6.6015625 9.921875 -4.625 6.75 C-3.65433594 5.16445312 -3.65433594 5.16445312 -2.6640625 3.546875 C-1 1 -1 1 0 0 Z " fill="#30222C" transform="translate(288,172)"/>
<path d="M0 0 C3.2073474 1.56694835 4.64063643 4.35127126 6.421875 7.3125 C6.80214844 7.89451172 7.18242187 8.47652344 7.57421875 9.07617188 C8.6328125 10.80078125 8.6328125 10.80078125 10.046875 14 C9.17916003 17.30639103 7.96176339 18.06808929 5.234375 20.25 C1.95787128 22.04886479 0.64668033 22.17112827 -2.953125 22 C-4.34834056 19.76046944 -5.71875284 17.5111339 -7.078125 15.25 C-7.47644531 14.61578125 -7.87476563 13.9815625 -8.28515625 13.328125 C-11.09446516 8.59665737 -11.09446516 8.59665737 -10.40625 5.69140625 C-7.77084001 2.6238457 -4.19279095 0 0 0 Z " fill="#2E202A" transform="translate(212.953125,172)"/>
<path d="M0 0 C1.60488281 -0.03867187 1.60488281 -0.03867187 3.2421875 -0.078125 C6.125 0.25 6.125 0.25 8.01953125 1.60546875 C9.125 3.25 9.125 3.25 8.9375 5.8125 C8.125 8.25 8.125 8.25 6.125 10.25 C1.51387842 10.94086491 -2.56671751 11.0714797 -6.5625 8.5625 C-7.875 6.25 -7.875 6.25 -7.6875 3.5625 C-6.19146501 -0.69544573 -4.28605324 0.06166983 0 0 Z " fill="#342730" transform="translate(125.875,295.75)"/>
<path d="M0 0 C0.99 0.66 1.98 1.32 3 2 C2.125 8.875 2.125 8.875 1 10 C-1.16480797 10.0989294 -3.33293785 10.129711 -5.5 10.125 C-6.6859375 10.12757813 -7.871875 10.13015625 -9.09375 10.1328125 C-12 10 -12 10 -13 9 C-13.57119205 3.74503311 -13.57119205 3.74503311 -11.5625 1.125 C-7.7905183 -0.53099197 -4.06173896 -0.57597403 0 0 Z " fill="#352831" transform="translate(404,268)"/>
<path d="M0 0 C2.5625 1.125 2.5625 1.125 4 3 C4.3125 6.125 4.3125 6.125 4 9 C2.12274106 10.87725894 -0.92850307 10.21702304 -3.4375 10.25 C-4.61183594 10.27578125 -5.78617187 10.3015625 -6.99609375 10.328125 C-7.98738281 10.21984375 -8.97867188 10.1115625 -10 10 C-12.1387261 6.79191085 -12.47730962 5.72301503 -12 2 C-7.95796039 -0.69469307 -4.74137511 -0.53918165 0 0 Z " fill="#352831" transform="translate(105,268)"/>
<path d="M0 0 C0.86625 -0.00515625 1.7325 -0.0103125 2.625 -0.015625 C5 0.25 5 0.25 8 2.25 C7.6875 5.125 7.6875 5.125 7 8.25 C3.78169935 10.39553377 2.73213493 10.54583868 -1 10.5625 C-2.299375 10.58763672 -2.299375 10.58763672 -3.625 10.61328125 C-6 10.25 -6 10.25 -7.8203125 8.890625 C-9 7.25 -9 7.25 -8.875 4.6875 C-7.25697882 0.18015528 -4.29947172 -0.02559209 0 0 Z " fill="#31242D" transform="translate(410,248.75)"/>
<path d="M0 0 C0.97710937 -0.01417969 1.95421875 -0.02835938 2.9609375 -0.04296875 C5.625 0.1875 5.625 0.1875 8.625 2.1875 C8.9375 5.1875 8.9375 5.1875 8.625 8.1875 C6.03099494 10.78150506 4.79315384 10.51461615 1.1875 10.5625 C-0.26462891 10.60503906 -0.26462891 10.60503906 -1.74609375 10.6484375 C-4.375 10.1875 -4.375 10.1875 -6.23828125 8.33203125 C-7.375 6.1875 -7.375 6.1875 -7.125 3.5 C-5.78121749 -0.64332942 -4.11965228 0.02703184 0 0 Z " fill="#30232D" transform="translate(89.375,248.8125)"/>
<path d="M0 0 C3.45498346 0.07499964 4.8316854 0.19082572 7.8125 2.0625 C9.125 4.375 9.125 4.375 8.9375 7.0625 C8.125 9.375 8.125 9.375 7.125 10.375 C5.14880553 10.50014928 3.16761827 10.5507276 1.1875 10.5625 C0.10597656 10.57667969 -0.97554688 10.59085938 -2.08984375 10.60546875 C-4.875 10.375 -4.875 10.375 -6.875 8.375 C-7.125 5.375 -7.125 5.375 -6.875 2.375 C-4.38459058 -0.11540942 -3.44345643 0.05108986 0 0 Z " fill="#32242E" transform="translate(115.875,236.625)"/>
<path d="M0 0 C0.7734375 -0.00515625 1.546875 -0.0103125 2.34375 -0.015625 C4.5 0.25 4.5 0.25 7.5 2.25 C7.8125 5.25 7.8125 5.25 7.5 8.25 C5.5 10.25 5.5 10.25 2.75 10.515625 C1.6775 10.51046875 0.605 10.5053125 -0.5 10.5 C-2.10875 10.50773438 -2.10875 10.50773438 -3.75 10.515625 C-6.5 10.25 -6.5 10.25 -8.5 8.25 C-8.3125 5.25 -8.3125 5.25 -7.5 2.25 C-4.377998 0.16866533 -3.56733011 -0.0237822 0 0 Z " fill="#31242D" transform="translate(383.5,236.75)"/>
<path d="M0 0 C1.08152344 0.01417969 2.16304688 0.02835937 3.27734375 0.04296875 C4.90349609 0.05263672 4.90349609 0.05263672 6.5625 0.0625 C9.21484375 0.23046875 9.21484375 0.23046875 10.21484375 1.23046875 C10.7860358 6.48543564 10.7860358 6.48543564 8.77734375 9.10546875 C5.03224614 10.74965794 1.23917515 10.98642051 -2.78515625 10.23046875 C-4.57421875 8.8671875 -4.57421875 8.8671875 -5.78515625 7.23046875 C-5.46782539 2.89361369 -4.68263189 0.38748286 0 0 Z " fill="#30232C" transform="translate(370.78515625,295.76953125)"/>
<path d="M0 0 C1.0725 0.00515625 2.145 0.0103125 3.25 0.015625 C4.85875 0.00789062 4.85875 0.00789062 6.5 0 C9.25 0.265625 9.25 0.265625 11.25 2.265625 C10.92028521 5.56277293 10.6273161 6.8883089 8.25 9.265625 C5.5 9.53125 5.5 9.53125 2.25 9.515625 C0.64125 9.52335938 0.64125 9.52335938 -1 9.53125 C-3.75 9.265625 -3.75 9.265625 -5.75 7.265625 C-5.31900743 2.95569931 -4.69831884 0.45381489 0 0 Z " fill="#2F222B" transform="translate(372.75,213.734375)"/>
<path d="M0 0 C1.60488281 -0.03867188 1.60488281 -0.03867188 3.2421875 -0.078125 C6.125 0.25 6.125 0.25 8.0234375 1.6015625 C9.125 3.25 9.125 3.25 8.875 5.875 C8.125 8.25 8.125 8.25 7.125 9.25 C5.17077134 9.40167148 3.20990271 9.47179996 1.25 9.5 C-0.35488281 9.53867188 -0.35488281 9.53867188 -1.9921875 9.578125 C-4.875 9.25 -4.875 9.25 -6.7734375 7.8984375 C-7.875 6.25 -7.875 6.25 -7.625 3.625 C-6.25144022 -0.72460596 -4.30499466 0.06194237 0 0 Z " fill="#2E212B" transform="translate(123.875,213.75)"/>
<path d="M0 0 C1.4783226 2.95664519 1.06032783 5.74229737 1 9 C-5.435 9.495 -5.435 9.495 -12 10 C-12 7.03 -12 4.06 -12 1 C-7.9472484 0.01751476 -4.16138263 -0.08159574 0 0 Z " fill="#392C36" transform="translate(262,308)"/>
<path d="M0 0 C2.97 0 5.94 0 9 0 C9.33 3.96 9.66 7.92 10 12 C7.03 12.66 4.06 13.32 1 14 C-0.21379503 9.29654425 -0.07202527 4.82569313 0 0 Z " fill="#382B34" transform="translate(186,254)"/>
<path d="M0 0 C1.32 2.64 2.64 5.28 4 8 C1.36 9.98 -1.28 11.96 -4 14 C-7.23475448 12.38262276 -8.70572021 11.52370777 -11 9 C-9.55936614 4.67809842 -4.74032109 0 0 0 Z " fill="#352832" transform="translate(218,199)"/>
<path d="M0 0 C2.76223278 2.76223278 2.57856291 5.20706617 3 9 C1.5437455 9.67119549 0.08492133 10.33681807 -1.375 11 C-2.59316406 11.556875 -2.59316406 11.556875 -3.8359375 12.125 C-6 13 -6 13 -8 13 C-9.625 10.25 -9.625 10.25 -11 7 C-10.375 4.90625 -10.375 4.90625 -9 3 C-6.8359375 1.953125 -6.8359375 1.953125 -4.375 1.25 C-3.55773437 1.00765625 -2.74046875 0.7653125 -1.8984375 0.515625 C-1.27195313 0.34546875 -0.64546875 0.1753125 0 0 Z " fill="#352831" transform="translate(232,192)"/>
<path d="M0 0 C3.23475448 1.61737724 4.70572021 2.47629223 7 5 C5.77946141 8.66161578 4.63217696 9.16270474 1.4375 11.1875 C0.19806641 11.98220703 0.19806641 11.98220703 -1.06640625 12.79296875 C-1.70449219 13.19128906 -2.34257812 13.58960938 -3 14 C-5.64107354 11.53258609 -6.79641403 9.42559084 -8 6 C-5.36 4.02 -2.72 2.04 0 0 Z " fill="#332630" transform="translate(286,295)"/>
<path d="M0 0 C3.64553172 1.2808625 5.16671013 2.16671013 8 5 C5.69 7.97 3.38 10.94 1 14 C-3.59037956 12.85240511 -4.33669182 11.70960782 -7 8 C-4.69 5.36 -2.38 2.72 0 0 Z " fill="#332630" transform="translate(296,284)"/>
<path d="M0 0 C1.98 1.65 3.96 3.3 6 5 C5.49477778 9.37859255 2.82172778 11.81651224 0 15 C-2.64 13.68 -5.28 12.36 -8 11 C-5.69281189 6.71522208 -3.67033927 3.27708863 0 0 Z " fill="#332630" transform="translate(204,209)"/>
<path d="M0 0 C2.60608273 2.5162178 4.89381685 5.05134359 7 8 C5.54744301 11.82946843 3.57104439 13.12050295 0 15 C-1.1998278 13.57277341 -2.3845576 12.13284224 -3.5625 10.6875 C-4.22378906 9.88699219 -4.88507813 9.08648437 -5.56640625 8.26171875 C-6.27603516 7.14216797 -6.27603516 7.14216797 -7 6 C-6 3 -6 3 -2.9375 1.3125 C-1.968125 0.879375 -0.99875 0.44625 0 0 Z " fill="#32252E" transform="translate(202,282)"/>
<path d="M0 0 C0.99 2.97 1.98 5.94 3 9 C0.1875 11.0625 0.1875 11.0625 -3 13 C-6 12 -6 12 -6.94921875 10.29296875 C-7.19285156 9.59816406 -7.43648437 8.90335937 -7.6875 8.1875 C-7.93886719 7.50042969 -8.19023437 6.81335938 -8.44921875 6.10546875 C-9 4 -9 4 -9 0 C-5.67465243 -1.10844919 -3.37817425 -0.84454356 0 0 Z " fill="#342630" transform="translate(198,270)"/>
<path d="M0 0 C3.64553172 1.2808625 5.16671013 2.16671013 8 5 C6.68 7.97 5.36 10.94 4 14 C-0.455 13.01 -0.455 13.01 -5 12 C-2.25 3.375 -2.25 3.375 0 0 Z " fill="#32252E" transform="translate(194,223)"/>
<path d="M0 0 C1.45823212 -0.0270043 2.91660675 -0.04639787 4.375 -0.0625 C5.18710938 -0.07410156 5.99921875 -0.08570313 6.8359375 -0.09765625 C9 0 9 0 11 1 C11 3.97 11 6.94 11 10 C9.3954444 9.85851011 7.79136233 9.71164314 6.1875 9.5625 C5.29417969 9.48128906 4.40085938 9.40007812 3.48046875 9.31640625 C1 9 1 9 -2 8 C-1.125 2.25 -1.125 2.25 0 0 Z " fill="#332630" transform="translate(236,308)"/>
<path d="M0 0 C3.05384173 1.66573185 5.45917091 3.81750376 8.0625 6.125 C6.7425 8.765 5.4225 11.405 4.0625 14.125 C2.59949018 13.19481474 1.14224421 12.25555973 -0.3125 11.3125 C-1.12460938 10.79042969 -1.93671875 10.26835937 -2.7734375 9.73046875 C-4.9375 8.125 -4.9375 8.125 -6.9375 5.125 C-2.58387198 0.16670142 -2.58387198 0.16670142 0 0 Z " fill="#31242E" transform="translate(211.9375,293.875)"/>
<path d="M0 0 C4.95 1.98 4.95 1.98 10 4 C9.34 6.97 8.68 9.94 8 13 C-0.625 10.25 -0.625 10.25 -4 8 C-2.25 2.25 -2.25 2.25 0 0 Z " fill="#30222C" transform="translate(223,302)"/>
<path d="M0 0 C4.455 0.99 4.455 0.99 9 2 C6.25 10.625 6.25 10.625 4 14 C0.35446828 12.7191375 -1.16671013 11.83328987 -4 9 C-2.68 6.03 -1.36 3.06 0 0 Z " fill="#30232C" transform="translate(302,271)"/>
<path d="M0 0 C2.97 0 5.94 0 9 0 C8.85851011 1.6045556 8.71164314 3.20863767 8.5625 4.8125 C8.48128906 5.70582031 8.40007812 6.59914063 8.31640625 7.51953125 C8 10 8 10 7 13 C4.36 12.34 1.72 11.68 -1 11 C-1.125 3.375 -1.125 3.375 0 0 Z " fill="#32242E" transform="translate(305,257)"/>
<path d="M0 0 C2.87402727 2.5958956 4.24432948 4.21369298 5 8 C3.56570999 8.67354499 2.12742943 9.33859701 0.6875 10 C-0.11300781 10.37125 -0.91351563 10.7425 -1.73828125 11.125 C-4 12 -4 12 -7 12 C-7.66 9.36 -8.32 6.72 -9 4 C-6.03 2.68 -3.06 1.36 0 0 Z " fill="#30222C" transform="translate(274,303)"/>
<path d="M0 0 C3.96 0.99 3.96 0.99 8 2 C7.67 5.63 7.34 9.26 7 13 C4.03 13 1.06 13 -2 13 C-2.19294408 8.17639811 -1.75747614 4.50353262 0 0 Z " fill="#2E212B" transform="translate(188,238)"/>
<path d="M0 0 C1.98 0 3.96 0 6 0 C6 3.3 6 6.6 6 10 C4.02 10 2.04 10 0 10 C0 6.7 0 3.4 0 0 Z " fill="#40333C" transform="translate(246,295)"/>
<path d="M0 0 C3.3 0 6.6 0 10 0 C10 1.98 10 3.96 10 6 C6.7 6 3.4 6 0 6 C0 4.02 0 2.04 0 0 Z " fill="#3F323B" transform="translate(291,252)"/>
<path d="M0 0 C3.3 0 6.6 0 10 0 C10 1.98 10 3.96 10 6 C6.7 6 3.4 6 0 6 C0 4.02 0 2.04 0 0 Z " fill="#3E313A" transform="translate(199,250)"/>
<path d="M0 0 C2.61143679 4.89483596 4.01410584 10.14970718 5.625 15.4375 C5.94984375 16.47455078 6.2746875 17.51160156 6.609375 18.58007812 C6.91617187 19.58361328 7.22296875 20.58714844 7.5390625 21.62109375 C7.81959473 22.5330249 8.10012695 23.44495605 8.38916016 24.38452148 C9.00451355 27.019326 9.1137191 29.30510055 9 32 C5.09501485 28.09501485 4.3392674 21.76096981 2.8125 16.5625 C2.43158203 15.30888672 2.05066406 14.05527344 1.65820312 12.76367188 C1.30306641 11.56419922 0.94792969 10.36472656 0.58203125 9.12890625 C0.25436768 8.02619385 -0.0732959 6.92348145 -0.41088867 5.78735352 C-1 3 -1 3 0 0 Z " fill="#584D55" transform="translate(250,259)"/>
<path d="M0 0 C1.32 0 2.64 0 4 0 C4 2.97 4 5.94 4 9 C2.35 9 0.7 9 -1 9 C-1.125 2.25 -1.125 2.25 0 0 Z " fill="#291B25" transform="translate(249,204)"/>
<path d="M0 0 C0.99 0.33 1.98 0.66 3 1 C1.5901639 5.2295083 -1.16421847 6.08210924 -5 8 C-4.67 6.35 -4.34 4.7 -4 3 C-2.68 2.67 -1.36 2.34 0 2 C0 1.34 0 0.68 0 0 Z " fill="#E8E7E8" transform="translate(265,193)"/>
<path d="M0 0 C2.64 1.98 5.28 3.96 8 6 C7.34 6.66 6.68 7.32 6 8 C4.99403703 7.0479279 3.99538437 6.08812654 3 5.125 C2.443125 4.59132812 1.88625 4.05765625 1.3125 3.5078125 C0 2 0 2 0 0 Z " fill="#665C63" transform="translate(229,235)"/>
</svg>
