<?xml version="1.0" encoding="UTF-8"?>
<svg version="1.1" xmlns="http://www.w3.org/2000/svg" width="500" height="500">
<path d="M0 0 C165 0 330 0 500 0 C500 165 500 330 500 500 C335 500 170 500 0 500 C0 335 0 170 0 0 Z " fill="#FEFEFE" transform="translate(0,0)"/>
<path d="M0 0 C1.21280136 -0.00845947 2.42560272 -0.01691895 3.67515564 -0.02563477 C5.0159773 -0.01980211 6.35679763 -0.01365762 7.69761658 -0.00723267 C9.11204433 -0.01129848 10.5264689 -0.01664042 11.94088745 -0.02316284 C15.77965178 -0.03683999 19.61817424 -0.03153658 23.4569428 -0.02202559 C27.47275652 -0.01443251 31.48854948 -0.02147348 35.50436401 -0.02618408 C42.2472048 -0.03164204 48.98994701 -0.02444834 55.73277283 -0.01016235 C63.53202808 0.0061709 71.33104815 0.000871 79.13029772 -0.01564157 C85.82423323 -0.02924744 92.51809788 -0.03118072 99.21204275 -0.02332556 C103.21114454 -0.01864493 107.21013571 -0.01803498 111.20923042 -0.02793503 C114.96773755 -0.03658963 118.72594081 -0.0306107 122.48441505 -0.01325226 C123.8651148 -0.00927959 125.24584004 -0.0104348 126.62652969 -0.01704025 C128.50825345 -0.02521401 130.39003299 -0.0131557 132.27172852 0 C133.32567338 0.00113108 134.37961824 0.00226215 135.46550083 0.00342751 C138.07237244 0.38095093 138.07237244 0.38095093 139.91342831 1.69040489 C142.38477846 5.29535107 141.31049788 9.95794255 140.62705994 14.04208374 C139.9892799 17.20866164 139.28926316 20.3563401 138.57237244 23.50595093 C138.02050854 26.00050333 137.46979143 28.49530962 136.92002869 30.99032593 C136.77320145 31.65200775 136.62637421 32.31368958 136.47509766 32.99542236 C134.75893008 40.74485458 133.14741725 48.51592697 131.52659607 56.28573608 C130.51421614 61.12545267 129.48846255 65.96234713 128.46290588 70.79928589 C127.49220476 75.3810492 126.5383845 79.96598363 125.59190369 84.55282593 C125.16979048 86.53742751 124.74671427 88.52182467 124.32237244 90.50595093 C124.06121643 91.80991821 124.06121643 91.80991821 123.79478455 93.14022827 C122.80436703 97.667186 121.92310273 100.45500232 118.07237244 103.38095093 C114.78107596 105.02659916 111.12495777 104.51904007 107.50767517 104.51034546 C106.17828415 104.51297394 106.17828415 104.51297394 104.82203674 104.51565552 C101.88332683 104.52006821 98.94467675 104.51713833 96.00596619 104.51376343 C93.97097767 104.51443657 91.93598922 104.51540669 89.90100098 104.5166626 C85.63300309 104.51813873 81.3650261 104.51598749 77.09703064 104.51132202 C71.61322335 104.50562117 66.12946495 104.50890653 60.64565945 104.51489449 C56.44308093 104.51849929 52.24051411 104.51736195 48.03793526 104.51476669 C46.01522376 104.51409739 43.99251122 104.51492597 41.96980095 104.51724625 C39.14906353 104.51977184 36.32840656 104.51593367 33.50767517 104.51034546 C32.24140541 104.51338181 32.24140541 104.51338181 30.94955444 104.51647949 C25.18663562 104.49521411 25.18663562 104.49521411 24.07237244 103.38095093 C23.77705049 101.80200188 23.51100234 100.21752866 23.25987244 98.63095093 C22.41326066 94.24111211 21.41038467 91.5226095 18.07237244 88.38095093 C13.76910301 85.84220202 9.95650015 85.75230083 5.07237244 86.38095093 C-1.58817649 88.32258696 -6.01023034 92.80733766 -9.92762756 98.38095093 C-10.96171287 100.36354206 -11.96928414 102.36065939 -12.92762756 104.38095093 C-15.36579341 104.46192323 -17.8012714 104.52142064 -20.24012756 104.56845093 C-20.93042053 104.59358765 -21.6207135 104.61872437 -22.33192444 104.6446228 C-25.25108442 104.68692947 -27.39749799 104.7067057 -29.92372131 103.15438843 C-31.25464718 100.80325869 -31.07955292 99.47028455 -30.67762756 96.81845093 C-30.56934631 96.03341187 -30.46106506 95.2483728 -30.34950256 94.43954468 C-29.92762756 92.38095093 -29.92762756 92.38095093 -28.92762756 90.38095093 C-30.12366104 90.39094368 -30.12366104 90.39094368 -31.34385681 90.40113831 C-38.84844899 90.46118333 -46.35292515 90.50689143 -53.85769463 90.53638744 C-57.71623331 90.55206131 -61.57457396 90.57333048 -65.43299866 90.60726929 C-69.15476052 90.63980212 -72.87633159 90.65779097 -76.59822464 90.66558266 C-78.02005646 90.67113717 -79.44187753 90.68198354 -80.86362839 90.6981411 C-82.85084143 90.71983209 -84.83824539 90.72117561 -86.82557678 90.7215271 C-87.95808868 90.72818893 -89.09060059 90.73485077 -90.25743103 90.74171448 C-91.13859589 90.62266251 -92.01976074 90.50361053 -92.92762756 90.38095093 C-95.24045343 86.91171212 -95.35241342 85.45889518 -94.92762756 81.38095093 C-93.9103241 79.71948242 -93.9103241 79.71948242 -91.92762756 78.38095093 C-89.17560849 78.07646688 -86.64590856 77.95373869 -83.89198303 77.96444702 C-83.07385132 77.95586166 -82.2557196 77.94727631 -81.41279602 77.93843079 C-78.70671541 77.91332197 -76.0010016 77.9089881 -73.29481506 77.90438843 C-71.41818616 77.89008455 -69.54156781 77.87432866 -67.66496277 77.85717773 C-62.72356764 77.81527815 -57.78223789 77.79031006 -52.8407135 77.76968384 C-44.92335843 77.73389541 -37.00616452 77.67304104 -29.08897781 77.61119461 C-26.31635329 77.59203725 -23.54377189 77.58035553 -20.77110291 77.56976318 C-19.08222865 77.5595565 -17.39335529 77.54919904 -15.70448303 77.53866577 C-14.92732941 77.53762344 -14.15017578 77.53658112 -13.34947205 77.5355072 C-9.84583928 77.82828077 -9.84583928 77.82828077 -6.92762756 76.38095093 C-6.59424161 72.92282923 -6.59424161 72.92282923 -6.92762756 69.38095093 C-10.12427268 67.24985418 -10.95525002 67.12846361 -14.62684631 67.10971069 C-15.57793274 67.09952408 -16.52901917 67.08933746 -17.50892639 67.07884216 C-18.53397278 67.07670212 -19.55901917 67.07456207 -20.61512756 67.07235718 C-22.77919284 67.04720445 -24.94325528 67.02180632 -27.10731506 66.9961853 C-30.52430025 66.96739048 -33.94123624 66.94337636 -37.35829163 66.9246521 C-40.65249336 66.90306089 -43.94612245 66.86363295 -47.24012756 66.82235718 C-48.26517395 66.82224136 -49.29022034 66.82212555 -50.34632874 66.82200623 C-51.29741516 66.80866745 -52.24850159 66.79532867 -53.22840881 66.78158569 C-54.06541321 66.77651505 -54.9024176 66.7714444 -55.76478577 66.76622009 C-58.44709356 66.28841793 -59.36470685 65.59477686 -60.92762756 63.38095093 C-60.80262756 59.81845093 -60.80262756 59.81845093 -59.92762756 56.38095093 C-56.60704274 54.16722771 -55.51922166 54.12001447 -51.64588928 54.07797241 C-50.0293898 54.05300941 -50.0293898 54.05300941 -48.38023376 54.02754211 C-47.21767059 54.01912796 -46.05510742 54.01071381 -44.85731506 54.00204468 C-43.66534515 53.9850502 -42.47337524 53.96805573 -41.24528503 53.95054626 C-37.43111992 53.89732412 -33.61696637 53.85706925 -29.80262756 53.81845093 C-25.98120298 53.77459537 -22.15986507 53.72796181 -18.33854675 53.67564392 C-15.95813986 53.64356446 -13.57765605 53.61671324 -11.1971283 53.59541321 C-10.1257663 53.58192337 -9.0544043 53.56843353 -7.95057678 53.55453491 C-7.00254181 53.54502304 -6.05450684 53.53551117 -5.07774353 53.52571106 C-2.94642495 53.61908497 -2.94642495 53.61908497 -1.92762756 52.38095093 C-1.7609609 48.88095093 -1.7609609 48.88095093 -1.92762756 45.38095093 C-3.58182776 43.72675073 -5.5676336 44.25161039 -7.77832031 44.23750305 C-8.47131729 44.23803177 -9.16431427 44.23856049 -9.87831116 44.23910522 C-10.6051561 44.2356308 -11.33200104 44.23215637 -12.08087158 44.22857666 C-13.66435857 44.22120724 -15.24785597 44.2158682 -16.83135605 44.212286 C-19.33591424 44.20514158 -21.8402741 44.18949074 -24.34477234 44.17094421 C-31.4674152 44.11837733 -38.58995114 44.07048066 -45.71278381 44.05502319 C-50.06484754 44.04495753 -54.41641566 44.01566837 -58.76828384 43.97370338 C-60.42925396 43.96136653 -62.090294 43.95627702 -63.75130844 43.95850182 C-66.07413088 43.96084742 -68.3955251 43.93874744 -70.71815491 43.91098022 C-71.40710342 43.91758163 -72.09605194 43.92418304 -72.80587769 43.9309845 C-75.97750724 43.86858864 -77.53508015 43.76246146 -79.8547821 41.50798035 C-81.18466798 38.87134117 -81.3762718 37.29713843 -80.92762756 34.38095093 C-79.87001038 32.75364685 -79.87001038 32.75364685 -77.92762756 31.38095093 C-75.36378065 31.08178569 -73.03932675 30.96387081 -70.47450256 30.98031616 C-69.71810486 30.9733371 -68.96170715 30.96635803 -68.18238831 30.95916748 C-65.68068858 30.93916263 -63.17940022 30.93969083 -60.67762756 30.93954468 C-58.94031151 30.92777661 -57.20300558 30.91441379 -55.4657135 30.89952087 C-50.89003782 30.8632954 -46.31445189 30.84312139 -41.73866272 30.82797241 C-34.41419412 30.80316311 -27.08992397 30.76356701 -19.76564026 30.70607185 C-17.20468034 30.68971744 -14.64390676 30.68596276 -12.082901 30.68305969 C-10.51551489 30.67328487 -8.94813173 30.66302183 -7.38075256 30.65219116 C-6.66689392 30.65474411 -5.95303528 30.65729706 -5.21754456 30.65992737 C-1.56168184 30.62188054 -0.05833926 30.46809206 3.07237244 28.38095093 C3.32253116 24.79737851 3.32253116 24.79737851 3.07237244 21.38095093 C0.45543557 20.0724825 -1.4848655 20.24916261 -4.41542053 20.23910522 C-6.13763321 20.22855354 -6.13763321 20.22855354 -7.89463806 20.2177887 C-9.14044647 20.21362442 -10.38625488 20.20946014 -11.66981506 20.20516968 C-14.28831272 20.18197508 -16.90680233 20.15785789 -19.52528381 20.13290405 C-23.66867596 20.09648024 -27.81191865 20.06673776 -31.95545959 20.05502319 C-35.94385788 20.04300764 -39.93164042 19.99940794 -43.91981506 19.95516968 C-45.16157501 19.95707809 -46.40333496 19.95898651 -47.682724 19.96095276 C-48.8371701 19.94446182 -49.99161621 19.92797089 -51.18104553 19.91098022 C-52.7042189 19.90218086 -52.7042189 19.90218086 -54.25816345 19.89320374 C-57.63519935 19.2451725 -58.82743348 18.05256447 -60.92762756 15.38095093 C-61.42762756 12.81845093 -61.42762756 12.81845093 -60.92762756 10.38095093 C-58.06441482 7.69538882 -56.13796601 7.00833825 -52.25086975 7.04037476 C-50.86989105 7.04071465 -50.86989105 7.04071465 -49.46101379 7.0410614 C-48.47546509 7.05654526 -47.48991638 7.07202911 -46.47450256 7.08798218 C-44.95146515 7.09434944 -44.95146515 7.09434944 -43.3976593 7.10084534 C-40.15737802 7.11762669 -36.9177206 7.15527852 -33.67762756 7.19345093 C-31.47971988 7.20849844 -29.28180245 7.22218673 -27.08387756 7.23446655 C-21.69824835 7.26752838 -16.31298253 7.31772257 -10.92762756 7.38095093 C-10.84512756 6.78282593 -10.76262756 6.18470093 -10.67762756 5.56845093 C-8.92153084 0.44650215 -4.90170912 0.00525855 0 0 Z " fill="#202120" transform="translate(200.92762756347656,177.61904907226563)"/>
<path d="M0 0 C2.10137675 -0.01186398 4.1997836 -0.06099629 6.30053711 -0.11157227 C7.64231969 -0.12104084 8.98412027 -0.12827381 10.32592773 -0.13305664 C11.5438501 -0.14651123 12.76177246 -0.15996582 14.01660156 -0.17382812 C18.26999173 0.60109379 19.60990448 2.10825739 22.30639648 5.42553711 C23.97216797 7.88574219 23.97216797 7.88574219 25.42749023 10.44506836 C25.97083008 11.38543945 26.51416992 12.32581055 27.07397461 13.29467773 C27.62504883 14.26598633 28.17612305 15.23729492 28.74389648 16.23803711 C34.80946093 27.35122376 34.80946093 27.35122376 42.95727539 36.93530273 C44.90366066 39.085273 44.69553032 41.09643768 44.58618164 43.89282227 C43.97994836 49.38066176 42.71743476 54.73583226 41.49389648 60.11303711 C41.10234375 61.92771484 41.10234375 61.92771484 40.70288086 63.77905273 C40.31132812 65.52798828 40.31132812 65.52798828 39.91186523 67.31225586 C39.6762085 68.36630615 39.44055176 69.42035645 39.19775391 70.50634766 C37.79943816 75.08582215 36.31265441 77.75469849 32.30639648 80.42553711 C29.82592773 80.62084961 29.82592773 80.62084961 27.11889648 80.55053711 C26.2178418 80.53249023 25.31678711 80.51444336 24.38842773 80.49584961 C23.70135742 80.47264648 23.01428711 80.44944336 22.30639648 80.42553711 C22.2200293 79.83385742 22.13366211 79.24217773 22.04467773 78.63256836 C20.89049501 72.14161413 18.92218993 69.04387029 13.49389648 65.11303711 C8.48741903 63.53957277 3.98626543 63.84441986 -0.75610352 65.92553711 C-6.60669786 69.15663458 -10.92261607 74.39931199 -13.69360352 80.42553711 C-16.17284153 80.45238806 -18.65179191 80.47230258 -21.13110352 80.48803711 C-21.8381543 80.49641602 -22.54520508 80.50479492 -23.27368164 80.51342773 C-25.08053911 80.52207299 -26.88747954 80.47773722 -28.69360352 80.42553711 C-29.02360352 80.09553711 -29.35360352 79.76553711 -29.69360352 79.42553711 C-29.63678219 70.48720168 -27.46325375 61.68191571 -25.60375977 52.98413086 C-25.29575978 51.52497853 -24.98810301 50.06575371 -24.68077087 48.60646057 C-24.04024159 45.57250628 -23.39506673 42.53958768 -22.74658203 39.50732422 C-21.91546378 35.61883052 -21.09708707 31.72777805 -20.28217411 27.83586025 C-19.65184294 24.83307704 -19.01446949 21.83182249 -18.37496758 18.8309803 C-18.07007575 17.39571373 -17.76748562 15.95995622 -17.46724129 14.52371025 C-17.04871547 12.52648282 -16.61958718 10.53148595 -16.18994141 8.53662109 C-15.94869034 7.40175766 -15.70743927 6.26689423 -15.45887756 5.09764099 C-13.44994341 -1.91694518 -6.02854002 0.01613597 0 0 Z " fill="#212221" transform="translate(355.693603515625,199.574462890625)"/>
<path d="M0 0 C0.86302734 -0.01546875 1.72605469 -0.0309375 2.61523438 -0.046875 C8.80775327 -0.00838226 8.80775327 -0.00838226 11.26171875 1.97265625 C11.84373047 3.22369141 11.84373047 3.22369141 12.4375 4.5 C12.92101929 5.457854 12.92101929 5.457854 13.41430664 6.43505859 C14.56229473 8.74630395 15.6289273 11.08406606 16.6875 13.4375 C17.06390625 14.23607422 17.4403125 15.03464844 17.828125 15.85742188 C20.47437106 21.72878032 20.47437106 21.72878032 20.296875 25.44140625 C19.4375 27.5 19.4375 27.5 17.4375 29.5 C14.85646694 29.67502995 12.38441837 29.73162279 9.8046875 29.6953125 C8.67693405 29.69106766 8.67693405 29.69106766 7.52639771 29.68673706 C5.12160422 29.67552874 2.71718119 29.65042352 0.3125 29.625 C-1.31640088 29.61497102 -2.94530758 29.60584503 -4.57421875 29.59765625 C-8.57045556 29.57558735 -12.56641494 29.54105351 -16.5625 29.5 C-17.57006391 23.48970585 -17.22889557 19.15689616 -15.875 13.3125 C-15.71322266 12.51908203 -15.55144531 11.72566406 -15.38476562 10.90820312 C-14.63468472 7.56233663 -13.81738187 4.9151485 -12.015625 1.98046875 C-8.15045447 -0.35217397 -4.42614772 -0.07969058 0 0 Z " fill="#FAFAFA" transform="translate(359.5625,206.5)"/>
<path d="M0 0 C3.45658479 2.04573386 4.7785359 3.66780385 7 7 C7.8736957 12.85489588 7.00046689 17.87016951 4 23 C-1.00483362 28.36320442 -5.62932769 31.02660781 -13 31.375 C-16.48960241 31.29710709 -17.88129571 31.06677116 -21 29.3125 C-24.47017734 25.30010745 -25.59984526 21.55113407 -25.4375 16.18359375 C-24.2518191 10.26577568 -20.09345726 5.42710592 -15.3125 1.9375 C-10.43646401 -0.76307378 -5.42518209 -0.93537622 0 0 Z " fill="#242524" transform="translate(368,267)"/>
<path d="M0 0 C3.85544798 1.99657127 5.59805092 3.39707638 8 7 C8.78346931 12.9116321 8.41684847 17.98862225 5 23 C1.39545794 27.2002507 -1.90518869 30.64485772 -7.62109375 31.30078125 C-17.43560711 31.34161834 -17.43560711 31.34161834 -21 28 C-23.89937048 23.60095513 -24.63002934 20.22024312 -24 15 C-21.91966501 8.26180806 -17.86116951 4.66640257 -12 1 C-8.29240268 -0.85379866 -4.04626515 -0.45923868 0 0 Z " fill="#252625" transform="translate(214,267)"/>
<path d="M0 0 C1.1034375 -0.0103125 2.206875 -0.020625 3.34375 -0.03125 C7.12535364 0.60525754 8.80589863 1.81576714 11.5 4.5 C12.125 7 12.125 7 11.5 9.5 C8.80589863 12.18423286 7.12535364 13.39474246 3.34375 14.03125 C2.2403125 14.0209375 1.136875 14.010625 0 14 C-1.1034375 14.0103125 -2.206875 14.020625 -3.34375 14.03125 C-7.12535364 13.39474246 -8.80589863 12.18423286 -11.5 9.5 C-12.125 7 -12.125 7 -11.5 4.5 C-7.7658991 0.77957713 -5.22578285 -0.04883909 0 0 Z " fill="#2C2D2C" transform="translate(111.5,231.5)"/>
<path d="M0 0 C0.78052734 0.00322266 1.56105469 0.00644531 2.36523438 0.00976562 C3.53022461 -0.0144043 3.53022461 -0.0144043 4.71875 -0.0390625 C10.43355421 -0.04398481 10.43355421 -0.04398481 12.68188477 1.62231445 C13.92773438 3.32226562 13.92773438 3.32226562 13.80273438 6.88476562 C12.92773438 10.32226562 12.92773438 10.32226562 9.92773438 12.32226562 C7.39601595 12.56996504 5.02115265 12.69241247 2.49023438 12.69726562 C1.17152344 12.725625 -0.1471875 12.75398437 -1.50585938 12.78320312 C-5.07226562 12.32226562 -5.07226562 12.32226562 -7.55273438 10.49414062 C-9.07226562 8.32226562 -9.07226562 8.32226562 -8.94726562 5.19726562 C-7.35031088 -0.0498714 -5.13729688 0.04875778 0 0 Z " fill="#252625" transform="translate(117.072265625,184.677734375)"/>
<path d="M0 0 C1.9375 1.125 1.9375 1.125 3 3 C3.59391744 6.90288606 3.33267605 8.50098592 1.125 11.8125 C-1.65461881 14.6738723 -2.4057399 14.95678108 -6.4375 15.25 C-10 15 -10 15 -11.9375 13.875 C-13.53773673 11.05105282 -13.44734094 9.19529239 -13 6 C-9.2239128 0.33586921 -6.75047404 -0.47371748 0 0 Z " fill="#F9F9F9" transform="translate(364,275)"/>
<path d="M0 0 C2 2 2 2 2.375 5.3125 C1.94452982 9.54545677 0.96639625 11.03360375 -2 14 C-5.04983996 15.52491998 -7.6423369 15.23562548 -11 15 C-13 13.9375 -13 13.9375 -14 12 C-14 7.7627941 -13.37939492 5.54035034 -10.9375 2.0625 C-6.90315332 -0.77012639 -4.85133848 -0.55671097 0 0 Z " fill="#F8F8F8" transform="translate(212,275)"/>
<path d="M0 0 C-4.4527836 22.71091558 -9.23633419 45.35273232 -14 68 C-14.99 67.34 -15.98 66.68 -17 66 C-14.33665883 50.99055314 -11.46201219 36.060186 -8.05615234 21.19995117 C-7.81719238 20.15427979 -7.57823242 19.1086084 -7.33203125 18.03125 C-6.98906006 16.53078125 -6.98906006 16.53078125 -6.63916016 15 C-5.7961741 11.04331067 -5.14514028 7.06297532 -4.53393555 3.06445312 C-4.35773682 2.38318359 -4.18153809 1.70191406 -4 1 C-2 0 -2 0 0 0 Z " fill="#E9E9E9" transform="translate(341,205)"/>
<path d="M0 0 C4.02097328 2.36658759 7.09577245 4.57269176 8.8046875 9.05859375 C8.9921875 12.87109375 8.9921875 12.87109375 8.8046875 16.05859375 C7.8146875 16.38859375 6.8246875 16.71859375 5.8046875 17.05859375 C5.7428125 16.00671875 5.6809375 14.95484375 5.6171875 13.87109375 C4.66581274 9.40695065 3.22366679 7.96472615 -0.1953125 5.05859375 C-0.5253125 4.72859375 -0.8553125 4.39859375 -1.1953125 4.05859375 C-7.16978644 3.21576618 -11.99675974 3.41321426 -17.1328125 6.74609375 C-20.34204755 9.16739833 -22.92807936 11.70703172 -25.1953125 15.05859375 C-25.5253125 14.06859375 -25.8553125 13.07859375 -26.1953125 12.05859375 C-20.6921729 3.49620083 -10.52482172 -4.51331323 0 0 Z " fill="#EBEBEB" transform="translate(369.1953125,263.94140625)"/>
<path d="M0 0 C0.66 0.33 1.32 0.66 2 1 C1 4 1 4 -2.3125 6.1875 C-6.49534459 8.99327641 -8.16565817 12.40844872 -10 17 C-10.66 16.67 -11.32 16.34 -12 16 C-10.43900511 9.06224493 -5.8184277 3.8789518 0 0 Z " fill="#EEEEEE" transform="translate(201,265)"/>
<path d="M0 0 C-0.66 3.96 -1.32 7.92 -2 12 C-2.99 11.34 -3.98 10.68 -5 10 C-4.88637738 8.5199159 -4.75877092 7.04089926 -4.625 5.5625 C-4.55539062 4.73878906 -4.48578125 3.91507813 -4.4140625 3.06640625 C-4.27742188 2.38449219 -4.14078125 1.70257813 -4 1 C-2 0 -2 0 0 0 Z " fill="#D6D6D6" transform="translate(341,205)"/>
<path d="M0 0 C0.33 0 0.66 0 1 0 C1.08159574 4.16138263 0.98248524 7.9472484 0 12 C-0.99 11.34 -1.98 10.68 -3 10 C-2.69201674 8.51988629 -2.378482 7.04092675 -2.0625 5.5625 C-1.88847656 4.73878906 -1.71445312 3.91507813 -1.53515625 3.06640625 C-1 1 -1 1 0 0 Z " fill="#E6E6E6" transform="translate(337,214)"/>
<path d="M0 0 C0.33 0.66 0.66 1.32 1 2 C1.66 2 2.32 2 3 2 C2.67 4.64 2.34 7.28 2 10 C1.01 9.34 0.02 8.68 -1 8 C-0.67 5.36 -0.34 2.72 0 0 Z " fill="#D4D4D4" transform="translate(329,244)"/>
<path d="M0 0 C0.33 0 0.66 0 1 0 C1.125 6.75 1.125 6.75 0 9 C-0.66 9 -1.32 9 -2 9 C-1.125 1.125 -1.125 1.125 0 0 Z " fill="#F4F4F4" transform="translate(332,237)"/>
</svg>
