<?xml version="1.0" standalone="no"?>
<!DOCTYPE svg PUBLIC "-//W3C//DTD SVG 20010904//EN"
 "http://www.w3.org/TR/2001/REC-SVG-20010904/DTD/svg10.dtd">
<svg version="1.0" xmlns="http://www.w3.org/2000/svg"
 width="500.000000pt" height="500.000000pt" viewBox="0 0 500.000000 500.000000"
 preserveAspectRatio="xMidYMid meet">

<g transform="translate(0.000000,500.000000) scale(0.100000,-0.100000)"
fill="#000000" stroke="none">
<path d="M2808 3788 c5 -5 16 -8 23 -6 8 3 3 7 -10 11 -17 4 -21 3 -13 -5z"/>
<path d="M3705 1959 c-4 -6 -5 -12 -2 -15 2 -3 7 2 10 11 7 17 1 20 -8 4z"/>
<path d="M3054 1264 c-18 -14 -18 -14 6 -3 31 14 36 19 24 19 -6 0 -19 -7 -30
-16z"/>
<path d="M1867 1259 c7 -7 15 -10 18 -7 3 3 -2 9 -12 12 -14 6 -15 5 -6 -5z"/>
<path d="M2838 1183 c6 -2 18 -2 25 0 6 3 1 5 -13 5 -14 0 -19 -2 -12 -5z"/>
<path d="M3506 518 c-3 -13 -6 -71 -6 -130 0 -84 3 -110 16 -122 14 -14 83
-16 609 -16 526 0 595 2 609 16 13 12 16 39 16 125 0 61 -5 119 -10 130 -10
18 -28 19 -619 19 l-609 0 -6 -22z m219 -44 c27 -11 38 -53 20 -80 -12 -19
-24 -24 -55 -24 -32 0 -39 -4 -42 -22 -2 -15 -11 -24 -26 -26 -22 -3 -23 0
-20 40 l3 43 53 3 c66 4 69 22 3 22 -51 0 -67 10 -57 35 6 16 88 21 121 9z
m176 -24 c29 -16 25 -58 -6 -66 -16 -4 -25 -13 -25 -25 0 -10 -7 -19 -15 -19
-12 0 -15 13 -15 60 0 54 2 60 21 60 11 0 29 -5 40 -10z m59 -10 c0 -13 7 -20
19 -20 11 0 23 -5 26 -10 5 -8 11 -7 21 1 8 6 28 9 45 7 20 -3 33 0 36 9 7 18
21 16 41 -4 12 -12 13 -18 4 -21 -14 -4 -17 -32 -3 -32 5 0 12 11 15 25 5 21
12 25 41 25 21 0 35 -5 36 -12 1 -7 4 1 8 17 7 34 36 44 72 25 17 -10 20 -18
15 -43 -6 -32 -6 -32 9 -9 17 23 68 31 80 12 5 -8 11 -7 20 0 8 6 26 10 42 8
52 -6 39 -78 -14 -78 -13 0 -26 7 -30 15 -5 14 -7 14 -22 1 -21 -18 -91 -17
-113 2 -16 14 -18 13 -18 -1 0 -19 -21 -22 -37 -6 -8 8 -13 8 -17 0 -9 -15
-49 -14 -64 1 -9 9 -12 9 -12 -1 0 -7 -9 -11 -22 -9 -16 2 -25 12 -29 33 -4
19 -7 23 -8 9 -2 -42 -60 -62 -80 -26 -10 16 -10 16 -11 0 0 -10 -7 -18 -15
-18 -9 0 -15 9 -15 25 0 14 -4 25 -10 25 -5 0 -10 -11 -10 -25 0 -16 -6 -25
-15 -25 -12 0 -15 13 -15 60 0 47 3 60 15 60 8 0 15 -9 15 -20z m688 -62 c2
-29 0 -38 -12 -38 -11 0 -16 10 -16 31 0 17 -4 28 -10 24 -5 -3 -10 -17 -10
-31 0 -35 -30 -32 -31 4 l-2 27 -4 -27 c-7 -45 -33 -35 -33 12 l0 41 58 -3 57
-3 3 -37z m-892 -47 c-9 -15 -39 -14 -54 1 -18 18 -15 26 11 30 26 5 53 -15
43 -31z"/>
<path d="M3870 420 c0 -5 5 -10 10 -10 6 0 10 5 10 10 0 6 -4 10 -10 10 -5 0
-10 -4 -10 -10z"/>
<path d="M4290 420 c0 -5 5 -10 10 -10 6 0 10 5 10 10 0 6 -4 10 -10 10 -5 0
-10 -4 -10 -10z"/>
<path d="M4045 380 c3 -5 10 -10 16 -10 5 0 9 5 9 10 0 6 -7 10 -16 10 -8 0
-12 -4 -9 -10z"/>
<path d="M4195 380 c3 -5 10 -10 16 -10 5 0 9 5 9 10 0 6 -7 10 -16 10 -8 0
-12 -4 -9 -10z"/>
<path d="M4375 380 c3 -5 10 -10 16 -10 5 0 9 5 9 10 0 6 -7 10 -16 10 -8 0
-12 -4 -9 -10z"/>
<path d="M4465 380 c3 -5 10 -10 16 -10 5 0 9 5 9 10 0 6 -7 10 -16 10 -8 0
-12 -4 -9 -10z"/>
</g>
</svg>
