<?xml version="1.0" encoding="UTF-8" standalone="no"?>
<svg
   width="154mm"
   height="27mm"
   version="1.1"
   viewBox="0 0 154 27"
   xml:space="preserve"
   id="svg1"
   sodipodi:docname="logo_v1.svg"
   inkscape:version="1.3 (0e150ed, 2023-07-21)"
   xmlns:inkscape="http://www.inkscape.org/namespaces/inkscape"
   xmlns:sodipodi="http://sodipodi.sourceforge.net/DTD/sodipodi-0.dtd"
   xmlns="http://www.w3.org/2000/svg"
   xmlns:svg="http://www.w3.org/2000/svg"><defs
     id="defs1" /><sodipodi:namedview
     id="namedview1"
     pagecolor="#ffffff"
     bordercolor="#000000"
     borderopacity="0.25"
     inkscape:showpageshadow="2"
     inkscape:pageopacity="0.0"
     inkscape:pagecheckerboard="0"
     inkscape:deskcolor="#d1d1d1"
     inkscape:document-units="mm"
     inkscape:zoom="1.2679383"
     inkscape:cx="290.62928"
     inkscape:cy="50.869983"
     inkscape:window-width="1856"
     inkscape:window-height="796"
     inkscape:window-x="2526"
     inkscape:window-y="496"
     inkscape:window-maximized="0"
     inkscape:current-layer="svg1" /><path
     d="m42.78 24.04c-0.63472-0.19851-0.98532-0.77865-0.98682-1.6329-8.8e-4 -0.50062 0.13514-0.90593 0.4042-1.2044 0.52272-0.57988 1.459-0.59895 2.0894-0.0426l0.1778 0.15694-0.17648 0.1486-0.17648 0.14859-0.16207-0.1423c-0.35201-0.30907-0.93739-0.34123-1.2726-0.0699-0.31038 0.25121-0.39678 0.47646-0.39678 1.0345 0 0.42047 0.01635 0.51178 0.127 0.70923 0.30845 0.55044 0.98237 0.67278 1.5057 0.27334l0.23521-0.17954 0.299 0.299-0.23996 0.21122c-0.37985 0.33436-0.92894 0.44604-1.4271 0.29026zm7.3844 3e-3c-0.85676-0.31916-1.2511-1.2547-0.94566-2.2436 0.13334-0.43169 0.49378-0.82179 0.88135-0.95384 0.28613-0.0975 0.83849-0.1066 1.0794-0.0178 0.29878 0.11016 0.61681 0.37796 0.77242 0.65043 0.50267 0.88014 0.20854 2.0655-0.61802 2.4907-0.27236 0.1401-0.88764 0.17909-1.1695 0.0741zm1.0103-0.52209c0.12272-0.0634 0.25685-0.19647 0.35102-0.34811 0.14164-0.22809 0.1524-0.27975 0.1524-0.732 0-0.39478-0.02002-0.52492-0.10612-0.68978-0.15304-0.29303-0.46129-0.49404-0.8008-0.52219-0.72723-0.0603-1.1785 0.41379-1.1739 1.2334 0.0032 0.56754 0.27715 1.004 0.71862 1.1448 0.21943 0.07 0.63804 0.028 0.85878-0.0861zm5.6596-1.0587v-1.651h0.39196l0.88352 1.1672c0.48594 0.64197 0.90066 1.1678 0.92162 1.1684 0.02096 6.5e-4 0.0381-0.5246 0.0381-1.1672v-1.1684h0.4572v3.302l-0.1905-3e-3c-0.18861-3e-3 -0.1993-0.0145-1.0795-1.1922-0.48895-0.6542-0.90614-1.1902-0.9271-1.191-0.02096-8.8e-4 -0.0381 0.53561-0.0381 1.1922v1.1938h-0.4572zm7.1628 0v-1.651h0.19169c0.19042 0 0.19757 8e-3 1.0795 1.168 0.4883 0.64242 0.90495 1.1682 0.92591 1.1684 0.021 2e-4 0.0381-0.52542 0.0381-1.168v-1.1684h0.4572v3.302h-0.19136c-0.1906 0-0.19487-5e-3 -1.0795-1.1918-0.48848-0.65549-0.90529-1.1927-0.92624-1.1938-0.02096-1e-3 -0.0381 0.53522-0.0381 1.1918v1.1938h-0.4572zm6.9088 0v-1.651h1.9812v0.4572h-1.524v0.8636h1.4224v0.45433l-1.397 0.0282-0.029 0.9906h1.5785v0.508h-2.032zm7.2617 1.5923c-0.3042-0.0813-0.65697-0.39061-0.83101-0.72868-0.1486-0.28863-0.15692-0.3358-0.15692-0.889 0-0.6574 0.0882-0.93873 0.3963-1.2635 0.41335-0.4358 1.1252-0.54562 1.6941-0.26135 0.16679 0.0833 0.35893 0.2108 0.42698 0.28324l0.12373 0.13171-0.35512 0.29074-0.127-0.12111c-0.42069-0.4012-1.1517-0.35763-1.4918 0.0889-0.26625 0.34953-0.31061 1.117-0.0896 1.5498 0.27965 0.54766 0.99175 0.68145 1.5123 0.28413l0.2352-0.17954 0.299 0.299-0.23995 0.21122c-0.36665 0.32273-0.89586 0.43812-1.3962 0.30443zm6.6575-1.3637v-1.4224h-0.762v-0.4572h2.032v0.4572h-0.8128v2.8448h-0.4572zm9.4488-0.2286v-1.651h0.4572v0.6858c0 0.37719 0.0175 0.6858 0.0388 0.6858s0.34678-0.30861 0.7232-0.6858l0.68438-0.6858h0.60983l-1.5933 1.6002 1.6308 1.7018h-0.65368l-0.6819-0.73614c-0.37505-0.40488-0.69905-0.73635-0.72-0.7366-0.021-2.5e-4 -0.0381 0.33101-0.0381 0.73614v0.7366h-0.4572zm6.7056 0v-1.651h2.032v0.45455l-1.5494 0.028v0.8128l1.397 0.0282v0.45146l-1.397 0.0282-0.0282 1.4986h-0.45448zm6.7564 0.2286v-1.4224h-0.762v-0.4572h2.032v0.4572h-0.8128v2.8448h-0.4572zm4.7357 1.3433c-0.12438-0.0871-0.15299-0.31772-0.0519-0.41876 0.0335-0.0335 0.12039-0.061 0.19304-0.061 0.16995 0 0.254 0.0865 0.254 0.26128 0 0.12069-0.15097 0.29752-0.254 0.29752-0.0155 0-0.079-0.0356-0.1411-0.0791zm-90.541-8.5829c-1.3059-0.20657-2.0961-0.91972-2.4198-2.1839-0.08303-0.32426-0.09106-0.65113-0.09106-3.7084 0-3.0403 0.0085-3.3888 0.09069-3.739 0.26267-1.1185 0.89123-1.784 1.9958-2.1132 0.27709-0.0826 0.69189-0.0909 5.2033-0.10504 5.5167-0.0172 5.3687-0.0256 6.1367 0.34886 0.74135 0.36149 1.2083 0.97531 1.4163 1.8616 0.08452 0.36025 0.09233 0.68228 0.09154 3.7721-8.58e-4 3.3392-0.0022 3.3828-0.11416 3.7795-0.15668 0.55495-0.40648 0.97624-0.79354 1.3383-0.36352 0.34005-0.70622 0.52258-1.2913 0.68775-0.3873 0.10934-0.43526 0.11047-5.09 0.1203-3.7457 8e-3 -4.7874-4e-3 -5.1345-0.059zm9.3146-2.5757c0.35256-0.15962 0.34516-0.0829 0.32956-3.414-0.0135-2.8832-0.0167-2.9684-0.11549-3.0792-0.22954-0.25736-0.13873-0.25231-4.5323-0.25201-2.5596 1.8e-4 -4.1721 0.0193-4.2853 0.0507-0.09987 0.0277-0.23702 0.10945-0.3048 0.18158l-0.12323 0.13114-0.0126 2.9804c-0.0097 2.303 0.0018 3.0082 0.0508 3.1025 0.09244 0.17804 0.28612 0.30441 0.54608 0.3563 0.12569 0.0251 2.0345 0.042 4.2417 0.0376 3.6708-7e-3 4.0296-0.0154 4.2055-0.0951zm91.08 2.5991c-1.2854-0.17126-2.1006-0.81026-2.4868-1.9492l-0.13915-0.41038v-3.5306c0-3.8652-7e-3 -3.7688 0.30812-4.4583 0.22779-0.49895 0.6372-0.92499 1.1112-1.1563 0.76355-0.37266 0.41595-0.35097 5.8926-0.36768 5.4764-0.0167 5.4233-0.0194 6.0992 0.31391 0.45189 0.22285 0.72646 0.45892 0.98623 0.84794 0.20324 0.30435 0.46157 0.99928 0.46157 1.2417v0.12438h-5.7752c-5.7074 0-5.7777 1e-3 -5.989 0.10354-0.36227 0.17537-0.3516 0.0745-0.3516 3.3255 0 3.2448-0.0139 3.1191 0.36606 3.3078 0.18448 0.0916 0.44107 0.0968 5.9909 0.12115l5.7981 0.0254-0.0904 0.3556c-0.27279 1.0732-0.94594 1.7478-2.0362 2.0406-0.29587 0.0795-0.76112 0.0884-5.0755 0.0976-2.6124 6e-3 -4.894-9e-3 -5.0702-0.0326zm-110.53-1.3242c-0.72386-0.7016-1.9965-1.9303-2.8281-2.7305l-1.512-1.4549 3.29-0.0261c2.2687-0.018 3.3294-0.0438 3.417-0.0831 0.06985-0.0313 0.17272-0.10769 0.2286-0.16966 0.09586-0.10631 0.10244-0.19551 0.11649-1.5789 0.01288-1.268 0.0038-1.4876-0.06687-1.6244-0.16336-0.3159 0.09292-0.30251-5.7884-0.30251h-5.361v-1.0439c0-0.83375 0.01552-1.0739 0.07706-1.1929 0.16549-0.32002-0.15832-0.30314 5.8154-0.30314 6.0302 0 5.8723-8e-3 6.5807 0.33053 0.67616 0.32306 1.1226 0.84726 1.3809 1.6213l0.13692 0.41038 0.01876 1.8638c0.01538 1.5276 0.0046 1.939-0.05982 2.2804-0.24124 1.279-1.0646 1.969-2.6266 2.2012-0.25303 0.0376-0.48253 0.0909-0.51001 0.11835-0.03275 0.0328 0.4674 0.54497 1.4518 1.4868 0.82596 0.79027 1.5017 1.4449 1.5017 1.4548 0 0.01-0.88793 0.018-1.9732 0.018h-1.9732zm24.16 1.2397c-0.28085-0.10266-0.41433-0.43952-0.28951-0.73061 0.04087-0.0953 1.6196-2.5508 3.5083-5.4565 2.495-3.8386 3.485-5.3214 3.6204-5.4229l0.18634-0.1397 1.0211 1.9e-4c1.1624 2.2e-4 1.2181 0.0157 1.4918 0.41507 0.49954 0.72902 6.8357 10.544 6.8771 10.652 0.07148 0.18799 0.01324 0.42712-0.13884 0.57013-0.12806 0.12041-0.14829 0.12269-1.2311 0.13881-0.96755 0.0144-1.121 6e-3 -1.2664-0.0717-0.19412-0.10335-0.28779-0.24289-3.4142-5.0858-1.2229-1.8943-2.2579-3.4509-2.3-3.4593-0.0756-0.015-1.2814 1.8096-3.703 5.6032-1.6183 2.5352-1.824 2.8332-2.025 2.9336-0.15281 0.0763-0.32417 0.0883-1.2192 0.0849-0.57277-2e-3 -1.0757-0.0165-1.1176-0.0318zm17.937-0.0949c-0.23194-0.19516-0.26594-0.39256-0.24877-1.4441l0.01535-0.9398 12.114-0.0508 0.13391-0.13392c0.0777-0.0778 0.15187-0.22689 0.17673-0.3556 0.064-0.33155 0.0583-5.372-6e-3 -5.674-0.0324-0.15096-0.10459-0.29818-0.18188-0.3708l-0.1282-0.12044-12.133-0.0266 0.0029-0.97729c0.0032-1.105 0.03751-1.2711 0.29847-1.4466l0.17434-0.11723 6.2011 0.0144c5.7453 0.0134 6.2235 0.021 6.5059 0.10387 1.06 0.31105 1.686 0.97439 1.9396 2.0556 0.0844 0.35972 0.0924 0.68246 0.0924 3.7213 0 3.0388-8e-3 3.3616-0.0924 3.7213-0.20402 0.86964-0.6778 1.5058-1.3665 1.835-0.72841 0.34809-0.48015 0.33656-7.2472 0.33656h-6.0942zm24.469-0.0175-0.1659-0.14822-0.0134-5.5109c-9e-3 -3.5404 5e-3 -5.5581 0.0368-5.643 0.0276-0.0726 0.12507-0.17768 0.21657-0.23347 0.15024-0.0916 0.25649-0.10145 1.096-0.10162 0.73187-1.5e-4 0.96132 0.0162 1.0786 0.0769 0.32002 0.16549 0.30314-0.15836 0.30314 5.8157 0 4.7275-0.01 5.4599-0.0759 5.5874-0.15095 0.29189-0.20856 0.30536-1.3062 0.30536h-1.0039zm6.5526 0.0939c-0.53053-0.1271-1.1894-0.61215-1.5098-1.1115-0.18334-0.28572-0.3315-0.6974-0.38131-1.0596l-0.0363-0.26383 4.3863-5e-3c5.5946-6e-3 7.0327-0.0382 7.2196-0.16075 0.3-0.19668 0.41992-0.75836 0.27116-1.2701-0.089-0.3062-0.21695-0.43392-0.53911-0.53818-0.0978-0.0317-1.9609-0.16147-4.1402-0.28849-2.1793-0.12703-4.0881-0.25241-4.2418-0.27864-1.1646-0.19877-2.1029-0.79543-2.5299-1.6087-0.28846-0.54943-0.3807-1.0025-0.3807-1.8702 0-0.61822 0.0204-0.8369 0.10786-1.159 0.15146-0.55743 0.38593-0.97428 0.75351-1.3396 0.51518-0.51203 1.1874-0.78221 2.1884-0.87959 0.67357-0.0655 9.0294-0.0636 9.4845 2e-3 0.73746 0.10659 1.4483 0.60384 1.7961 1.2565 0.16006 0.30029 0.31276 0.82956 0.31418 1.0889l7.5e-4 0.13783-5.6515 0.0146c-5.4297 0.014-5.6602 0.0184-5.8734 0.11141-0.28137 0.12277-0.41034 0.37883-0.41195 0.81791-2e-3 0.66198 0.2181 0.9493 0.81169 1.0575 0.0978 0.0178 1.8009 0.12393 3.7846 0.23577 3.8 0.21425 4.319 0.25568 4.8514 0.38732 0.93445 0.23105 1.7187 0.82 2.0836 1.5647 0.30568 0.62381 0.37616 0.95612 0.37831 1.7835 5e-3 1.8357-0.68551 2.8488-2.2414 3.2896-0.39823 0.11283-0.40011 0.11287-5.3514 0.12174-2.7845 5e-3 -5.0363-0.0111-5.1433-0.0367zm20.242-0.0249c-0.2747-0.19241-0.26501-0.018-0.26501-4.7696v-4.3967l-2.7305-8e-5c-2.4978-7e-5 -2.7457-8e-3 -2.9083-0.0889-0.29894-0.14933-0.35543-0.33524-0.35552-1.17-9e-5 -0.79839 0.0447-0.98588 0.28001-1.1709l0.14001-0.11013h6.8996c5.2487 0 6.9315 0.0146 7.033 0.0608 0.26464 0.12058 0.32854 0.35797 0.32833 1.2199-1.7e-4 0.68943-0.0117 0.79562-0.10272 0.94488-0.1929 0.3164-0.17331 0.31444-3.1467 0.31444h-2.694l-2.9e-4 4.3053c-1.8e-4 2.7799-0.0187 4.3716-0.0523 4.4925-0.0286 0.10298-0.12167 0.24586-0.20682 0.3175-0.1544 0.12993-0.15738 0.13027-1.1302 0.13027-0.80166 0-0.99556-0.0141-1.0886-0.0793zm9.9004-0.051c-0.0851-0.0716-0.17821-0.21452-0.20681-0.3175-0.0716-0.2578-0.0716-10.632 0-10.89 0.0286-0.10298 0.12166-0.24586 0.20681-0.3175 0.15455-0.13005 0.1565-0.13027 1.1423-0.13027h0.98745l0.37951 0.34778 0.0134 5.4685c0.0122 4.9914 6e-3 5.4839-0.0703 5.6449-0.14115 0.29744-0.25181 0.32436-1.3336 0.32436-0.96041 0-0.96438-4.6e-4 -1.1186-0.13027zm23.464 0.0353c-0.69917-0.22819-1.224-0.68038-1.5408-1.3275-0.16894-0.34506-0.3165-0.97053-0.24568-1.0414 0.014-0.014 1.9819-0.0276 4.3731-0.0303 5.5601-6e-3 6.9943-0.0383 7.1813-0.16098 0.21838-0.14317 0.30241-0.31885 0.32845-0.6867 0.0443-0.62507-0.15529-1.0098-0.58352-1.1251-0.1133-0.0305-1.9857-0.1585-4.1609-0.28442-3.8371-0.22214-4.3886-0.27336-4.9691-0.46153-0.78631-0.25488-1.4851-0.81976-1.7937-1.45-0.28466-0.58126-0.37803-1.0373-0.37803-1.8462 0-0.77847 0.0962-1.2788 0.34317-1.7857 0.44267-0.90829 1.3748-1.4595 2.6865-1.5887 0.73032-0.0719 9.0696-0.074 9.5289-2e-3 0.68766 0.10723 1.4038 0.59215 1.7517 1.1861 0.16773 0.28636 0.3311 0.83315 0.3311 1.1082v0.18973l-5.6515 0.0146c-5.536 0.0143-5.6556 0.0167-5.8514 0.11618-0.3369 0.17121-0.40995 0.31973-0.40788 0.82923 3e-3 0.66242 0.17571 0.90032 0.74331 1.022 0.13329 0.0286 1.8604 0.14336 3.838 0.25505 1.9776 0.1117 3.8176 0.22758 4.0888 0.25753 1.6958 0.1872 2.75 0.99178 3.1261 2.3859 0.12641 0.46848 0.12289 1.8184-6e-3 2.286-0.3063 1.1116-0.99666 1.7855-2.1656 2.1141-0.30809 0.0866-0.66364 0.0936-5.3086 0.10509-4.6708 0.0115-4.9957 7e-3 -5.2578-0.0789zm-67.135-3.8709c-0.0854-0.0248-0.21109-0.10453-0.2794-0.17716-0.1184-0.12588-0.12496-0.16723-0.14049-0.88569-0.0132-0.61228-1e-3 -0.78289 0.0644-0.9096 0.16008-0.30956 0.16431-0.31008 2.5109-0.31008h2.1322l0.15538 0.13074c0.2229 0.18756 0.27251 0.41481 0.25158 1.1524-0.0205 0.72289-0.0826 0.87476-0.40392 0.98733-0.20774 0.0728-4.0446 0.0836-4.2906 0.0121z"
     style="fill:#0f528a;fill-opacity:1"
     id="path1" /></svg>
