<?xml version="1.0" standalone="no"?>
<!DOCTYPE svg PUBLIC "-//W3C//DTD SVG 20010904//EN"
 "http://www.w3.org/TR/2001/REC-SVG-20010904/DTD/svg10.dtd">
<svg version="1.0" xmlns="http://www.w3.org/2000/svg"
 width="612.000000pt" height="408.000000pt" viewBox="0 0 612.000000 408.000000"
 preserveAspectRatio="xMidYMid meet">
<metadata>
Created by potrace 1.16, written by Peter Selinger 2001-2019
</metadata>
<g transform="translate(0.000000,408.000000) scale(0.100000,-0.100000)"
fill="#000000" stroke="none">
<path d="M0 4008 c0 -69 16 -141 33 -146 4 -1 6 -1 5 1 -1 1 4 12 11 25 15 29
41 29 41 -1 0 -23 17 -47 33 -47 4 0 6 4 2 9 -7 12 29 33 39 24 3 -3 6 -14 6
-23 0 -10 7 -23 16 -31 13 -10 17 -10 25 2 5 8 9 10 9 5 0 -5 6 -3 14 3 11 9
15 6 20 -14 6 -23 10 -26 36 -20 25 5 31 2 45 -25 14 -26 18 -29 36 -19 11 6
22 9 23 7 1 -2 7 -16 14 -32 10 -23 15 -26 27 -16 12 10 15 10 15 -1 0 -11 2
-11 9 0 8 12 12 10 22 -11 10 -24 49 -36 49 -16 0 22 18 4 24 -22 5 -27 8 -30
25 -20 31 16 41 12 41 -16 0 -23 3 -25 34 -20 28 5 35 2 39 -15 3 -12 10 -18
16 -15 5 3 12 -2 14 -11 4 -17 5 -17 6 0 1 24 18 21 24 -4 4 -15 11 -20 21
-16 9 4 16 1 16 -6 0 -8 3 -8 9 2 13 20 22 -15 20 -76 -1 -26 2 -180 6 -341
l8 -293 29 -6 c16 -3 31 -10 34 -14 3 -5 10 -7 15 -4 5 4 10 -13 11 -37 1 -42
1 -43 5 -6 4 36 5 36 33 26 16 -5 31 -17 34 -26 3 -10 8 -111 11 -225 7 -208
1 -312 -16 -301 -5 3 -4 -7 1 -21 13 -34 13 -55 0 -55 -5 0 -10 11 -10 25 0
31 -20 33 -21 3 0 -22 -1 -22 -9 -3 -4 11 -6 39 -5 63 2 25 -1 42 -7 42 -7 0
-9 -22 -6 -65 l6 -65 -20 22 c-13 14 -22 18 -25 12 -2 -7 -12 -10 -22 -7 -16
4 -18 12 -13 45 4 32 2 40 -9 36 -11 -4 -15 -38 -17 -164 -2 -87 -6 -162 -10
-165 -8 -7 -194 19 -229 32 l-23 9 0 270 c0 148 3 269 8 269 4 -1 19 -1 34 0
l26 1 -1 133 c-2 118 -4 134 -22 149 -24 21 -45 23 -46 6 0 -7 0 -36 1 -64 2
-64 -14 -78 -46 -41 -17 20 -23 23 -28 12 -7 -20 -31 -19 -51 1 -15 15 -17 15
-34 0 -18 -16 -20 -16 -35 6 -15 21 -16 -4 -16 -332 0 -195 -4 -361 -9 -369
-11 -18 -51 -5 -51 17 0 14 -2 13 -13 -2 -16 -21 -57 -14 -57 10 0 19 -26 18
-34 -2 -3 -8 -11 -12 -16 -9 -7 4 -10 63 -9 163 1 147 0 157 -19 170 -15 10
-26 11 -38 4 -12 -7 -30 -5 -57 4 l-40 14 7 -87 c12 -182 11 -238 -7 -241 -11
-2 -17 -13 -17 -32 0 -33 32 -48 95 -45 22 1 71 -4 108 -11 38 -8 85 -14 105
-14 21 0 48 -7 60 -16 13 -9 30 -13 39 -10 9 4 24 -1 34 -10 11 -10 19 -12 19
-6 0 12 102 7 185 -9 28 -6 58 -10 67 -10 24 0 38 -21 31 -47 -6 -26 -28 -29
-37 -5 -6 14 -9 14 -15 4 -7 -10 -29 -10 -122 3 -62 9 -117 20 -122 25 -5 5
-16 7 -23 4 -9 -3 -14 2 -14 13 0 15 -2 16 -9 5 -12 -18 -57 -17 -221 9 -175
27 -180 27 -180 -9 0 -16 6 -32 12 -34 10 -4 10 -6 1 -6 -7 -1 -13 -10 -13
-20 0 -17 4 -18 32 -11 24 7 34 6 42 -6 9 -12 17 -13 40 -4 20 7 32 7 41 0 7
-6 25 -8 39 -4 15 3 32 1 40 -5 8 -7 25 -9 41 -5 17 4 30 2 35 -5 7 -13 60 -5
60 9 0 4 -28 10 -62 13 -112 12 -269 35 -274 40 -3 3 -1 14 5 24 9 16 10 16
11 1 0 -11 6 -15 20 -11 11 3 18 8 16 12 -3 4 12 5 32 2 34 -4 35 -5 12 -12
-14 -4 1 -5 33 -2 37 4 57 2 57 -5 0 -6 9 -9 20 -7 11 2 19 1 17 -3 -1 -4 3
-7 8 -7 6 0 9 4 7 8 -1 5 3 5 10 0 7 -4 22 -6 32 -4 21 3 217 -23 301 -41 28
-5 67 -10 88 -9 26 0 37 -4 37 -14 0 -12 5 -13 26 -3 15 7 28 8 32 2 8 -11 26
-14 110 -18 60 -3 94 -17 79 -33 -4 -3 -49 -1 -100 6 -330 45 -357 47 -357 26
0 -18 1 -18 36 -5 21 8 29 7 39 -6 8 -12 14 -14 19 -6 9 15 46 16 46 1 0 -7
11 -8 30 -4 19 4 30 3 30 -5 0 -7 12 -9 35 -4 20 3 35 2 35 -3 0 -5 14 -8 30
-5 18 2 30 0 30 -7 0 -7 8 -8 25 -1 20 8 27 6 31 -5 5 -12 10 -12 27 -4 16 9
23 8 31 -3 8 -11 15 -12 28 -4 9 5 21 7 25 2 9 -9 10 -194 2 -841 -3 -264 -4
-446 -2 -405 2 43 9 78 16 82 9 6 8 8 -2 8 -11 0 -12 22 -7 123 3 67 9 300 12
517 3 217 10 402 15 410 5 9 9 -35 9 -109 0 -139 11 -153 21 -28 5 66 6 50 7
-85 2 -165 -2 -203 -19 -192 -5 3 -9 -2 -9 -10 0 -9 4 -16 8 -16 4 0 8 -19 9
-43 1 -31 -1 -37 -7 -22 -7 16 -9 17 -9 3 -1 -9 3 -19 8 -23 13 -8 9 -378 -5
-396 -5 -8 -11 -43 -13 -79 -5 -121 -19 -212 -32 -221 -9 -5 -15 -36 -17 -89
-2 -44 -8 -77 -13 -74 -5 3 -7 10 -4 15 4 5 1 9 -4 9 -6 0 -11 -18 -11 -40 0
-29 -4 -40 -15 -40 -8 0 -15 6 -15 13 0 6 -3 23 -7 36 -4 18 -3 22 6 16 10 -6
10 -2 0 16 -13 23 -14 22 -22 -29 -5 -28 -13 -52 -18 -52 -6 0 -7 -4 -4 -10 3
-5 0 -10 -7 -10 -7 0 -24 -3 -37 -7 -17 -4 -22 -3 -17 5 4 7 3 12 -2 12 -6 0
-13 -7 -16 -16 -5 -12 -13 -14 -34 -9 -15 4 -23 3 -19 -1 4 -5 -16 -14 -45
-20 -29 -7 -54 -11 -56 -10 -1 2 -3 40 -4 84 -2 77 -8 96 -23 72 -12 -20 -16
-153 -5 -160 6 -4 -14 -12 -46 -18 -32 -7 -60 -10 -63 -7 -3 3 -4 30 -3 60 1
32 -2 55 -8 55 -5 0 -11 -20 -12 -45 -1 -25 -2 -53 -2 -62 -1 -18 -52 -33
-163 -49 -49 -7 -63 9 -43 46 9 18 9 24 0 30 -7 4 -10 12 -6 18 9 15 -5 93
-15 86 -5 -3 -9 -42 -10 -87 0 -93 -8 -120 -27 -108 -7 4 -12 12 -11 17 5 29
-2 124 -10 124 -5 0 -12 -29 -16 -64 -9 -81 -15 -92 -44 -74 -16 10 -21 21
-19 44 1 18 -3 38 -9 45 -6 8 -13 28 -16 44 -3 22 -4 18 -6 -16 0 -25 -4 -67
-7 -93 l-7 -46 224 0 c229 0 282 5 257 22 -9 6 -6 7 10 3 13 -4 28 -2 35 3 16
13 135 35 153 28 8 -3 14 -1 14 5 0 6 5 7 12 3 7 -4 8 -3 4 4 -7 12 32 38 42
28 3 -3 -1 -6 -8 -6 -7 0 -11 -2 -8 -5 3 -3 20 1 39 9 19 7 39 11 46 9 7 -2
21 1 32 7 12 6 21 7 21 1 0 -5 -6 -12 -12 -14 -8 -4 -7 -6 3 -6 9 -1 19 9 23
22 7 27 23 8 21 -25 -1 -20 -14 -24 -111 -45 -142 -29 -185 -41 -157 -42 23
-1 91 12 183 34 30 7 88 17 128 20 39 4 72 11 72 16 0 5 -10 9 -22 10 -22 0
-22 1 2 10 13 6 36 7 50 4 19 -4 22 -3 10 5 -11 8 -1 10 40 9 30 -1 71 4 90
10 l35 10 -37 -2 c-21 -2 -38 0 -38 3 0 4 -31 6 -70 5 -39 -1 -70 2 -70 8 0 5
-7 7 -15 3 -17 -6 -20 20 -5 44 9 13 10 13 10 0 0 -12 2 -12 9 -1 6 9 11 10
15 2 5 -8 16 -5 36 9 35 25 187 41 199 21 6 -9 11 -9 19 2 10 12 2 14 -45 16
-65 2 -105 24 -43 23 3 0 16 -3 29 -7 16 -5 21 -4 17 3 -4 8 13 11 51 9 53 -1
254 8 406 18 34 2 76 5 92 5 26 1 27 3 10 10 -16 7 -17 9 -3 9 9 1 19 -3 23
-8 7 -12 148 -2 156 11 3 4 347 6 770 3 l764 -6 80 30 c44 16 125 43 180 61
55 18 108 36 117 41 10 5 24 9 32 9 7 0 35 9 62 19 49 19 82 30 224 75 74 24
149 50 203 70 15 6 27 15 27 20 0 4 -7 6 -15 2 -9 -3 -15 0 -15 8 0 11 69 47
135 70 15 5 16 9 6 15 -9 6 -11 19 -6 42 4 19 4 31 0 27 -5 -4 -11 -25 -14
-45 -5 -31 -11 -38 -28 -37 -12 0 -20 -3 -18 -6 6 -10 -73 -35 -82 -27 -4 4
-9 187 -11 407 -4 386 -4 400 14 400 16 0 17 2 4 10 -24 16 -3 12 107 -20 57
-16 106 -30 108 -30 3 0 5 -20 5 -45 0 -31 5 -47 15 -51 17 -7 21 -74 5 -74
-6 0 -10 -93 -10 -260 l0 -259 -27 -15 c-27 -15 -27 -15 -5 -16 13 0 20 -4 17
-10 -3 -5 0 -10 9 -10 8 0 16 3 18 8 2 4 37 20 78 36 41 16 81 36 88 45 13 16
29 21 82 25 25 3 35 8 34 20 -2 15 22 19 138 19 10 0 14 5 11 13 -3 9 2 14 16
14 22 0 25 7 15 35 -5 13 -8 14 -15 3 -7 -10 -9 -9 -9 5 0 9 6 17 13 17 8 0 9
3 1 8 -15 10 -19 143 -4 152 8 5 7 9 -4 13 -12 5 -16 0 -17 -16 -2 -44 -9 -90
-14 -95 -3 -3 -6 21 -7 54 -2 78 -2 81 -11 90 -4 4 -7 -32 -7 -80 0 -63 4 -91
15 -102 11 -12 12 -20 3 -39 -6 -14 -15 -25 -20 -25 -8 0 -10 7 -12 44 -1 14
-9 20 -33 22 -38 3 -39 1 -16 -22 13 -13 14 -19 5 -22 -7 -2 -19 -10 -27 -19
-8 -8 -16 -13 -17 -11 -1 2 -4 81 -7 176 -5 138 -3 172 7 172 8 0 10 -5 6 -13
-4 -7 -2 -7 7 2 11 10 11 15 1 18 -6 3 -12 11 -12 19 0 10 8 7 25 -11 14 -14
30 -25 35 -25 5 0 11 -8 13 -17 3 -13 5 -11 7 7 1 14 2 28 1 33 0 4 7 7 17 7
23 0 38 -36 36 -87 -2 -61 12 -44 20 24 4 31 11 62 16 69 15 17 -34 33 -102
33 -31 -1 -67 3 -80 7 -21 6 -22 6 -8 -11 8 -11 10 -16 3 -12 -7 5 -12 1 -12
-10 0 -25 -6 -51 -14 -59 -4 -4 -7 0 -7 10 0 9 -5 14 -10 11 -6 -4 -7 -11 -4
-17 4 -7 2 -8 -4 -4 -7 4 -12 18 -12 32 0 27 -20 34 -21 7 -1 -26 -28 36 -29
66 0 20 4 22 23 17 12 -4 39 -9 60 -12 34 -5 37 -3 37 21 0 14 -5 25 -11 25
-5 0 -7 -4 -4 -10 8 -12 3 -12 -64 4 -30 7 -56 17 -58 23 -3 8 12 7 48 -2 29
-8 55 -13 57 -10 2 2 -24 11 -57 21 l-61 17 0 99 c0 64 -4 97 -10 93 -13 -8
-13 11 0 36 7 13 7 19 0 19 -5 0 -10 19 -10 43 0 31 3 38 10 27 9 -13 16 174
10 249 -2 21 4 18 62 -29 78 -64 88 -80 88 -152 0 -55 1 -58 25 -58 16 0 25 6
25 15 0 8 8 15 18 15 28 0 52 32 52 68 0 38 -20 50 -84 55 -32 2 -53 10 -69
25 -12 12 -41 36 -63 52 -39 26 -78 82 -67 94 10 9 13 125 4 131 -6 3 -10 76
-10 172 -1 157 -8 202 -31 188 -5 -3 -7 17 -6 45 2 27 -1 47 -6 44 -5 -3 -7
-2 -6 3 3 9 -60 143 -67 143 -2 0 -4 -99 -5 -221 0 -187 -3 -224 -16 -243 -15
-19 -16 -19 -9 -1 14 35 18 424 5 439 -12 16 -23 113 -14 128 3 5 12 3 22 -4
14 -12 14 -10 2 11 -12 24 -13 24 -26 6 -8 -10 -14 -14 -14 -9 0 6 5 15 11 21
7 7 -4 37 -40 102 -74 132 -111 188 -111 169 0 -9 5 -20 10 -23 14 -8 -6 -35
-25 -35 -10 0 -14 -21 -14 -79 0 -43 -5 -89 -10 -103 -5 -13 -6 -42 -2 -65 5
-22 7 -51 5 -64 -1 -13 -3 -49 -4 -79 -2 -50 -3 -52 -9 -20 -12 60 -13 587 -2
570 6 -8 8 -24 6 -35 -3 -11 -2 -14 1 -7 5 10 12 6 26 -15 23 -33 22 -28 -17
54 -17 34 -35 61 -41 59 -6 -2 -24 19 -41 47 -17 29 -66 111 -109 182 -44 72
-86 141 -94 155 -8 14 -39 62 -67 107 -29 45 -53 86 -53 91 0 5 -20 40 -45 78
-24 38 -45 61 -45 52 0 -10 -6 -18 -14 -18 -8 0 -22 -3 -31 -6 -9 -4 -15 -3
-14 2 1 5 1 16 0 24 -1 11 -3 12 -9 3 -5 -8 -46 -14 -112 -17 -58 -2 -161 -8
-230 -12 -104 -5 -123 -4 -112 7 20 21 14 29 -22 29 -22 0 -36 -6 -40 -16 -5
-13 -1 -15 19 -12 14 3 25 1 25 -3 0 -5 -13 -9 -30 -9 -16 0 -33 0 -37 0 -5 0
-9 5 -9 10 -1 6 -2 15 -3 20 0 6 -8 10 -16 10 -8 0 -15 -4 -15 -10 0 -5 -13
-10 -29 -10 -17 0 -33 5 -36 10 -3 6 -11 10 -16 10 -6 0 -7 -5 -4 -10 3 -5 -1
-10 -9 -10 -9 0 -16 -7 -16 -15 0 -11 -11 -15 -47 -14 -27 1 -40 3 -30 6 18 5
24 43 7 43 -5 0 -10 -6 -10 -12 0 -16 -74 -53 -88 -44 -6 3 -13 2 -16 -3 -7
-10 -53 -8 -64 3 -3 4 0 11 7 15 9 6 10 11 2 15 -6 4 -9 12 -6 17 4 5 1 9 -4
9 -7 0 -11 -55 -12 -162 0 -148 -2 -160 -14 -128 -9 22 -14 81 -14 163 -1 70
-4 127 -8 127 -5 0 -7 -41 -5 -91 4 -102 -3 -152 -19 -128 -5 7 -9 60 -9 117
l0 102 -25 0 -25 0 -1 -127 c-2 -148 -16 -124 -18 30 0 53 -5 97 -9 97 -4 0
-8 -28 -8 -62 0 -137 -4 -183 -14 -168 -8 13 -10 12 -10 -2 0 -10 -4 -18 -10
-18 -6 0 -10 -48 -10 -125 0 -81 -4 -125 -11 -125 -5 0 -7 5 -4 10 3 6 1 10
-4 10 -6 0 -11 -4 -11 -10 0 -15 -37 -12 -52 4 -11 11 -14 11 -24 -2 -9 -12
-11 -11 -10 8 1 13 -6 25 -14 27 -11 3 -11 2 -3 -4 8 -5 9 -14 3 -23 -5 -8
-12 -11 -16 -7 -8 8 -14 159 -14 370 l0 117 -90 0 -90 0 -2 -82 c0 -46 -3 -67
-6 -48 -5 33 -5 34 -12 10 -6 -20 -8 -15 -10 25 -3 48 -3 49 -10 15 l-7 -35
-3 30 c-1 18 -4 23 -7 13 -2 -10 -9 -18 -14 -18 -5 0 -9 -7 -9 -15 0 -8 -4
-15 -8 -15 -11 0 -12 62 0 76 4 6 6 19 2 28 -5 12 -20 16 -71 16 -55 0 -64 -2
-59 -16 3 -8 2 -12 -4 -9 -6 3 -10 1 -10 -4 0 -6 -7 -11 -15 -11 -8 0 -15 6
-15 13 0 8 -4 7 -10 -3 -8 -12 -10 -11 -10 8 l0 22 -219 0 c-201 0 -220 -2
-224 -17 -4 -17 -5 -17 -6 0 -1 15 -14 17 -130 17 l-128 0 3 -27 c1 -15 10
-33 19 -39 13 -10 14 -18 6 -46 -5 -18 -10 -25 -10 -15 -1 23 -72 24 -106 1
-20 -13 -28 -14 -40 -4 -11 9 -15 10 -15 1 0 -7 -11 -11 -27 -9 -22 2 -29 10
-36 41 -5 20 -12 37 -16 37 -4 0 -6 14 -5 30 1 17 -2 30 -7 30 -5 0 -9 -13 -9
-30 0 -41 -27 -39 -45 3 -8 18 -14 24 -15 15 0 -11 -5 -15 -15 -12 -8 4 -12
10 -9 15 3 5 0 9 -5 9 -6 0 -11 -16 -11 -35 0 -28 -4 -35 -20 -35 -13 0 -22 9
-26 28 -10 47 -12 48 -13 7 -1 -37 3 -42 55 -79 30 -21 53 -40 50 -43 -2 -3
-18 5 -35 18 -32 24 -46 22 -35 -4 3 -9 11 -14 19 -11 7 3 15 -2 18 -10 4 -9
13 -13 20 -10 9 3 17 -4 21 -18 5 -14 9 -18 13 -10 7 18 20 15 26 -8 4 -14 10
-18 23 -13 13 5 16 3 11 -10 -7 -18 8 -33 18 -17 4 6 11 7 17 4 6 -4 5 -10 -3
-16 -10 -7 -6 -8 14 -5 19 3 27 0 27 -10 0 -10 6 -12 20 -8 14 5 20 2 20 -9 0
-9 7 -16 15 -16 8 0 15 -7 15 -16 0 -11 6 -14 20 -9 15 5 20 2 20 -10 0 -11 5
-15 15 -11 9 3 15 0 15 -10 0 -11 6 -14 16 -10 10 4 15 0 13 -12 -1 -9 -1 -35
0 -57 1 -30 4 -36 11 -25 5 8 10 28 10 44 0 22 3 27 11 19 7 -7 11 -131 12
-387 1 -207 5 -376 9 -376 4 0 9 4 13 10 3 5 12 7 19 4 10 -4 12 26 9 158 -2
90 -5 267 -6 393 l-2 230 -25 2 c-14 0 -31 1 -38 2 -7 1 -10 6 -6 12 4 7 1 10
-7 7 -8 -3 -43 14 -79 37 -36 23 -84 52 -107 63 -40 21 -46 33 -29 61 7 11 3
13 -17 9 -16 -3 -31 0 -39 9 -9 12 0 14 65 12 42 -2 74 -6 71 -11 -3 -4 -13
-8 -22 -8 -11 0 -13 -3 -5 -11 15 -15 48 -7 48 10 0 8 6 16 14 19 8 3 11 0 7
-7 -4 -6 -3 -11 3 -11 5 0 13 5 16 10 3 6 11 10 17 10 7 0 6 -6 -2 -15 -7 -8
-11 -15 -9 -16 39 -7 49 -7 49 1 0 6 -5 10 -11 10 -5 0 -7 5 -4 11 9 13 30 6
30 -11 0 -23 26 -23 32 -1 7 28 23 27 23 -2 0 -25 38 -63 58 -59 6 2 12 -5 12
-14 0 -10 5 -14 15 -10 9 3 15 0 15 -9 0 -9 6 -12 15 -9 9 4 15 0 15 -10 0
-10 6 -13 15 -10 9 4 15 0 15 -10 0 -10 6 -13 15 -10 10 4 15 0 15 -11 0 -9 5
-15 11 -13 22 7 4 25 -84 83 -50 33 -93 67 -95 75 -4 13 -2 12 14 -1 10 -9 68
-50 128 -90 60 -41 136 -93 170 -117 33 -24 78 -54 99 -68 20 -13 37 -27 37
-29 0 -6 -73 39 -110 67 -30 23 -130 88 -136 88 -2 0 -4 -9 -4 -20 0 -13 5
-18 15 -14 8 4 15 1 15 -6 0 -6 5 -8 10 -5 6 3 10 -1 10 -10 0 -11 5 -15 15
-11 10 4 15 -1 15 -14 0 -11 5 -20 11 -20 5 0 7 5 4 10 -3 6 -1 10 4 10 6 0
11 -10 11 -22 0 -19 2 -20 10 -8 8 12 11 11 16 -8 5 -18 9 -20 15 -10 6 9 9 3
10 -17 0 -24 2 -26 8 -11 5 14 10 16 15 8 4 -7 4 -16 1 -22 -3 -5 -2 -10 4
-10 5 0 12 8 14 18 4 13 5 11 6 -5 1 -25 16 -31 24 -10 3 6 5 -26 5 -73 -1
-47 -3 -69 -5 -50 -9 75 -23 52 -25 -40 l-2 -95 -6 70 c-5 59 -7 63 -9 25 -2
-42 -3 -44 -14 -20 -10 23 -12 19 -17 -40 -6 -64 -6 -65 -11 -20 -4 29 -7 4
-9 -70 l-3 -115 -12 110 -12 110 -3 -150 -4 -150 -5 115 c-5 90 -8 106 -13 75
-4 -22 -9 -78 -10 -125 l-2 -85 -6 110 -6 110 -3 -145 c-1 -80 -5 -140 -7
-134 -3 6 -8 69 -13 140 l-8 129 -3 -170 -3 -170 -12 135 -13 135 4 -132 c2
-81 0 -133 -6 -133 -5 0 -11 30 -13 68 l-3 67 -2 -72 c-2 -87 -19 -97 -25 -15
l-3 57 -2 -57 c-2 -54 -14 -75 -25 -45 -4 10 -6 10 -6 0 -1 -18 -322 -18 -339
-1 -9 9 -12 9 -12 0 0 -7 -12 -11 -28 -10 -25 2 -28 6 -28 37 0 19 -5 36 -12
39 -7 2 -12 10 -12 17 0 8 -5 17 -12 21 -6 4 -8 3 -4 -4 3 -6 2 -13 -2 -16 -5
-3 -7 -26 -5 -51 l5 -45 -34 -1 c-18 -1 -37 0 -43 1 -5 1 -29 2 -52 1 l-43 0
-2 192 c0 106 0 229 2 275 3 95 -7 111 -70 112 -21 0 -63 16 -105 39 -152 84
-145 75 -144 176 0 40 3 53 8 40 7 -18 8 22 2 277 l-1 67 -80 0 -80 0 0 -99
c0 -69 -4 -100 -12 -103 -10 -4 -10 -8 -1 -14 7 -5 13 -45 15 -99 l3 -90 -27
15 c-23 13 -26 22 -27 66 0 30 7 60 16 75 15 23 15 24 0 11 -15 -12 -17 -10
-18 25 0 22 -2 55 -4 74 -1 19 -3 59 -4 88 l-1 52 -35 0 -34 0 6 -170 6 -169
-30 11 c-25 9 -30 17 -30 42 0 17 0 88 -1 159 l-2 127 -40 0 -39 0 5 -132 c3
-73 8 -137 11 -142 3 -5 0 -6 -8 -4 -9 3 -14 18 -13 41 1 25 -3 37 -12 37 -8
0 -11 -6 -8 -15 4 -8 1 -15 -5 -15 -6 0 -11 9 -11 20 0 11 7 20 15 20 8 0 15
7 15 15 0 8 -5 15 -11 15 -5 0 -7 -4 -4 -10 3 -5 1 -10 -6 -10 -8 0 -9 10 -5
31 3 17 1 39 -4 49 -7 13 -6 20 3 23 9 4 9 6 0 6 -8 1 -13 15 -13 36 l0 35
-145 0 -145 0 0 -72z m3834 -30 c-3 -5 -16 -13 -28 -18 -18 -8 -17 -9 12 -9
26 -1 32 3 32 19 0 11 7 20 16 20 9 0 12 -5 8 -12 -6 -10 -4 -10 7 0 18 16 48
17 31 0 -18 -18 -14 -30 7 -23 11 3 22 1 26 -5 4 -7 18 -9 32 -5 17 4 32 0 43
-10 18 -16 18 -15 14 7 -5 21 -4 21 18 -6 13 -16 37 -53 53 -82 29 -50 102
-167 221 -354 30 -47 73 -116 97 -155 l42 -70 -4 -420 c-1 -231 -4 -421 -6
-423 -3 -3 -68 62 -175 176 -19 20 -53 51 -74 67 -21 17 -66 55 -98 85 -66 60
-88 76 -88 61 0 -5 -9 -7 -20 -4 -12 3 -29 -2 -40 -12 -18 -16 -23 -17 -46 -5
-21 12 -29 12 -53 -3 -17 -10 -50 -17 -80 -17 -45 0 -51 2 -51 21 0 22 -1 22
-215 17 -152 -4 -216 -2 -219 6 -2 6 -5 -4 -5 -21 -1 -26 -6 -34 -25 -39 -33
-8 -79 1 -110 21 -26 17 -28 17 -50 -4 -28 -26 -46 -27 -46 -1 0 15 -7 20 -25
20 l-25 0 -1 353 c0 193 -3 447 -5 564 -2 121 0 214 5 217 5 3 11 -3 14 -14 3
-13 10 -18 21 -14 9 4 16 1 16 -6 0 -9 6 -8 18 3 10 10 24 17 32 17 10 0 10 3
0 15 -13 16 -15 15 40 20 33 3 274 15 470 23 85 4 170 8 187 9 19 0 30 -3 27
-9z m-2776 -928 c-2 -110 0 -200 3 -200 4 0 3 -16 -1 -34 -4 -19 -6 -37 -4
-39 3 -2 6 -125 7 -272 2 -252 1 -268 -16 -271 -17 -2 -18 11 -12 279 3 155 6
384 6 510 0 145 3 227 10 227 6 0 9 -71 7 -200z m2870 -317 c3 -10 -16 -13
-73 -13 -54 0 -76 -3 -73 -12 5 -13 57 -18 64 -6 10 16 35 7 44 -14 7 -19 9
-20 9 -5 1 13 7 17 24 15 17 -2 23 -11 25 -36 3 -34 22 -35 22 -1 0 10 5 19
11 19 7 0 9 -10 7 -25 -3 -14 -1 -28 4 -31 5 -3 7 -11 5 -18 -2 -6 -1 -20 4
-31 5 -13 8 9 8 59 1 68 3 77 17 72 14 -5 15 -4 4 9 -60 72 142 -96 365 -304
33 -31 62 -65 64 -76 2 -11 5 -167 8 -348 3 -247 7 -326 16 -320 7 3 5 -2 -4
-13 -9 -10 -14 -24 -12 -31 11 -31 -12 -26 -192 42 -38 15 -90 33 -115 40 -25
7 -68 22 -97 33 -31 12 -53 16 -55 10 -3 -7 -131 -10 -373 -9 -328 2 -367 0
-356 -13 7 -8 10 -20 6 -25 -8 -14 -45 9 -39 24 3 8 -19 11 -78 9 -54 -1 -86
2 -90 10 -5 7 -8 6 -8 -4 0 -19 -39 -24 -45 -7 -2 7 -6 103 -9 215 -5 174 -3
202 9 202 8 0 15 4 15 10 0 5 -6 9 -12 7 -19 -3 -25 508 -7 519 7 4 14 3 17
-4 2 -6 10 -8 18 -5 8 3 14 -1 14 -8 0 -10 3 -10 12 -1 7 7 20 12 30 12 25 0
22 17 -4 24 -65 16 23 26 322 34 426 11 492 10 498 -5z m782 -517 c0 -6 -14 3
-32 20 -29 26 -28 25 5 -14 20 -23 37 -50 37 -60 0 -9 31 -50 69 -90 68 -73
68 -74 60 -115 -11 -56 -11 -59 1 -52 6 4 9 -22 9 -72 l-2 -78 -7 55 c-4 30
-12 70 -18 88 -6 17 -8 32 -5 32 3 0 0 7 -7 15 -10 12 -9 15 6 15 13 0 15 3 7
11 -6 6 -9 17 -7 24 6 14 -23 41 -33 31 -3 -3 -2 -6 3 -6 8 0 9 -38 4 -115 -4
-48 -16 33 -14 87 2 35 -2 60 -9 66 -9 8 -11 -16 -9 -101 2 -61 1 -109 -2
-107 -3 3 -6 26 -7 50 -3 56 -11 73 -19 40 -4 -14 -12 -24 -18 -22 -7 1 -13
-7 -13 -18 -1 -18 -3 -25 -8 -47 -2 -5 -2 -42 -3 -83 0 -66 -1 -70 -8 -35 -5
22 -9 72 -10 110 0 41 -7 80 -15 95 -14 24 -14 23 -15 -27 0 -28 -4 -54 -9
-57 -9 -6 -24 30 -22 52 1 6 -5 12 -14 12 -13 0 -15 19 -15 122 0 67 -3 119
-6 115 -3 -3 -6 -59 -7 -124 0 -90 -2 -105 -7 -63 l-7 55 -1 -63 c-1 -40 2
-61 8 -57 6 3 10 -4 10 -16 0 -21 0 -21 -20 4 -11 14 -21 33 -22 44 -1 10 -4
-11 -8 -47 -6 -62 -7 -60 -8 36 -2 78 -6 105 -17 114 -13 11 -16 41 -14 192 1
103 6 178 11 178 5 0 2 7 -6 16 -9 8 -16 18 -16 22 0 11 229 -222 230 -232z
m-2386 123 c3 -34 6 -88 6 -120 0 -33 4 -59 10 -59 6 0 10 43 10 110 0 91 3
110 15 110 12 0 15 -17 16 -92 0 -103 14 -95 26 14 5 47 9 58 22 56 18 -4 27
-55 37 -205 4 -62 3 -93 -4 -93 -6 0 -13 14 -17 30 -8 35 -20 39 -28 10 -6
-24 -37 -27 -37 -4 0 11 -6 13 -19 9 -11 -3 -31 -3 -45 1 l-26 6 0 144 c0 115
3 144 14 144 9 0 15 -20 20 -61z m360 55 c12 -5 15 -32 15 -162 1 -114 -2
-153 -10 -142 -8 11 -9 8 -4 -15 3 -16 9 -59 12 -94 4 -41 9 -58 14 -50 7 12
9 11 9 -1 0 -39 -13 -61 -34 -58 -21 3 -21 7 -24 266 -1 144 0 262 2 262 2 0
11 -3 20 -6z m-150 -70 c12 -4 16 -19 15 -53 -1 -25 -3 -39 -6 -30 -2 10 -13
19 -24 22 -15 4 -19 0 -19 -21 0 -14 3 -22 6 -19 4 3 15 2 25 -4 16 -8 19 -22
19 -95 l0 -84 -27 6 c-36 9 -32 3 -39 57 -5 32 -3 47 5 47 6 0 11 -6 11 -14 0
-8 7 -17 16 -20 23 -9 24 -8 24 14 0 12 -9 22 -24 26 -31 7 -52 93 -35 142 11
32 23 38 53 26z m632 -673 c-3 -5 11 -9 32 -9 133 0 192 -6 203 -18 9 -12 4
-14 -30 -14 -23 0 -40 -4 -36 -9 3 -5 40 -8 83 -7 88 3 102 0 103 -23 0 -12 2
-13 6 -2 4 11 10 8 24 -10 10 -14 17 -17 16 -9 -1 8 2 15 8 15 5 0 10 -21 11
-47 1 -50 13 -80 15 -37 0 13 2 39 2 57 1 20 10 39 21 48 20 14 20 14 0 15
-16 0 -15 2 5 10 17 7 40 6 70 -1 26 -5 81 -17 123 -25 85 -16 148 -39 148
-54 0 -5 -10 -7 -22 -4 -20 4 -19 2 5 -12 l27 -16 0 -480 c0 -318 -3 -478 -10
-474 -5 3 -10 -3 -10 -14 0 -11 -8 -22 -17 -25 -87 -25 -106 -27 -114 -14 -7
10 -9 9 -9 -5 0 -10 -4 -15 -10 -12 -5 3 -10 2 -10 -3 0 -5 -9 -12 -20 -15
-11 -3 -20 0 -20 6 0 6 -7 2 -15 -9 -14 -19 -14 -19 -15 1 0 11 4 36 10 54 7
25 6 39 -2 49 -10 12 -13 11 -19 -5 -4 -10 -5 -30 -2 -45 7 -37 -4 -78 -22
-78 -7 0 -16 12 -18 28 -4 26 -4 26 -6 -4 -1 -32 -19 -48 -38 -36 -17 11 -22
58 -25 200 -2 91 -5 125 -11 110 -12 -29 -15 -81 -6 -88 4 -3 3 -47 -2 -99 -7
-64 -7 -104 1 -124 5 -17 9 -32 7 -33 -4 -4 -45 -12 -64 -13 -7 -1 -13 -10
-13 -22 l0 -20 -30 21 c-25 18 -28 25 -19 36 9 11 8 14 -4 14 -8 0 -17 -7 -21
-15 -3 -8 -12 -15 -19 -15 -8 0 -20 -7 -28 -16 -9 -11 -22 -14 -45 -9 -20 3
-35 1 -39 -6 -8 -13 -76 -3 -86 13 -6 9 -69 1 -126 -17 -18 -6 -25 -2 -33 19
-5 14 -15 26 -22 26 -10 0 -10 -2 1 -9 7 -5 11 -14 7 -19 -10 -16 -229 -10
-250 7 -9 7 -24 10 -33 6 -10 -3 -20 -7 -23 -7 -3 -1 -20 -5 -37 -9 -22 -4
-33 -3 -34 5 0 7 -2 7 -6 -1 -8 -22 -63 -15 -95 12 -36 31 -37 31 -82 0 l-38
-25 2 32 c1 18 1 49 0 68 -1 30 -3 32 -11 15 -7 -14 -8 -5 -5 34 2 38 1 49 -6
37 -10 -17 -7 -73 7 -131 6 -25 5 -28 -6 -17 -7 6 -21 12 -30 12 -16 0 -17 16
-17 165 1 91 5 168 10 171 4 3 5 10 2 16 -4 6 -1 14 6 18 11 7 10 13 -3 33
-14 22 -16 53 -11 259 3 128 5 242 5 253 -2 73 0 104 9 135 6 19 6 36 1 39 -8
5 -15 58 -12 86 2 18 21 -20 21 -42 0 -13 5 -23 10 -23 6 0 10 15 10 33 0 38
33 64 69 54 14 -3 21 0 21 9 0 9 -11 14 -31 14 -17 0 -28 4 -24 10 4 6 110 9
283 8 152 0 293 3 312 7 19 5 42 8 52 6 9 -1 19 3 23 9 3 5 11 10 16 10 6 0 8
-4 5 -9z"/>
<path d="M3771 1125 c0 -146 2 -167 13 -152 8 10 17 14 20 9 3 -6 14 -8 24 -5
16 4 18 14 15 96 -4 114 -14 206 -20 189 -4 -10 -8 -10 -19 -1 -8 6 -14 8 -15
3 0 -5 -4 0 -9 11 -5 12 -9 -46 -9 -150z"/>
<path d="M2631 1073 c-1 -6 -11 -14 -23 -16 l-23 -4 23 -2 c21 -1 22 -5 22
-95 0 -51 3 -113 6 -138 5 -35 2 -48 -12 -63 -19 -18 -19 -17 -25 51 -3 38 -7
58 -8 44 -6 -63 -11 -84 -20 -93 -6 -6 -11 -22 -11 -37 0 -19 -3 -22 -9 -10
-6 8 -7 27 -4 44 5 25 3 28 -11 23 -13 -5 -15 -2 -11 21 4 22 4 23 -4 7 -11
-25 -14 -298 -3 -291 4 2 9 24 10 48 6 102 29 97 31 -7 1 -64 -18 -138 -26
-102 -4 16 -24 25 -22 9 5 -27 -4 -51 -18 -55 -10 -3 0 -5 22 -6 22 -1 51 -4
65 -6 22 -5 22 -4 5 4 l-20 10 20 1 c11 1 14 4 8 7 -18 7 -16 30 3 30 20 0 43
-35 46 -69 1 -15 6 -24 11 -21 5 3 6 11 3 18 -8 22 6 26 27 8 11 -10 17 -13
14 -6 -4 6 -1 13 5 16 17 6 -22 38 -39 32 -10 -3 -13 16 -13 75 0 82 12 103
30 54 6 -14 17 -32 25 -40 13 -14 15 -13 15 5 0 33 20 35 33 2 6 -17 15 -31
19 -31 4 0 7 60 6 133 -1 109 -3 126 -11 95 -9 -33 -15 -38 -39 -38 -27 0 -28
1 -28 54 0 30 -4 57 -9 60 -14 9 1 -137 16 -152 11 -11 13 -10 13 7 0 26 16
27 28 4 7 -13 4 -27 -9 -48 -19 -30 -19 -30 -19 -5 0 20 -2 22 -10 10 -8 -12
-10 -12 -10 -1 0 8 -3 11 -6 8 -4 -3 -16 -2 -26 4 -19 10 -20 19 -16 130 3 66
1 122 -3 125 -5 3 -7 39 -5 81 2 43 0 89 -5 103 -4 14 -8 20 -8 13z"/>
<path d="M4470 4010 c0 -38 4 -70 9 -70 6 0 5 -15 -1 -36 -10 -38 -6 -50 11
-39 6 3 11 24 11 46 0 29 4 39 16 39 13 0 15 -7 11 -36 -4 -26 -2 -37 10 -41
8 -3 18 -2 22 3 3 5 12 9 19 8 6 -1 21 -2 32 -3 14 -1 20 -7 18 -18 -3 -16 7
-18 85 -20 66 -1 87 2 87 12 0 17 23 25 76 25 32 0 44 4 45 15 1 8 3 20 4 25
1 6 3 20 4 33 l1 23 313 18 c171 9 363 22 426 27 62 6 124 8 137 5 17 -5 24
-2 24 9 0 18 -43 20 -169 5 -79 -8 -252 -19 -595 -37 l-128 -6 3 40 4 40 -147
2 c-127 1 -148 -1 -148 -14 0 -8 -4 -15 -10 -15 -5 0 -10 7 -10 15 0 12 -16
15 -80 15 l-80 0 0 -70z"/>
<path d="M5940 4025 c0 -37 -4 -55 -12 -55 -10 0 -10 -2 0 -9 8 -5 12 -24 10
-54 -2 -39 -7 -47 -23 -49 -11 -1 -27 -2 -35 -4 -8 -1 -23 -2 -32 -3 -14 -1
-18 -10 -18 -37 0 -26 4 -35 13 -31 8 3 20 1 28 -4 11 -7 14 -43 13 -185 -1
-96 -5 -193 -8 -215 -5 -30 -3 -39 8 -39 12 0 13 11 9 54 -7 69 4 146 21 146
11 0 13 -65 10 -352 -3 -194 -6 -385 -8 -425 -1 -40 0 -70 4 -68 5 3 3 -14 -2
-38 -15 -64 -4 -1087 12 -1117 22 -42 30 -82 19 -102 -8 -15 -7 -23 8 -34 10
-7 14 -13 8 -14 -20 0 -33 16 -40 48 -3 18 -11 30 -16 26 -5 -3 -9 7 -10 23 0
15 -3 22 -6 16 -2 -7 -12 -13 -22 -13 -10 0 -17 -8 -18 -20 -1 -14 4 -20 18
-20 17 0 19 -7 19 -60 0 -33 -4 -60 -9 -60 -5 0 -9 -10 -9 -22 0 -13 -1 -34
-2 -48 -2 -14 0 -36 4 -49 7 -21 6 -23 -10 -17 -16 5 -17 4 -4 -6 13 -11 16
-40 11 -95 0 -7 -8 -13 -17 -13 -9 0 -12 5 -8 12 5 7 2 9 -7 6 -8 -3 -36 -2
-62 2 -57 8 -64 -1 -59 -75 l4 -45 57 1 c31 1 48 3 39 6 -32 8 -19 21 20 21
l39 1 2 -52 c1 -28 3 -53 5 -55 2 -2 26 17 52 42 27 25 52 46 57 46 19 0 2
-23 -48 -66 -30 -26 -55 -53 -55 -58 0 -7 -24 -10 -65 -8 -62 4 -104 -3 -93
-13 10 -10 388 -18 388 -8 0 10 -68 23 -122 23 -20 0 -28 4 -25 13 2 6 8 11
13 11 5 -1 37 -5 72 -9 l62 -7 0 30 c0 21 -5 32 -17 34 -13 2 -17 16 -19 66
-2 57 0 62 17 57 17 -6 19 -1 19 55 0 39 -4 59 -10 55 -6 -4 -8 -11 -5 -16 4
-5 2 -9 -3 -9 -6 0 -10 34 -10 77 0 86 -11 103 -66 103 -17 0 -26 4 -21 8 6 4
17 20 25 35 12 25 16 26 26 13 17 -24 19 -20 16 29 -4 43 -3 45 22 45 19 0 26
5 26 20 0 16 -7 20 -32 21 -56 3 -103 -3 -106 -12 -6 -16 -21 -10 -21 8 0 10
-3 137 -7 283 -6 279 -7 429 -1 1125 3 419 11 590 29 601 13 8 9 -111 -4 -124
-9 -9 -9 -15 -1 -23 14 -14 36 -2 30 15 -3 7 1 23 9 37 13 24 13 24 14 2 0
-20 5 -23 45 -23 43 0 45 1 45 30 0 28 -2 30 -41 30 l-41 0 23 38 c12 20 32
48 43 60 l21 24 -74 -3 c-44 -2 -76 0 -78 6 -1 6 1 39 5 74 l7 63 68 -62 67
-62 0 30 c0 24 -14 42 -70 95 -43 39 -70 73 -70 85 0 12 -4 24 -10 27 -15 9
-12 25 5 25 8 0 15 6 15 13 0 7 18 31 40 52 36 35 46 38 41 11 -1 -5 5 -6 14
-2 9 3 21 6 26 6 5 0 9 7 9 16 0 11 -6 14 -20 9 -15 -5 -20 -2 -20 10 0 9 9
19 20 22 15 4 20 14 20 38 0 29 -3 32 -24 28 -14 -3 -27 -14 -30 -27 -3 -12
-21 -37 -41 -56 l-36 -35 3 78 3 77 -27 0 c-27 0 -28 -2 -28 -55z"/>
<path d="M4830 3191 c-23 -14 -152 -22 -144 -9 4 7 0 7 -12 0 -11 -5 -36 -8
-56 -7 l-37 3 22 -38 c12 -21 26 -36 31 -33 5 4 7 2 3 -3 -3 -5 3 -25 12 -44
32 -64 74 -135 83 -141 6 -3 8 -17 6 -29 -2 -14 3 -25 12 -27 13 -4 13 -3 0 6
-8 6 -10 11 -5 11 6 0 11 14 12 30 1 17 -2 30 -7 30 -6 0 -9 10 -9 23 0 12 0
58 -2 101 -1 44 2 81 7 83 5 2 9 -14 8 -34 -1 -24 0 -28 3 -10 2 15 8 25 13
22 5 -3 7 -16 4 -29 -2 -13 3 -29 11 -36 11 -9 15 -31 14 -79 0 -45 -3 -59 -8
-46 -5 11 -8 40 -6 63 1 24 0 40 -4 37 -7 -8 -8 -11 -9 -123 -1 -59 -6 -91
-12 -87 -25 15 2 -68 37 -115 10 -14 29 -45 41 -70 21 -39 21 -42 4 -22 l-20
22 1 -32 c2 -25 6 -33 19 -32 10 1 15 -2 12 -7 -3 -5 -1 -9 5 -9 5 0 11 8 13
18 2 12 15 0 43 -40 22 -32 44 -58 48 -58 5 0 6 6 3 13 -3 6 -9 20 -12 30 -4
9 -10 17 -14 17 -5 0 -23 19 -41 41 l-33 42 3 288 c3 302 3 304 -39 280z"/>
<path d="M117 2833 c-9 -8 -9 -295 -1 -317 4 -10 18 -16 40 -16 l35 0 -3 158
-3 157 -25 4 c-14 1 -28 7 -31 12 -3 5 -8 6 -12 2z"/>
<path d="M200 2358 l5 -133 27 3 c17 2 35 -4 45 -13 16 -16 17 -16 24 3 6 16
13 172 10 229 -1 9 -90 43 -113 43 -1 0 -1 -60 2 -132z"/>
<path d="M5270 1984 c13 -33 13 -74 0 -74 -6 0 -9 -116 -9 -309 0 -170 -1
-312 -2 -317 -1 -5 -1 -13 0 -19 4 -24 0 -313 -5 -335 -3 -14 -2 -20 3 -14 4
6 28 14 53 17 24 3 49 12 55 19 16 21 121 38 231 38 l99 0 -2 57 c-2 56 11
103 29 103 4 0 8 -7 8 -16 0 -23 31 -13 41 13 8 22 6 22 -36 16 -35 -4 -45 -3
-45 9 0 8 -7 23 -15 34 -14 18 -15 18 -8 0 4 -13 2 -17 -8 -14 -8 2 -15 21
-17 41 -3 37 1 41 38 38 12 -1 14 10 12 59 -4 57 -5 60 -28 56 -13 -3 -26 0
-29 5 -4 5 -32 8 -63 8 -31 -1 -45 -4 -29 -6 30 -5 27 -23 -4 -23 -11 0 -19
-7 -19 -16 0 -8 -4 -13 -9 -10 -4 3 -9 99 -10 213 -2 210 -6 253 -22 253 -5 0
-8 -59 -6 -135 3 -139 -10 -215 -15 -91 -4 91 -26 103 -26 14 1 -74 -4 -100
-20 -106 -13 -4 -16 10 -5 22 4 4 6 47 4 96 -3 98 3 121 25 93 12 -16 13 -8
14 65 l0 82 -75 0 -75 0 0 80 c0 73 -2 80 -20 80 -17 0 -18 -3 -10 -26z"/>
<path d="M5020 1490 c0 -48 3 -60 16 -60 11 0 14 -6 9 -21 -6 -18 -4 -19 13
-10 11 6 22 7 26 4 3 -3 6 4 6 16 0 12 4 19 10 16 6 -3 10 -15 10 -26 0 -18 2
-19 15 -5 9 9 15 33 15 64 0 61 -20 82 -78 82 l-42 0 0 -60z"/>
</g>
</svg>
