<?xml version="1.0" encoding="UTF-8"?>
<svg version="1.1" xmlns="http://www.w3.org/2000/svg" width="500" height="500">
<path d="M0 0 C165 0 330 0 500 0 C500 165 500 330 500 500 C335 500 170 500 0 500 C0 335 0 170 0 0 Z " fill="#FEFEFE" transform="translate(0,0)"/>
<path d="M0 0 C2.65089992 1.3141905 4.94774302 2.98025428 7.3125 4.75 C8.72210398 5.76118698 10.13228441 6.77157076 11.54296875 7.78125 C12.27306152 8.31105469 13.0031543 8.84085938 13.75537109 9.38671875 C17.49809118 12.07672249 21.31401208 14.65809809 25.125 17.25 C26.71634464 18.33825101 28.30748569 19.42679977 29.8984375 20.515625 C33.54683504 23.00910315 37.19844877 25.49781186 40.8515625 27.984375 C41.83366699 28.65307617 42.81577148 29.32177734 43.82763672 30.01074219 C45.72720891 31.30378431 47.62724839 32.59614032 49.52783203 33.88769531 C54.39533624 37.20101397 59.22446216 40.55534975 64 44 C60.9202133 47.28015836 57.62274517 49.80103854 53.9375 52.375 C48.17792518 56.43227148 42.47875847 60.56338731 36.8125 64.75 C36.01569824 65.3385376 35.21889648 65.9270752 34.39794922 66.53344727 C32.76056706 67.7432526 31.12336159 68.9532971 29.48632812 70.16357422 C26.98776481 72.00903703 24.48655515 73.8508509 21.984375 75.69140625 C21.16622314 76.2937207 20.34807129 76.89603516 19.50512695 77.51660156 C17.89326291 78.70169621 16.27984872 79.88468574 14.66479492 81.06542969 C11.16222031 83.63268484 7.69276031 86.21739904 4.31640625 88.94921875 C3.76911865 89.38516357 3.22183105 89.8211084 2.65795898 90.27026367 C1.24242987 91.40579802 -0.15692378 92.56141794 -1.5546875 93.71875 C-4 95 -4 95 -6.32421875 94.59375 C-10.09847914 92.34572338 -13.4933732 89.72029353 -16.9375 87 C-22.18380528 82.92084901 -27.44353599 78.89235784 -32.875 75.0625 C-40.886282 69.4030148 -48.76205855 63.56291835 -56.65039062 57.73388672 C-60.32373315 55.02315536 -64.0050991 52.32340705 -67.6875 49.625 C-68.32937256 49.15457275 -68.97124512 48.68414551 -69.63256836 48.19946289 C-71.08823765 47.13278247 -72.54409464 46.06635819 -74 45 C-69.34007707 39.74239131 -63.60537449 36.24759127 -57.75 32.4375 C-50.33970646 27.56130805 -42.97153512 22.65236342 -35.75 17.5 C-30.08667097 13.4648361 -24.40012877 9.49447347 -18.57421875 5.6953125 C-16.94711679 4.62374611 -15.34157975 3.51800409 -13.76953125 2.3671875 C-13.10308594 1.89539063 -12.43664062 1.42359375 -11.75 0.9375 C-10.93789063 0.33228516 -10.93789063 0.33228516 -10.109375 -0.28515625 C-6.63852307 -1.46138941 -3.44977325 -0.95524165 0 0 Z " fill="#010101" transform="translate(268,157)"/>
<path d="M0 0 C1.09530029 0.61625244 2.19060059 1.23250488 3.3190918 1.86743164 C3.93519821 2.21407364 4.55130463 2.56071564 5.18608093 2.91786194 C7.90642514 4.54075023 10.33353878 6.46959638 12.8125 8.4375 C18.05466608 12.54897237 23.39803674 16.49357527 28.8125 20.375 C35.23541958 24.98457264 41.60439238 29.65497927 47.9074707 34.42724609 C48.48843506 34.86633301 49.06939941 35.30541992 49.66796875 35.7578125 C50.29098877 36.27142334 50.91400879 36.78503418 51.5559082 37.31420898 C53.68411492 38.78212102 55.42944943 39.61686617 57.79370117 40.57836914 C62.63994192 42.84543375 66.34581665 45.23716221 69 50 C71.44232344 60.61394846 70.4815193 71.93803542 70.02996826 82.74108887 C69.87543687 86.82948957 69.8077912 90.91927549 69.73242188 95.00976562 C69.572395 103.01033729 69.31706297 111.00411767 69 119 C65.37843027 117.25095469 62.18776058 115.10381398 58.9375 112.75 C58.33317139 112.31526367 57.72884277 111.88052734 57.10620117 111.43261719 C49.52413267 105.96170918 42.00903201 100.39880232 34.49072266 94.84082031 C31.14683128 92.36944794 27.80075418 89.90105127 24.45361328 87.43408203 C22.83527743 86.24086127 21.21774573 85.046549 19.60107422 83.85107422 C16.23332781 81.36378439 12.86213062 78.88739883 9.43359375 76.484375 C7.95052734 75.44023437 7.95052734 75.44023437 6.4375 74.375 C5.19806641 73.52035156 5.19806641 73.52035156 3.93359375 72.6484375 C1.75060186 70.78738179 1.0316476 69.66734808 0 67 C-0.24050903 63.97540283 -0.24050903 63.97540283 -0.22705078 60.39550781 C-0.22748886 59.41439781 -0.22748886 59.41439781 -0.22793579 58.41346741 C-0.22654676 56.25988317 -0.21100608 54.10664851 -0.1953125 51.953125 C-0.19158084 50.45668731 -0.18873459 48.96024717 -0.18673706 47.46380615 C-0.1791126 43.5313641 -0.15947438 39.59907053 -0.1373291 35.66668701 C-0.11684506 31.65150969 -0.10772988 27.6363083 -0.09765625 23.62109375 C-0.0762273 15.74732781 -0.04210576 7.87368239 0 0 Z " fill="#020202" transform="translate(189,210)"/>
<path d="M0 0 C0.66 0 1.32 0 2 0 C2.13932292 8.61469503 2.24578238 17.22891558 2.31087303 25.84446049 C2.34212151 29.84552505 2.38447226 33.84581612 2.45263672 37.84643555 C2.51806592 41.71092205 2.55375478 45.57466699 2.56926346 49.43966484 C2.58030808 50.91048285 2.60187669 52.38126248 2.63438034 53.85176277 C2.90935755 66.81331856 2.90935755 66.81331856 -0.8503418 71.31005859 C-2.41703796 72.77572632 -2.41703796 72.77572632 -4 74 C-4.98355469 74.78503906 -5.96710938 75.57007813 -6.98046875 76.37890625 C-8.03878906 77.09949219 -9.09710938 77.82007813 -10.1875 78.5625 C-11.42821405 79.42154629 -12.667732 80.28232185 -13.90625 81.14453125 C-14.56625 81.60166504 -15.22625 82.05879883 -15.90625 82.52978516 C-19.71474828 85.20408281 -23.44728224 87.9814266 -27.1875 90.75 C-28.38076904 91.63099365 -28.38076904 91.63099365 -29.59814453 92.52978516 C-32.91412731 94.97813331 -36.22818931 97.42907357 -39.54199219 99.88037109 C-65.3954224 119 -65.3954224 119 -67 119 C-67.30241407 110.17697858 -67.53277344 101.3557624 -67.67355824 92.52867317 C-67.74116448 88.42870079 -67.8326769 84.33229432 -67.98071289 80.234375 C-68.12292927 76.27234379 -68.19987618 72.31371876 -68.23340416 68.3493309 C-68.25726227 66.84428125 -68.30386395 65.33940014 -68.37449074 63.83581924 C-68.88985036 52.39989414 -68.88985036 52.39989414 -65.73682213 48.39590836 C-62.20332741 44.99525354 -58.18735938 42.51601431 -54 40 C-52.43999304 38.88353471 -50.8884689 37.75483046 -49.35546875 36.6015625 C-47.96735557 35.60768322 -46.57803242 34.6154917 -45.1875 33.625 C-38.78112787 29.0294051 -32.43706145 24.36261752 -26.14306641 19.61450195 C-19.81070373 14.84190851 -13.4242463 10.143951 -7.02954102 5.45532227 C-5.87216431 4.60538696 -5.87216431 4.60538696 -4.69140625 3.73828125 C-4.00248291 3.23337158 -3.31355957 2.72846191 -2.60375977 2.20825195 C-1.04838549 1.09481167 -1.04838549 1.09481167 0 0 Z " fill="#010101" transform="translate(335,210)"/>
</svg>
