<?xml version="1.0" encoding="UTF-8"?><svg id="Layer_1" xmlns="http://www.w3.org/2000/svg" xmlns:xlink="http://www.w3.org/1999/xlink" viewBox="0 0 1080 1080"><defs><style>.cls-1{fill:url(#linear-gradient);}.cls-2{fill:#fff;}.cls-3{fill:#0c7b93;}.cls-4{fill:url(#linear-gradient-3);}.cls-5{fill:url(#linear-gradient-4);}.cls-6{fill:url(#linear-gradient-2);}.cls-7{fill:url(#linear-gradient-6);}.cls-8{fill:url(#linear-gradient-7);}.cls-9{fill:url(#linear-gradient-5);}</style><linearGradient id="linear-gradient" x1="68.16" y1="507.82" x2="250.74" y2="620.46" gradientUnits="userSpaceOnUse"><stop offset="0" stop-color="#fff"/><stop offset="1" stop-color="#087b91"/></linearGradient><linearGradient id="linear-gradient-2" x1="70.4" y1="507.91" x2="251.26" y2="619.48" gradientUnits="userSpaceOnUse"><stop offset="0" stop-color="#c1dadf"/><stop offset="1" stop-color="#087b91"/></linearGradient><linearGradient id="linear-gradient-3" x1="-794.79" y1="817.77" x2="-768.69" y2="817.77" gradientTransform="translate(-866.22 222.42) rotate(156.78) scale(1 -1)" gradientUnits="userSpaceOnUse"><stop offset="0" stop-color="#f1e9ce"/><stop offset=".33" stop-color="#9a8c79"/><stop offset=".71" stop-color="#d2c5aa"/><stop offset=".77" stop-color="#cbbea4"/><stop offset=".85" stop-color="#baab94"/><stop offset=".95" stop-color="#9d8d7b"/><stop offset="1" stop-color="#8c7b6c"/></linearGradient><linearGradient id="linear-gradient-4" x1="-865.7" y1="1036.44" x2="-828.27" y2="1036.44" gradientTransform="translate(-1074.79 245.84) rotate(146.48) scale(1 -1)" xlink:href="#linear-gradient-3"/><linearGradient id="linear-gradient-5" x1="-974.81" y1="980.65" x2="-942.32" y2="980.65" gradientTransform="translate(-1144.31 514.22) rotate(138.39) scale(1 -1)" xlink:href="#linear-gradient-3"/><linearGradient id="linear-gradient-6" x1="-950.48" y1="980.21" x2="-928.02" y2="980.21" gradientTransform="translate(-1128.45 342.92) rotate(142.24) scale(1 -1)" xlink:href="#linear-gradient-3"/><linearGradient id="linear-gradient-7" x1="-1045.58" y1="1130.92" x2="-1019.3" y2="1130.92" gradientTransform="translate(-1266.82 928.6) rotate(119.1) scale(1 -1)" xlink:href="#linear-gradient-3"/></defs><g><path class="cls-3" d="M288.98,409.76c26.32,0,27.87,14.26,27.87,37.71v165.73c0,38.03-5.81,51.65-34.45,74.47l1.16,1.58c53.42-24.72,67.35-49.43,67.35-99.5v-142.28c0-23.45,1.55-37.71,27.87-37.71v-1.9h-89.8v1.9Z"/><path class="cls-3" d="M484.45,626.83c-43.35,0-65.03-35.49-65.03-80.49,0-4.75,.39-9.51,1.16-14.26h126.57c2.32-39.93-28.64-63.38-69.29-63.38-49.93,0-91.35,37.07-91.35,89.36,0,47.21,31.35,84.29,82.83,84.29,41.03,0,64.64-22.5,78.19-41.51l-2.32-1.27c-12.39,14.58-34.06,27.25-60.77,27.25Zm-8.52-153.69c29.42,0,41.03,21.23,37.93,53.87h-92.51c5.81-29.47,24.77-53.87,54.58-53.87Z"/><path class="cls-3" d="M609.09,605.59v-214.84h-1.55l-49.55,10.14v1.9c13.16,2.85,19.74,9.51,19.74,29.79v173.02c0,20.28-1.16,31.05-17.03,31.05v1.9h65.41v-1.9c-15.87,0-17.03-10.77-17.03-31.05Z"/><path class="cls-3" d="M689.21,605.59v-136.26h-1.55l-49.55,12.68v1.9c13.16,2.85,19.74,9.51,19.74,29.79v91.9c0,20.28-1.16,31.05-17.03,31.05v1.9h65.42v-1.9c-15.87,0-17.03-10.77-17.03-31.05Z"/><path class="cls-3" d="M669.47,442.4c12,0,21.68-7.92,21.68-17.75s-9.68-17.75-21.68-17.75-22.06,7.92-22.06,17.75,9.68,17.75,22.06,17.75Z"/><path class="cls-3" d="M826.23,633.48h-71.22l149.41-224.35v-1.27h-173.41l-10.45,47.53h2.32c21.68-35.81,34.83-42.46,77.41-42.46h64.25l-149.41,224.35v1.27h183.08l8.9-53.24h-2.32c-22.84,42.46-37.55,48.17-78.58,48.17Z"/><path class="cls-3" d="M1053.06,603.38v-83.66c0-29.79-18.19-51.02-55.74-51.02-44.9,0-67.35,29.79-73.54,47.21l2.32,.95c12-19.01,30.97-33.91,56.9-33.91,39.1,0,39.1,34.54,39.1,43.73v24.4l-36.77,8.55c-46.84,11.09-68.12,26.62-68.12,49.43,0,19.65,18.58,33.27,44.9,33.27,22.06,0,45.29-10.77,61.16-26.94,.59,8.68,3.2,19.75,12.93,24.54,1.5,.74,5.86,2.82,11.45,2.4,1.93-.15,3.77-.6,5.5-1.22v-32.7c-.05-1.64-.08-3.31-.08-5.05Zm-30.97,8.87c-10.45,7.61-26.71,15.84-42.19,15.84-18.19,0-31.35-10.46-31.35-27.25,0-18.38,10.45-28.2,46.06-37.71l27.48-7.29v56.4Z"/></g><g><g><path class="cls-2" d="M254.69,594.57c0,53.26-51,96.43-113.92,96.43-15.89,0-31.02-2.75-44.76-7.73-40.66-14.72-69.16-48.9-69.16-88.7,0-53.26,113.92-205.56,113.92-205.56,0,0,0,0,0,0,.88,1.18,113.92,152.51,113.92,205.56Z"/><g><path class="cls-1" d="M140.7,394.08s0,0,0,0c-1.68,2.27-3.36,4.54-5.03,6.82,0,0-2.64,3.61-4.99,6.85-14.95,20.66-29.26,49.08-29.26,49.08-33.64,66.8-38.8,84.16-41.78,98.76-2.34,11.44-4.16,25.25,1.93,39.3,4.61,10.64,12.41,18.21,15.37,21.05,4.14,3.96,9.51,8.98,18.17,12.24,6.28,2.36,11.88,2.89,15.58,2.97,2.97-.32,8.45-1.38,11.13-5.56,2.84-4.44,1.1-10.16,.16-13.1-9.72-30.39-22.88-45.99-18.72-62.79,1.44-5.82,4.47-11.64,9.69-17.43,5.43-6.03,12.14-9.18,19.24-9.76,20.83-1.7,42.46,19.91,51.77,36.45,4.89,8.68,5,17.2-.97,25.34l-.13,.17-.22,.04c-2.33,.4-5.14-2.58-6.06-4.5l.13-.26c.32-.65,2.61-5.23,.66-5.79-2.21-.5-1.78,4.62-1.53,5.79-.52,1.94-5.74,4.24-7.91,3.44l-.09-.08c-6.27-6.33-7.87-13.95-5.72-22.49-1.89-3.47-5.22-9.01-9.34-13.74-15.59-17.88-30.22-4.72-25.69,12.72,8.86,34.07,30.85,45.98,27.66,73.22-1.68,14.34-12.24,26.97-23.16,33.25-9.24,5.31-18.71,5.69-23.78,5.94-13.26,.65-23.73-2.92-29.51-5.39-5.84-2.41-12.04-5.39-18.41-9.08-1.94-1.12-3.8-2.26-5.6-3.4,7.48,7.39,21.52,19.35,42.5,27.18,0,0,21.68,7.55,43.89,7.55,61.69,0,111.7-42.14,111.7-94.13s-110.82-199.49-111.69-200.65Zm-37.18,198.45c3.08,4.89,6.51,9.65,9.5,14.57,2.02,3.33,4.66,8.02,4.51,11.68-.21,5.1-4.93,7.17-9.74,7.45-13.42,.78-28.47-13.53-36.2-23.99-3.13-4.23-5.88-8.79-7.98-13.46l-.57-1.27,.98,1.07c1.37,1.49,4.27,4.18,6.61,5.71-6.41-6.09-8.12-13.07-7.71-21.05l.05-.93,.43,.92c1.49,3.14,3.77,7.19,6.1,9.91l.04,.04c.56,2.22,2.58,5.81,4.95,8.07-2.04-2.51-4.06-6.71-5.2-9.62-3.14-8.02-3.8-16.58,.49-22.61l.12-.17,.42,.26-.08,.19c-2.17,5.1,1.38,13.13,4.83,18.07l.03,.05v.05c.41,1.88,1.42,5.55,2.42,7.31-.47-1.13-1-3.89-1.08-4.96-.16-.79-.31-1.59-.44-2.39-.45-2.67-.7-5.35-.42-7.93,.67-6.19,4.41-10.34,9.16-13.76l1.05-.76-.65,1.11c-3.74,6.36-3.84,13.37-.36,20.99l.02,.03v.03c.73,4.28,2.76,8.11,5.62,11.6-6.26-10.77-3.45-25.88,8.53-28.4l.83-.18-.53,.59c-8.18,9.08-2.34,21.22,4.29,31.77Zm78.41-4.55c-1.96,5.66-2.85,11.91-3.26,17.87-.38,5.56-6.2,6.41-7.2,.43-1.08-6.55-2.14-13.28-2.64-19.89l-.04-.47,.47-.1c2.53-.53,5.09-1.73,6.37-4.1l.53-.99,.45,1.03c1.23,2.9,2.61,3.94,5.1,5.6l.35,.23-.14,.4Z"/><path class="cls-6" d="M252.32,594.72c0,51.99-50.01,94.13-111.7,94.13-15.58,0-30.42-2.69-43.89-7.55h0c190.6-38.2,44.79-285.73,43.9-287.23,.87,1.15,111.69,148.86,111.69,200.65Z"/></g></g><path class="cls-4" d="M161.76,667.54l6.6-4.04c.35-.22,.57-.59,.6-1l.41-7.73c.03-.48,.59-.72,.96-.41l5.89,5.03c.31,.27,.74,.36,1.14,.26l7.48-2c.47-.12,.87,.34,.69,.78l-2.96,7.15c-.16,.38-.12,.81,.11,1.16l4.21,6.5c.26,.4-.05,.93-.53,.9l-7.72-.61c-.41-.03-.81,.14-1.07,.46l-4.88,6.01c-.3,.37-.9,.24-1.02-.23l-1.81-7.53c-.1-.4-.38-.73-.77-.88l-7.23-2.78c-.45-.17-.51-.79-.09-1.04Z"/><path class="cls-5" d="M185.98,648.19l8.28-7.4c.44-.39,.66-.98,.58-1.56l-1.4-11.01c-.09-.69,.65-1.17,1.25-.83l9.59,5.59c.51,.3,1.13,.32,1.67,.07l10.04-4.74c.62-.29,1.32,.26,1.17,.93l-2.35,10.85c-.13,.58,.04,1.18,.45,1.61l7.61,8.09c.47,.5,.16,1.33-.52,1.4l-11.05,1.12c-.59,.06-1.11,.4-1.39,.92l-5.34,9.73c-.33,.61-1.22,.57-1.49-.06l-4.48-10.16c-.24-.54-.73-.93-1.31-1.04l-10.91-2.07c-.68-.13-.92-.98-.4-1.44Z"/><path class="cls-9" d="M209.13,618.2l6.21-7.37c.33-.39,.45-.92,.31-1.41l-2.53-9.28c-.16-.58,.42-1.09,.97-.86l8.91,3.61c.47,.19,1.01,.14,1.44-.14l8.05-5.3c.5-.33,1.16,.06,1.12,.65l-.7,9.6c-.04,.51,.18,1.01,.58,1.33l7.51,6c.47,.37,.3,1.12-.28,1.27l-9.35,2.32c-.5,.12-.9,.48-1.08,.96l-3.41,9.01c-.21,.56-.97,.64-1.29,.13l-5.07-8.16c-.27-.43-.74-.71-1.25-.73l-9.61-.43c-.6-.03-.9-.73-.52-1.19Z"/><path class="cls-7" d="M204.02,547.05l4.62-4.79c.25-.26,.35-.61,.28-.96l-1.33-6.53c-.08-.41,.34-.73,.71-.55l5.99,2.92c.32,.16,.69,.14,1-.03l5.8-3.28c.36-.2,.8,.09,.74,.5l-.92,6.6c-.05,.35,.08,.7,.34,.94l4.91,4.5c.31,.28,.16,.79-.25,.86l-6.56,1.16c-.35,.06-.65,.29-.79,.61l-2.76,6.06c-.17,.38-.7,.39-.9,.03l-3.13-5.88c-.17-.31-.48-.52-.83-.56l-6.62-.76c-.41-.05-.59-.55-.3-.84Z"/><path class="cls-8" d="M215.03,586.55c-.46,.14-.89-.32-.71-.77l2.77-7.29c.15-.39,.09-.82-.14-1.16l-4.43-6.41c-.28-.4,.03-.94,.51-.92l7.79,.38c.41,.02,.81-.16,1.06-.49l4.73-6.2c.29-.39,.9-.27,1.03,.2l2.04,7.52c.11,.4,.41,.72,.8,.86l7.35,2.58c.46,.16,.53,.78,.13,1.04l-6.53,4.27c-.35,.23-.56,.61-.57,1.02l-.19,7.79c-.01,.49-.57,.75-.95,.44l-6.07-4.89c-.32-.26-.75-.34-1.15-.23l-7.47,2.23Z"/></g></svg>