<?xml version="1.0" encoding="UTF-8" standalone="no"?>
<!DOCTYPE svg PUBLIC "-//W3C//DTD SVG 1.1//EN"
 "http://www.w3.org/Graphics/SVG/1.1/DTD/svg11.dtd">
<!-- Generated by graphviz version 2.47.0 (20210316.0004)
 -->
<!-- Title: dependencies Pages: 1 -->
<svg width="945pt" height="287pt"
 viewBox="0.00 0.00 945.00 287.00" xmlns="http://www.w3.org/2000/svg" xmlns:xlink="http://www.w3.org/1999/xlink">
<g id="graph0" class="graph" transform="scale(1 1) rotate(0) translate(4 283)">
<title>dependencies</title>
<polygon fill="white" stroke="transparent" points="-4,4 -4,-283 941,-283 941,4 -4,4"/>
<text text-anchor="start" x="447.51" y="-42.4" font-family="Times-12" font-weight="bold" font-size="14.00">Legend</text>
<polygon fill="#ffffb3" stroke="transparent" points="234.5,-10 234.5,-30 254.5,-30 254.5,-10 234.5,-10"/>
<text text-anchor="start" x="258.13" y="-15.4" font-family="Times-12" font-size="14.00"> &#160;Declarations</text>
<polygon fill="#8dd3c7" stroke="transparent" points="347.5,-10 347.5,-30 367.5,-30 367.5,-10 347.5,-10"/>
<text text-anchor="start" x="371.23" y="-15.4" font-family="Times-12" font-size="14.00"> &#160;Module</text>
<polygon fill="#80b1d3" stroke="transparent" points="433.5,-10 433.5,-30 453.5,-30 453.5,-10 433.5,-10"/>
<text text-anchor="start" x="457.28" y="-15.4" font-family="Times-12" font-size="14.00"> &#160;Bootstrap</text>
<polygon fill="#fdb462" stroke="transparent" points="530.5,-10 530.5,-30 550.5,-30 550.5,-10 530.5,-10"/>
<text text-anchor="start" x="554.17" y="-15.4" font-family="Times-12" font-size="14.00"> &#160;Providers</text>
<polygon fill="#fb8072" stroke="transparent" points="626.5,-10 626.5,-30 646.5,-30 646.5,-10 626.5,-10"/>
<text text-anchor="start" x="650.23" y="-15.4" font-family="Times-12" font-size="14.00"> &#160;Exports</text>
<g id="clust1" class="cluster">
<title>cluster_AppModule</title>
<polygon fill="none" stroke="black" stroke-dasharray="1,5" points="8,-146 8,-271 574,-271 574,-146 8,-146"/>
</g>
<g id="clust3" class="cluster">
<title>cluster_AppModule_imports</title>
<polygon fill="none" stroke="black" points="154,-154 154,-206 566,-206 566,-154 154,-154"/>
</g>
<g id="clust6" class="cluster">
<title>cluster_AppModule_providers</title>
<polygon fill="none" stroke="black" points="16,-154 16,-206 146,-206 146,-154 16,-154"/>
</g>
<g id="clust7" class="cluster">
<title>cluster_ResourceModule</title>
<polygon fill="none" stroke="black" stroke-dasharray="1,5" points="61,-70 61,-138 245,-138 245,-70 61,-70"/>
</g>
<g id="clust12" class="cluster">
<title>cluster_ResourceModule_providers</title>
<polygon fill="none" stroke="black" points="69,-78 69,-130 237,-130 237,-78 69,-78"/>
</g>
<g id="clust13" class="cluster">
<title>cluster_SpecificationLabelModule</title>
<polygon fill="none" stroke="black" stroke-dasharray="1,5" points="671,-70 671,-206 929,-206 929,-70 671,-70"/>
</g>
<g id="clust18" class="cluster">
<title>cluster_SpecificationLabelModule_providers</title>
<polygon fill="none" stroke="black" points="679,-78 679,-130 921,-130 921,-78 679,-78"/>
</g>
<g id="clust19" class="cluster">
<title>cluster_UserPrivateModule</title>
<polygon fill="none" stroke="black" stroke-dasharray="1,5" points="253,-70 253,-138 457,-138 457,-70 253,-70"/>
</g>
<g id="clust24" class="cluster">
<title>cluster_UserPrivateModule_providers</title>
<polygon fill="none" stroke="black" points="261,-78 261,-130 449,-130 449,-78 261,-78"/>
</g>
<g id="clust25" class="cluster">
<title>cluster_UserPublicModule</title>
<polygon fill="none" stroke="black" stroke-dasharray="1,5" points="465,-70 465,-138 663,-138 663,-70 465,-70"/>
</g>
<g id="clust30" class="cluster">
<title>cluster_UserPublicModule_providers</title>
<polygon fill="none" stroke="black" points="473,-78 473,-130 655,-130 655,-78 473,-78"/>
</g>
<!-- ResourceModule -->
<g id="node1" class="node">
<title>ResourceModule</title>
<polygon fill="#8dd3c7" stroke="black" points="273.64,-198 270.64,-202 249.64,-202 246.64,-198 162.36,-198 162.36,-162 273.64,-162 273.64,-198"/>
<text text-anchor="middle" x="218" y="-175.8" font-family="Times,serif" font-size="14.00">ResourceModule</text>
</g>
<!-- AppModule -->
<g id="node4" class="node">
<title>AppModule</title>
<polygon fill="#8dd3c7" stroke="black" points="327.66,-263 324.66,-267 303.66,-267 300.66,-263 244.34,-263 244.34,-227 327.66,-227 327.66,-263"/>
<text text-anchor="middle" x="286" y="-240.8" font-family="Times,serif" font-size="14.00">AppModule</text>
</g>
<!-- ResourceModule&#45;&gt;AppModule -->
<g id="edge1" class="edge">
<title>ResourceModule&#45;&gt;AppModule</title>
<path fill="none" stroke="black" d="M258.99,-198.11C258.99,-198.11 258.99,-216.99 258.99,-216.99"/>
<polygon fill="black" stroke="black" points="255.49,-216.99 258.99,-226.99 262.49,-216.99 255.49,-216.99"/>
</g>
<!-- UserPrivateModule -->
<g id="node2" class="node">
<title>UserPrivateModule</title>
<polygon fill="#8dd3c7" stroke="black" points="417.63,-198 414.63,-202 393.63,-202 390.63,-198 292.37,-198 292.37,-162 417.63,-162 417.63,-198"/>
<text text-anchor="middle" x="355" y="-175.8" font-family="Times,serif" font-size="14.00">UserPrivateModule</text>
</g>
<!-- UserPrivateModule&#45;&gt;AppModule -->
<g id="edge2" class="edge">
<title>UserPrivateModule&#45;&gt;AppModule</title>
<path fill="none" stroke="black" d="M310.01,-198.11C310.01,-198.11 310.01,-216.99 310.01,-216.99"/>
<polygon fill="black" stroke="black" points="306.51,-216.99 310.01,-226.99 313.51,-216.99 306.51,-216.99"/>
</g>
<!-- UserPublicModule -->
<g id="node3" class="node">
<title>UserPublicModule</title>
<polygon fill="#8dd3c7" stroke="black" points="557.75,-198 554.75,-202 533.75,-202 530.75,-198 436.25,-198 436.25,-162 557.75,-162 557.75,-198"/>
<text text-anchor="middle" x="497" y="-175.8" font-family="Times,serif" font-size="14.00">UserPublicModule</text>
</g>
<!-- UserPublicModule&#45;&gt;AppModule -->
<g id="edge3" class="edge">
<title>UserPublicModule&#45;&gt;AppModule</title>
<path fill="none" stroke="black" d="M497,-198.11C497,-217.34 497,-245 497,-245 497,-245 337.69,-245 337.69,-245"/>
<polygon fill="black" stroke="black" points="337.69,-241.5 327.69,-245 337.69,-248.5 337.69,-241.5"/>
</g>
<!-- AppService -->
<g id="node5" class="node">
<title>AppService</title>
<ellipse fill="#fdb462" stroke="black" cx="81" cy="-180" rx="56.74" ry="18"/>
<text text-anchor="middle" x="81" y="-175.8" font-family="Times,serif" font-size="14.00">AppService</text>
</g>
<!-- AppService&#45;&gt;AppModule -->
<g id="edge4" class="edge">
<title>AppService&#45;&gt;AppModule</title>
<path fill="none" stroke="black" d="M81,-198.11C81,-217.34 81,-245 81,-245 81,-245 234.02,-245 234.02,-245"/>
<polygon fill="black" stroke="black" points="234.02,-248.5 244.02,-245 234.02,-241.5 234.02,-248.5"/>
</g>
<!-- ResourceService -->
<g id="node6" class="node">
<title>ResourceService</title>
<ellipse fill="#fdb462" stroke="black" cx="153" cy="-104" rx="75.84" ry="18"/>
<text text-anchor="middle" x="153" y="-99.8" font-family="Times,serif" font-size="14.00">ResourceService</text>
</g>
<!-- ResourceService&#45;&gt;ResourceModule -->
<g id="edge5" class="edge">
<title>ResourceService&#45;&gt;ResourceModule</title>
<path fill="none" stroke="black" d="M195.55,-119.02C195.55,-119.02 195.55,-151.8 195.55,-151.8"/>
<polygon fill="black" stroke="black" points="192.05,-151.8 195.55,-161.8 199.05,-151.8 192.05,-151.8"/>
</g>
<!-- SpecificationLabelService -->
<g id="node7" class="node">
<title>SpecificationLabelService</title>
<ellipse fill="#fdb462" stroke="black" cx="800" cy="-104" rx="112.85" ry="18"/>
<text text-anchor="middle" x="800" y="-99.8" font-family="Times,serif" font-size="14.00">SpecificationLabelService</text>
</g>
<!-- SpecificationLabelModule -->
<g id="node8" class="node">
<title>SpecificationLabelModule</title>
<polygon fill="#8dd3c7" stroke="black" points="882.79,-198 879.79,-202 858.79,-202 855.79,-198 717.21,-198 717.21,-162 882.79,-162 882.79,-198"/>
<text text-anchor="middle" x="800" y="-175.8" font-family="Times,serif" font-size="14.00">SpecificationLabelModule</text>
</g>
<!-- SpecificationLabelService&#45;&gt;SpecificationLabelModule -->
<g id="edge6" class="edge">
<title>SpecificationLabelService&#45;&gt;SpecificationLabelModule</title>
<path fill="none" stroke="black" d="M800,-122.01C800,-122.01 800,-151.85 800,-151.85"/>
<polygon fill="black" stroke="black" points="796.5,-151.85 800,-161.85 803.5,-151.85 796.5,-151.85"/>
</g>
<!-- UserPrivateService -->
<g id="node9" class="node">
<title>UserPrivateService</title>
<ellipse fill="#fdb462" stroke="black" cx="355" cy="-104" rx="85.65" ry="18"/>
<text text-anchor="middle" x="355" y="-99.8" font-family="Times,serif" font-size="14.00">UserPrivateService</text>
</g>
<!-- UserPrivateService&#45;&gt;UserPrivateModule -->
<g id="edge7" class="edge">
<title>UserPrivateService&#45;&gt;UserPrivateModule</title>
<path fill="none" stroke="black" d="M355,-122.01C355,-122.01 355,-151.85 355,-151.85"/>
<polygon fill="black" stroke="black" points="351.5,-151.85 355,-161.85 358.5,-151.85 351.5,-151.85"/>
</g>
<!-- UserPublicService -->
<g id="node10" class="node">
<title>UserPublicService</title>
<ellipse fill="#fdb462" stroke="black" cx="564" cy="-104" rx="82.8" ry="18"/>
<text text-anchor="middle" x="564" y="-99.8" font-family="Times,serif" font-size="14.00">UserPublicService</text>
</g>
<!-- UserPublicService&#45;&gt;UserPublicModule -->
<g id="edge8" class="edge">
<title>UserPublicService&#45;&gt;UserPublicModule</title>
<path fill="none" stroke="black" d="M519.49,-119.38C519.49,-119.38 519.49,-151.97 519.49,-151.97"/>
<polygon fill="black" stroke="black" points="515.99,-151.97 519.49,-161.97 522.99,-151.97 515.99,-151.97"/>
</g>
</g>
</svg>
