<?xml version="1.0" encoding="UTF-8" standalone="no"?>
<!DOCTYPE svg PUBLIC "-//W3C//DTD SVG 1.1//EN"
 "http://www.w3.org/Graphics/SVG/1.1/DTD/svg11.dtd">
<!-- Generated by graphviz version 2.47.0 (20210316.0004)
 -->
<!-- Title: dependencies Pages: 1 -->
<svg width="590pt" height="211pt"
 viewBox="0.00 0.00 590.00 211.00" xmlns="http://www.w3.org/2000/svg" xmlns:xlink="http://www.w3.org/1999/xlink">
<g id="graph0" class="graph" transform="scale(1 1) rotate(0) translate(4 207)">
<title>dependencies</title>
<polygon fill="white" stroke="transparent" points="-4,4 -4,-207 586,-207 586,4 -4,4"/>
<text text-anchor="start" x="270.01" y="-42.4" font-family="Times-12" font-weight="bold" font-size="14.00">Legend</text>
<polygon fill="#ffffb3" stroke="transparent" points="57,-10 57,-30 77,-30 77,-10 57,-10"/>
<text text-anchor="start" x="80.63" y="-15.4" font-family="Times-12" font-size="14.00"> &#160;Declarations</text>
<polygon fill="#8dd3c7" stroke="transparent" points="170,-10 170,-30 190,-30 190,-10 170,-10"/>
<text text-anchor="start" x="193.73" y="-15.4" font-family="Times-12" font-size="14.00"> &#160;Module</text>
<polygon fill="#80b1d3" stroke="transparent" points="256,-10 256,-30 276,-30 276,-10 256,-10"/>
<text text-anchor="start" x="279.78" y="-15.4" font-family="Times-12" font-size="14.00"> &#160;Bootstrap</text>
<polygon fill="#fdb462" stroke="transparent" points="353,-10 353,-30 373,-30 373,-10 353,-10"/>
<text text-anchor="start" x="376.67" y="-15.4" font-family="Times-12" font-size="14.00"> &#160;Providers</text>
<polygon fill="#fb8072" stroke="transparent" points="449,-10 449,-30 469,-30 469,-10 449,-10"/>
<text text-anchor="start" x="472.73" y="-15.4" font-family="Times-12" font-size="14.00"> &#160;Exports</text>
<g id="clust1" class="cluster">
<title>cluster_AppModule</title>
<polygon fill="none" stroke="black" stroke-dasharray="1,5" points="8,-70 8,-195 574,-195 574,-70 8,-70"/>
</g>
<g id="clust3" class="cluster">
<title>cluster_AppModule_imports</title>
<polygon fill="none" stroke="black" points="154,-78 154,-130 566,-130 566,-78 154,-78"/>
</g>
<g id="clust6" class="cluster">
<title>cluster_AppModule_providers</title>
<polygon fill="none" stroke="black" points="16,-78 16,-130 146,-130 146,-78 16,-78"/>
</g>
<!-- ResourceModule -->
<g id="node1" class="node">
<title>ResourceModule</title>
<polygon fill="#8dd3c7" stroke="black" points="557.64,-122 554.64,-126 533.64,-126 530.64,-122 446.36,-122 446.36,-86 557.64,-86 557.64,-122"/>
<text text-anchor="middle" x="502" y="-99.8" font-family="Times,serif" font-size="14.00">ResourceModule</text>
</g>
<!-- AppModule -->
<g id="node4" class="node">
<title>AppModule</title>
<polygon fill="#8dd3c7" stroke="black" points="335.66,-187 332.66,-191 311.66,-191 308.66,-187 252.34,-187 252.34,-151 335.66,-151 335.66,-187"/>
<text text-anchor="middle" x="294" y="-164.8" font-family="Times,serif" font-size="14.00">AppModule</text>
</g>
<!-- ResourceModule&#45;&gt;AppModule -->
<g id="edge1" class="edge">
<title>ResourceModule&#45;&gt;AppModule</title>
<path fill="none" stroke="black" d="M502,-122.11C502,-141.34 502,-169 502,-169 502,-169 346.09,-169 346.09,-169"/>
<polygon fill="black" stroke="black" points="346.09,-165.5 336.09,-169 346.09,-172.5 346.09,-165.5"/>
</g>
<!-- UserPrivateModule -->
<g id="node2" class="node">
<title>UserPrivateModule</title>
<polygon fill="#8dd3c7" stroke="black" points="427.63,-122 424.63,-126 403.63,-126 400.63,-122 302.37,-122 302.37,-86 427.63,-86 427.63,-122"/>
<text text-anchor="middle" x="365" y="-99.8" font-family="Times,serif" font-size="14.00">UserPrivateModule</text>
</g>
<!-- UserPrivateModule&#45;&gt;AppModule -->
<g id="edge2" class="edge">
<title>UserPrivateModule&#45;&gt;AppModule</title>
<path fill="none" stroke="black" d="M319.01,-122.11C319.01,-122.11 319.01,-140.99 319.01,-140.99"/>
<polygon fill="black" stroke="black" points="315.51,-140.99 319.01,-150.99 322.51,-140.99 315.51,-140.99"/>
</g>
<!-- UserPublicModule -->
<g id="node3" class="node">
<title>UserPublicModule</title>
<polygon fill="#8dd3c7" stroke="black" points="283.75,-122 280.75,-126 259.75,-126 256.75,-122 162.25,-122 162.25,-86 283.75,-86 283.75,-122"/>
<text text-anchor="middle" x="223" y="-99.8" font-family="Times,serif" font-size="14.00">UserPublicModule</text>
</g>
<!-- UserPublicModule&#45;&gt;AppModule -->
<g id="edge3" class="edge">
<title>UserPublicModule&#45;&gt;AppModule</title>
<path fill="none" stroke="black" d="M268.02,-122.11C268.02,-122.11 268.02,-140.99 268.02,-140.99"/>
<polygon fill="black" stroke="black" points="264.52,-140.99 268.02,-150.99 271.52,-140.99 264.52,-140.99"/>
</g>
<!-- AppService -->
<g id="node5" class="node">
<title>AppService</title>
<ellipse fill="#fdb462" stroke="black" cx="81" cy="-104" rx="56.74" ry="18"/>
<text text-anchor="middle" x="81" y="-99.8" font-family="Times,serif" font-size="14.00">AppService</text>
</g>
<!-- AppService&#45;&gt;AppModule -->
<g id="edge4" class="edge">
<title>AppService&#45;&gt;AppModule</title>
<path fill="none" stroke="black" d="M81,-122.11C81,-141.34 81,-169 81,-169 81,-169 242.17,-169 242.17,-169"/>
<polygon fill="black" stroke="black" points="242.17,-172.5 252.17,-169 242.17,-165.5 242.17,-172.5"/>
</g>
</g>
</svg>
